<svg width="284" height="298" viewBox="0 0 284 298" fill="none" xmlns="http://www.w3.org/2000/svg">
<g id="get-it">
<g id="star">
<path id="star-outer" d="M189.016 29.3603L139.97 95.6734L113.595 21.1186L102.227 97.6966L38.8647 82.4946L79.4444 128.288L21.6623 145.124L73.7519 158.766L41.8961 199.28L84.8288 184.544L63.3154 235.352L114.017 190.298L135.004 253.237L150.183 192.668L194.625 230.467L178.154 162.943L225.862 146.921L185.564 123.952L218.171 83.4803L175.777 98.1129L189.016 29.3603Z" fill="#E9E6DF"/>
<path id="star-middle" d="M175.026 52.176L136.311 104.499L115.499 45.6778L106.522 106.097L56.5124 94.1069L88.5383 130.235L42.9313 143.522L84.0436 154.282L58.8983 186.249L92.7848 174.62L75.8019 214.708L115.822 179.158L132.383 228.815L144.367 181.026L179.442 210.847L166.445 157.572L204.101 144.928L172.296 126.808L198.035 94.8744L164.573 106.422L175.026 52.176Z" fill="#E8BD0F"/>
<path id="star-inner" d="M165.909 72.6695L134.897 114.553L118.235 67.4738L111.039 115.836L70.9885 106.243L96.6343 135.157L60.1071 145.797L93.0323 154.406L72.8908 179.994L100.031 170.683L86.426 202.772L118.481 174.313L131.74 214.058L141.342 175.806L169.43 199.672L159.027 157.031L189.186 146.907L163.715 132.406L184.332 106.844L157.532 116.09L165.909 72.6695Z" fill="#E86322"/>
</g>
<path id="Ellipse 99" d="M280.655 219.55C282.405 255.2 228.871 286.798 161.082 290.127C93.2935 293.456 36.9207 267.255 35.1699 231.605C33.4192 195.955 86.9536 164.357 154.742 161.028C222.531 157.699 278.904 183.9 280.655 219.55Z" fill="#ECF776"/>
<path id="Ellipse 100" d="M263.752 220.517C264.468 235.082 253.874 249.302 235.082 260.393C216.379 271.43 190.028 279.043 160.471 280.495C130.913 281.946 103.943 276.951 84.2495 267.8C64.4605 258.604 52.5247 245.49 51.8095 230.925C51.0942 216.36 61.6876 202.14 80.4804 191.049C99.1828 180.012 125.534 172.399 155.091 170.948C184.649 169.496 211.619 174.491 231.312 183.642C251.101 192.838 263.037 205.952 263.752 220.517Z" stroke="black" stroke-width="4"/>
<path id="get it together" d="M129.526 198.872C129.442 199.273 129.376 199.763 129.329 200.342C129.291 200.911 129.26 201.536 129.237 202.218C129.213 202.89 129.2 203.59 129.198 204.318C129.205 205.045 129.212 205.758 129.218 206.458C129.242 208.101 129.294 209.842 129.375 211.681C129.422 212.643 129.407 213.589 129.33 214.519C129.262 215.439 129.116 216.311 128.892 217.135C128.677 217.958 128.379 218.724 127.998 219.433C127.617 220.142 127.141 220.756 126.571 221.275C126.011 221.794 125.351 222.209 124.591 222.521C123.832 222.842 122.962 223.026 121.981 223.074C121.067 223.119 120.27 223.064 119.591 222.908C118.913 222.752 118.343 222.511 117.883 222.184C117.432 221.866 117.087 221.471 116.847 221.001C116.616 220.54 116.486 220.017 116.458 219.433C116.429 218.857 116.503 218.334 116.678 217.862C116.854 217.39 117.093 216.982 117.398 216.636C117.703 216.3 118.049 216.037 118.437 215.848C118.834 215.658 119.24 215.553 119.654 215.533C120.192 215.506 120.704 215.632 121.19 215.911C121.676 216.19 122.058 216.648 122.335 217.287C122.218 217.217 122.08 217.186 121.919 217.194C121.702 217.204 121.504 217.299 121.324 217.478C121.144 217.666 121.06 217.883 121.072 218.128C121.079 218.27 121.108 218.387 121.16 218.479C121.222 218.579 121.296 218.656 121.384 218.709C121.472 218.761 121.563 218.794 121.658 218.808C121.763 218.832 121.858 218.841 121.943 218.837C122.047 218.832 122.188 218.806 122.365 218.76C122.552 218.722 122.75 218.623 122.96 218.461C123.169 218.3 123.375 218.058 123.576 217.736C123.778 217.414 123.955 216.976 124.107 216.42C124.259 215.864 124.367 215.164 124.429 214.32C124.501 213.475 124.508 212.454 124.449 211.257C124.302 212.105 124.098 212.777 123.839 213.272C123.58 213.766 123.296 214.144 122.987 214.405C122.678 214.656 122.356 214.819 122.019 214.892C121.692 214.965 121.382 215.008 121.09 215.023C120.863 215.034 120.574 215.01 120.221 214.952C119.868 214.884 119.489 214.761 119.083 214.583C118.686 214.394 118.277 214.135 117.854 213.806C117.441 213.468 117.06 213.037 116.713 212.516C116.366 211.985 116.07 211.347 115.826 210.603C115.59 209.849 115.447 208.958 115.397 207.93C115.319 206.346 115.413 204.999 115.68 203.89C115.956 202.78 116.333 201.878 116.809 201.183C117.294 200.479 117.841 199.965 118.449 199.643C119.056 199.31 119.657 199.13 120.251 199.1C120.675 199.08 121.065 199.131 121.421 199.256C121.777 199.37 122.101 199.534 122.395 199.746C122.689 199.959 122.952 200.201 123.182 200.473C123.413 200.736 123.62 201.005 123.803 201.279C123.726 200.867 123.635 200.456 123.53 200.045C123.434 199.634 123.324 199.219 123.199 198.8C123.44 198.892 123.737 198.972 124.09 199.039C124.396 199.1 124.776 199.148 125.231 199.182C125.686 199.207 126.234 199.204 126.875 199.172C127.63 199.135 128.513 199.035 129.526 198.872ZM123.85 206.267C123.837 206.003 123.802 205.689 123.746 205.323C123.69 204.947 123.602 204.593 123.482 204.258C123.361 203.914 123.2 203.625 122.999 203.389C122.808 203.152 122.566 203.041 122.274 203.056C122.057 203.066 121.866 203.203 121.699 203.467C121.532 203.721 121.391 204.03 121.277 204.395C121.171 204.75 121.09 205.118 121.033 205.498C120.986 205.879 120.968 206.201 120.981 206.465C121.004 206.918 121.05 207.378 121.12 207.848C121.19 208.317 121.287 208.742 121.41 209.123C121.541 209.495 121.693 209.8 121.866 210.037C122.047 210.274 122.251 210.386 122.478 210.375C122.723 210.363 122.937 210.296 123.12 210.174C123.312 210.041 123.469 209.873 123.591 209.669C123.723 209.454 123.815 209.213 123.868 208.946C123.93 208.678 123.954 208.394 123.939 208.092L123.85 206.267ZM146.244 201.156C146.278 201.863 146.208 202.556 146.034 203.236C145.869 203.915 145.544 204.526 145.061 205.07C144.577 205.613 143.909 206.062 143.057 206.416C142.214 206.769 141.128 206.978 139.799 207.044C139.859 207.504 139.972 207.886 140.138 208.19C140.314 208.493 140.515 208.733 140.741 208.911C140.967 209.089 141.205 209.219 141.455 209.302C141.705 209.384 141.934 209.439 142.143 209.466C142.353 209.494 142.528 209.504 142.669 209.497C142.811 209.49 142.882 209.487 142.882 209.487C143.463 209.392 143.979 209.215 144.429 208.957C144.623 208.853 144.81 208.726 144.992 208.575C145.173 208.415 145.334 208.232 145.475 208.027C145.625 207.811 145.741 207.574 145.823 207.315C145.914 207.046 145.96 206.741 145.962 206.401C146.238 207.002 146.436 207.568 146.556 208.101C146.686 208.624 146.762 209.117 146.785 209.579C146.826 210.427 146.709 211.217 146.433 211.949C146.166 212.671 145.777 213.305 145.265 213.85C144.753 214.395 144.131 214.827 143.4 215.146C142.679 215.475 141.885 215.66 141.018 215.703C140.169 215.745 139.342 215.639 138.535 215.385C137.738 215.131 137.018 214.704 136.374 214.102C135.739 213.491 135.213 212.685 134.795 211.684C134.387 210.684 134.147 209.457 134.076 208.005C133.998 206.431 134.156 205.024 134.549 203.786C134.942 202.547 135.5 201.499 136.223 200.641C136.946 199.774 137.797 199.104 138.776 198.63C139.763 198.147 140.809 197.878 141.912 197.824C142.459 197.797 142.985 197.833 143.491 197.931C144.006 198.028 144.459 198.209 144.85 198.474C145.251 198.738 145.575 199.09 145.824 199.532C146.072 199.964 146.212 200.505 146.244 201.156ZM139.627 204.713C139.891 204.69 140.195 204.624 140.539 204.512C140.883 204.391 141.206 204.234 141.508 204.039C141.811 203.845 142.059 203.611 142.253 203.336C142.457 203.062 142.551 202.755 142.534 202.415C142.524 202.198 142.44 202.028 142.282 201.903C142.125 201.778 141.928 201.722 141.693 201.733C141.363 201.75 141.07 201.859 140.816 202.06C140.57 202.261 140.36 202.508 140.186 202.8C140.02 203.092 139.889 203.41 139.793 203.755C139.696 204.1 139.641 204.419 139.627 204.713ZM161.749 196.368C161.695 196.796 161.658 197.213 161.641 197.621C161.632 198.028 161.638 198.443 161.659 198.867C161.679 199.273 161.713 199.682 161.762 200.096C161.82 200.499 161.896 200.907 161.992 201.318C161.528 201.104 161.006 200.955 160.425 200.87C159.854 200.785 159.269 200.724 158.672 200.687L158.732 201.903C158.784 202.969 158.856 204.047 158.947 205.139C159.038 206.222 159.152 207.275 159.287 208.298C159.422 209.312 159.578 210.274 159.755 211.182C159.941 212.089 160.15 212.892 160.383 213.589C160.222 213.588 160.033 213.583 159.815 213.575C159.626 213.574 159.404 213.576 159.149 213.579C158.894 213.582 158.602 213.592 158.272 213.608C157.659 213.638 156.953 213.701 156.154 213.797C155.355 213.883 154.492 214.02 153.566 214.208C153.796 212.353 153.929 210.433 153.964 208.446C154.007 206.45 153.983 204.504 153.89 202.609L153.807 200.926C153.168 201.005 152.535 201.111 151.909 201.246C151.291 201.371 150.708 201.518 150.158 201.686C150.191 201.581 150.217 201.442 150.237 201.271C150.257 201.1 150.267 200.925 150.268 200.745C150.278 200.565 150.279 200.39 150.27 200.221C150.272 200.05 150.269 199.909 150.264 199.796C150.24 199.315 150.198 198.84 150.137 198.37C150.076 197.9 150.006 197.427 149.925 196.948C150.387 197.115 150.932 197.244 151.561 197.336C152.189 197.419 152.824 197.472 153.468 197.497C153.372 196.68 153.268 195.924 153.159 195.23C153.049 194.536 152.928 193.909 152.797 193.348C153.567 193.443 154.279 193.498 154.931 193.513C155.584 193.528 156.175 193.523 156.703 193.497C157.042 193.48 157.344 193.46 157.607 193.438C157.88 193.406 158.11 193.376 158.298 193.347C158.523 193.317 158.72 193.284 158.888 193.248C158.807 193.705 158.745 194.275 158.703 194.958C158.67 195.631 158.64 196.383 158.615 197.216C159.234 197.12 159.814 197.002 160.356 196.862C160.906 196.721 161.371 196.556 161.749 196.368ZM180.729 212.59C180.568 212.589 180.379 212.584 180.161 212.576C179.972 212.575 179.75 212.577 179.495 212.58C179.24 212.583 178.947 212.593 178.617 212.609C178.005 212.639 177.299 212.702 176.5 212.798C175.701 212.884 174.838 213.021 173.912 213.208C174.073 212.841 174.202 212.386 174.298 211.843C174.394 211.29 174.465 210.705 174.51 210.088C174.564 209.462 174.595 208.832 174.601 208.198C174.617 207.564 174.622 206.983 174.615 206.454C174.608 205.925 174.595 205.477 174.577 205.109C174.569 204.741 174.562 204.51 174.557 204.415C174.478 203.19 174.38 202.047 174.261 200.985C174.211 200.534 174.151 200.078 174.081 199.618C174.02 199.158 173.952 198.727 173.875 198.324C173.798 197.912 173.714 197.548 173.623 197.231C173.541 196.904 173.448 196.649 173.345 196.465C174.115 196.559 174.826 196.614 175.479 196.629C176.132 196.644 176.723 196.639 177.251 196.613C177.59 196.596 177.892 196.577 178.155 196.555C178.428 196.522 178.658 196.492 178.845 196.464C179.071 196.434 179.268 196.401 179.436 196.364C179.308 197.221 179.217 198.251 179.162 199.454C179.117 200.656 179.128 201.941 179.196 203.308C179.234 204.091 179.292 204.882 179.369 205.682C179.446 206.481 179.547 207.28 179.671 208.077C179.795 208.865 179.941 209.642 180.111 210.409C180.29 211.166 180.496 211.893 180.729 212.59ZM173.244 192.684C173.223 192.251 173.283 191.841 173.425 191.456C173.575 191.061 173.785 190.715 174.054 190.419C174.332 190.112 174.661 189.869 175.039 189.69C175.417 189.501 175.823 189.396 176.257 189.375C176.691 189.354 177.101 189.418 177.486 189.57C177.88 189.711 178.226 189.921 178.524 190.199C178.83 190.468 179.072 190.791 179.252 191.17C179.44 191.539 179.545 191.94 179.566 192.374C179.587 192.808 179.523 193.222 179.372 193.617C179.231 194.011 179.021 194.362 178.743 194.668C178.474 194.965 178.15 195.208 177.772 195.397C177.403 195.575 177.001 195.675 176.568 195.697C176.134 195.718 175.72 195.658 175.325 195.517C174.93 195.366 174.58 195.156 174.274 194.888C173.977 194.61 173.734 194.281 173.545 193.903C173.366 193.524 173.265 193.118 173.244 192.684ZM195.464 194.712C195.409 195.14 195.373 195.558 195.355 195.965C195.347 196.372 195.353 196.787 195.374 197.212C195.394 197.617 195.428 198.027 195.477 198.44C195.535 198.844 195.611 199.251 195.707 199.662C195.243 199.449 194.721 199.299 194.14 199.215C193.569 199.129 192.984 199.068 192.387 199.031L192.447 200.248C192.499 201.313 192.571 202.392 192.662 203.484C192.753 204.566 192.866 205.619 193.002 206.643C193.137 207.657 193.293 208.618 193.469 209.526C193.656 210.434 193.865 211.236 194.098 211.934C193.937 211.932 193.748 211.927 193.53 211.919C193.341 211.919 193.119 211.92 192.864 211.923C192.609 211.926 192.317 211.936 191.987 211.952C191.374 211.982 190.668 212.045 189.869 212.141C189.07 212.228 188.207 212.365 187.281 212.552C187.511 210.698 187.644 208.777 187.678 206.791C187.722 204.794 187.698 202.848 187.604 200.953L187.522 199.27C186.883 199.349 186.25 199.456 185.624 199.59C185.006 199.715 184.422 199.862 183.873 200.031C183.906 199.925 183.932 199.787 183.952 199.616C183.972 199.445 183.982 199.269 183.983 199.09C183.993 198.91 183.994 198.735 183.985 198.565C183.986 198.395 183.984 198.253 183.979 198.14C183.955 197.659 183.913 197.184 183.852 196.714C183.791 196.245 183.721 195.771 183.64 195.293C184.102 195.459 184.647 195.588 185.276 195.68C185.903 195.763 186.539 195.817 187.183 195.842C187.086 195.024 186.983 194.268 186.873 193.574C186.764 192.88 186.643 192.253 186.512 191.692C187.282 191.787 187.993 191.842 188.646 191.857C189.299 191.872 189.89 191.867 190.418 191.841C190.757 191.824 191.059 191.805 191.322 191.782C191.595 191.75 191.825 191.72 192.012 191.692C192.238 191.662 192.435 191.628 192.603 191.592C192.521 192.05 192.46 192.62 192.418 193.302C192.384 193.975 192.355 194.728 192.33 195.561C192.949 195.464 193.529 195.346 194.071 195.206C194.621 195.065 195.086 194.901 195.464 194.712ZM103.771 237.261C103.716 237.689 103.68 238.106 103.662 238.514C103.654 238.921 103.66 239.336 103.681 239.76C103.701 240.166 103.735 240.575 103.784 240.989C103.841 241.392 103.918 241.8 104.014 242.211C103.55 241.997 103.027 241.848 102.446 241.763C101.875 241.678 101.291 241.617 100.694 241.58L100.753 242.796C100.806 243.862 100.878 244.94 100.969 246.032C101.06 247.115 101.173 248.168 101.308 249.191C101.443 250.205 101.599 251.167 101.776 252.075C101.962 252.982 102.172 253.785 102.405 254.482C102.244 254.481 102.055 254.476 101.837 254.468C101.648 254.468 101.426 254.469 101.171 254.472C100.916 254.475 100.623 254.485 100.293 254.501C99.6804 254.531 98.9746 254.594 98.1759 254.69C97.3768 254.777 96.514 254.913 95.5875 255.101C95.8178 253.246 95.9503 251.326 95.9851 249.339C96.0288 247.343 96.0041 245.397 95.9111 243.502L95.8284 241.819C95.1896 241.898 94.5568 242.004 93.9302 242.139C93.3125 242.264 92.729 242.411 92.1797 242.579C92.2123 242.474 92.2386 242.335 92.2585 242.164C92.2785 241.993 92.2888 241.818 92.2894 241.638C92.2995 241.458 92.3003 241.283 92.292 241.114C92.2931 240.943 92.2909 240.802 92.2853 240.689C92.2617 240.208 92.2195 239.733 92.1586 239.263C92.0977 238.793 92.0272 238.32 91.947 237.841C92.4089 238.008 92.9539 238.137 93.5822 238.229C94.2101 238.312 94.846 238.365 95.4899 238.391C95.3931 237.573 95.2898 236.817 95.1801 236.123C95.0704 235.429 94.9498 234.802 94.8183 234.241C95.5885 234.336 96.3001 234.391 96.953 234.406C97.6059 234.421 98.1963 234.416 98.7243 234.39C99.0638 234.373 99.3653 234.353 99.6288 234.331C99.9013 234.299 100.131 234.269 100.319 234.24C100.544 234.21 100.741 234.177 100.91 234.141C100.828 234.598 100.766 235.168 100.724 235.851C100.691 236.524 100.662 237.276 100.637 238.109C101.256 238.013 101.836 237.895 102.377 237.755C102.928 237.614 103.392 237.45 103.771 237.261ZM121.41 245.326C121.437 245.873 121.424 246.479 121.372 247.143C121.319 247.798 121.21 248.464 121.045 249.144C120.879 249.813 120.642 250.472 120.334 251.121C120.025 251.76 119.628 252.332 119.142 252.838C118.666 253.344 118.086 253.759 117.403 254.086C116.72 254.413 115.916 254.599 114.992 254.644C114.068 254.689 113.25 254.592 112.539 254.353C111.837 254.114 111.226 253.78 110.704 253.352C110.191 252.914 109.759 252.406 109.409 251.827C109.059 251.24 108.774 250.621 108.553 249.97C108.332 249.319 108.167 248.661 108.059 247.995C107.959 247.319 107.895 246.68 107.865 246.076C107.813 245.011 107.903 243.962 108.136 242.93C108.368 241.888 108.753 240.953 109.288 240.123C109.834 239.293 110.528 238.611 111.371 238.078C112.224 237.545 113.24 237.249 114.418 237.192C115.21 237.153 115.928 237.24 116.572 237.454C117.215 237.659 117.792 237.957 118.303 238.348C118.814 238.738 119.252 239.204 119.619 239.743C119.995 240.282 120.312 240.858 120.569 241.469C120.825 242.08 121.022 242.718 121.159 243.382C121.295 244.046 121.379 244.694 121.41 245.326ZM116.511 246.035C116.501 245.818 116.478 245.55 116.443 245.23C116.418 244.9 116.373 244.558 116.308 244.202C116.243 243.846 116.16 243.491 116.057 243.136C115.964 242.782 115.845 242.466 115.699 242.19C115.553 241.914 115.376 241.691 115.17 241.521C114.972 241.351 114.742 241.273 114.478 241.286C114.223 241.298 114.006 241.394 113.825 241.573C113.645 241.752 113.491 241.982 113.363 242.262C113.244 242.542 113.147 242.859 113.069 243.212C113.001 243.556 112.947 243.903 112.908 244.255C112.878 244.597 112.856 244.929 112.843 245.251C112.84 245.563 112.843 245.827 112.854 246.044C112.869 246.355 112.911 246.731 112.98 247.172C113.049 247.613 113.16 248.033 113.312 248.432C113.463 248.831 113.66 249.171 113.9 249.452C114.15 249.723 114.463 249.85 114.841 249.831C115.199 249.814 115.489 249.667 115.712 249.391C115.944 249.115 116.122 248.785 116.245 248.401C116.367 248.008 116.446 247.597 116.482 247.17C116.518 246.743 116.528 246.365 116.511 246.035ZM139.846 236.411C139.762 236.812 139.696 237.302 139.649 237.881C139.611 238.45 139.58 239.075 139.557 239.757C139.533 240.429 139.52 241.129 139.518 241.857C139.526 242.584 139.532 243.297 139.538 243.996C139.562 245.64 139.615 247.381 139.696 249.22C139.743 250.182 139.728 251.128 139.651 252.058C139.582 252.978 139.436 253.85 139.212 254.674C138.997 255.497 138.699 256.263 138.318 256.972C137.937 257.681 137.462 258.295 136.892 258.814C136.331 259.333 135.671 259.748 134.911 260.06C134.152 260.38 133.282 260.565 132.302 260.613C131.387 260.658 130.59 260.603 129.912 260.447C129.233 260.291 128.663 260.05 128.203 259.723C127.753 259.405 127.407 259.01 127.167 258.54C126.936 258.079 126.807 257.556 126.778 256.971C126.75 256.396 126.823 255.873 126.999 255.401C127.174 254.929 127.414 254.521 127.718 254.175C128.023 253.839 128.369 253.576 128.757 253.387C129.154 253.197 129.56 253.092 129.975 253.072C130.512 253.045 131.024 253.171 131.51 253.45C131.997 253.729 132.378 254.187 132.655 254.826C132.539 254.756 132.4 254.725 132.24 254.733C132.023 254.743 131.824 254.838 131.644 255.017C131.464 255.205 131.38 255.422 131.392 255.667C131.399 255.809 131.429 255.926 131.48 256.018C131.542 256.118 131.617 256.195 131.704 256.248C131.792 256.3 131.883 256.333 131.979 256.347C132.084 256.371 132.179 256.38 132.264 256.376C132.367 256.371 132.508 256.345 132.685 256.299C132.872 256.261 133.071 256.162 133.28 256C133.49 255.839 133.695 255.597 133.897 255.275C134.098 254.953 134.275 254.515 134.427 253.959C134.58 253.403 134.687 252.703 134.75 251.859C134.822 251.014 134.828 249.993 134.769 248.796C134.622 249.644 134.419 250.316 134.159 250.811C133.9 251.305 133.616 251.683 133.308 251.944C132.999 252.195 132.676 252.358 132.339 252.431C132.012 252.504 131.702 252.547 131.41 252.562C131.184 252.573 130.894 252.549 130.542 252.491C130.189 252.423 129.809 252.3 129.404 252.122C129.007 251.933 128.597 251.674 128.175 251.345C127.761 251.007 127.381 250.576 127.034 250.055C126.686 249.523 126.39 248.886 126.146 248.142C125.91 247.388 125.767 246.497 125.717 245.469C125.639 243.885 125.734 242.538 126.001 241.429C126.277 240.319 126.653 239.417 127.129 238.722C127.615 238.018 128.161 237.504 128.769 237.182C129.377 236.849 129.977 236.669 130.571 236.639C130.996 236.619 131.386 236.67 131.742 236.795C132.097 236.909 132.422 237.073 132.716 237.285C133.009 237.498 133.272 237.74 133.503 238.012C133.733 238.275 133.94 238.544 134.123 238.818C134.047 238.406 133.955 237.995 133.85 237.584C133.754 237.173 133.644 236.758 133.52 236.339C133.76 236.431 134.057 236.511 134.41 236.578C134.716 236.639 135.096 236.687 135.552 236.721C136.006 236.746 136.555 236.742 137.196 236.711C137.95 236.674 138.833 236.574 139.846 236.411ZM134.17 243.806C134.157 243.542 134.123 243.227 134.067 242.862C134.011 242.486 133.922 242.132 133.802 241.797C133.681 241.453 133.52 241.164 133.32 240.928C133.129 240.691 132.887 240.58 132.594 240.595C132.378 240.605 132.186 240.742 132.019 241.006C131.852 241.26 131.711 241.569 131.597 241.934C131.492 242.289 131.41 242.657 131.353 243.037C131.306 243.418 131.289 243.74 131.302 244.004C131.324 244.457 131.37 244.917 131.44 245.387C131.511 245.856 131.607 246.281 131.73 246.662C131.862 247.034 132.014 247.338 132.186 247.576C132.368 247.813 132.572 247.925 132.798 247.914C133.043 247.902 133.257 247.835 133.44 247.713C133.632 247.58 133.789 247.412 133.912 247.207C134.043 246.993 134.135 246.752 134.188 246.485C134.251 246.217 134.274 245.933 134.26 245.631L134.17 243.806ZM156.564 238.695C156.599 239.402 156.529 240.095 156.354 240.775C156.189 241.454 155.865 242.065 155.381 242.609C154.897 243.152 154.229 243.601 153.377 243.955C152.534 244.308 151.448 244.517 150.119 244.583C150.179 245.043 150.293 245.425 150.459 245.729C150.634 246.032 150.835 246.272 151.061 246.45C151.287 246.628 151.525 246.758 151.775 246.841C152.025 246.923 152.254 246.978 152.464 247.005C152.673 247.033 152.848 247.043 152.99 247.036C153.131 247.029 153.202 247.026 153.202 247.026C153.783 246.931 154.299 246.754 154.75 246.496C154.943 246.392 155.13 246.265 155.312 246.114C155.493 245.954 155.654 245.771 155.795 245.566C155.946 245.35 156.062 245.113 156.143 244.854C156.234 244.585 156.281 244.28 156.283 243.94C156.558 244.541 156.756 245.107 156.877 245.64C157.006 246.163 157.082 246.656 157.105 247.118C157.147 247.966 157.03 248.756 156.754 249.488C156.487 250.21 156.097 250.844 155.585 251.389C155.073 251.934 154.452 252.366 153.721 252.685C153 253.014 152.205 253.199 151.338 253.242C150.489 253.283 149.662 253.178 148.856 252.924C148.059 252.67 147.338 252.243 146.694 251.641C146.059 251.029 145.533 250.224 145.115 249.223C144.707 248.223 144.467 246.996 144.396 245.544C144.319 243.97 144.476 242.563 144.869 241.325C145.262 240.086 145.82 239.038 146.544 238.18C147.267 237.313 148.117 236.643 149.096 236.169C150.084 235.686 151.129 235.417 152.232 235.363C152.779 235.336 153.305 235.372 153.811 235.47C154.326 235.567 154.779 235.748 155.17 236.013C155.571 236.276 155.895 236.629 156.144 237.071C156.392 237.503 156.532 238.044 156.564 238.695ZM149.948 242.252C150.211 242.229 150.515 242.163 150.859 242.051C151.203 241.93 151.526 241.773 151.829 241.578C152.131 241.384 152.379 241.15 152.574 240.875C152.778 240.601 152.871 240.294 152.855 239.954C152.844 239.737 152.76 239.567 152.603 239.442C152.445 239.317 152.249 239.261 152.013 239.272C151.683 239.289 151.391 239.398 151.136 239.599C150.891 239.8 150.681 240.047 150.506 240.339C150.341 240.631 150.21 240.949 150.113 241.294C150.017 241.639 149.962 241.958 149.948 242.252ZM172.069 233.907C172.015 234.335 171.979 234.752 171.961 235.16C171.952 235.567 171.959 235.982 171.98 236.406C171.999 236.812 172.034 237.221 172.082 237.635C172.14 238.038 172.217 238.446 172.313 238.857C171.848 238.643 171.326 238.494 170.745 238.409C170.174 238.324 169.59 238.263 168.992 238.226L169.052 239.442C169.104 240.508 169.176 241.586 169.268 242.678C169.359 243.761 169.472 244.814 169.607 245.837C169.742 246.851 169.898 247.813 170.075 248.721C170.261 249.628 170.471 250.431 170.704 251.128C170.543 251.127 170.354 251.122 170.136 251.114C169.947 251.113 169.725 251.115 169.47 251.118C169.215 251.121 168.922 251.131 168.592 251.147C167.979 251.177 167.273 251.24 166.475 251.336C165.676 251.422 164.813 251.559 163.886 251.747C164.117 249.892 164.249 247.972 164.284 245.985C164.328 243.989 164.303 242.043 164.21 240.148L164.127 238.465C163.488 238.544 162.856 238.65 162.229 238.785C161.611 238.91 161.028 239.057 160.478 239.225C160.511 239.12 160.537 238.981 160.557 238.81C160.577 238.639 160.588 238.464 160.588 238.284C160.598 238.104 160.599 237.929 160.591 237.76C160.592 237.589 160.59 237.448 160.584 237.335C160.56 236.854 160.518 236.379 160.457 235.909C160.397 235.439 160.326 234.965 160.246 234.487C160.708 234.654 161.253 234.783 161.881 234.875C162.509 234.958 163.145 235.011 163.789 235.036C163.692 234.219 163.589 233.463 163.479 232.769C163.369 232.075 163.249 231.448 163.117 230.887C163.887 230.982 164.599 231.037 165.252 231.052C165.905 231.067 166.495 231.062 167.023 231.036C167.363 231.019 167.664 230.999 167.928 230.977C168.2 230.945 168.43 230.915 168.618 230.886C168.843 230.856 169.04 230.823 169.208 230.787C169.127 231.244 169.065 231.814 169.023 232.497C168.99 233.17 168.961 233.922 168.935 234.755C169.554 234.659 170.135 234.541 170.676 234.401C171.227 234.26 171.691 234.095 172.069 233.907ZM191.303 250.755C190.79 250.704 190.221 250.675 189.597 250.668C188.973 250.661 188.35 250.673 187.728 250.703C187.134 250.733 186.559 250.78 186.005 250.845C185.46 250.909 184.986 250.98 184.583 251.056C184.748 250.368 184.869 249.658 184.947 248.926C185.034 248.194 185.086 247.435 185.104 246.65C185.131 245.855 185.133 245.028 185.11 244.169C185.087 243.31 185.052 242.404 185.005 241.452C184.998 241.31 184.979 241.122 184.949 240.887C184.928 240.652 184.892 240.399 184.841 240.127C184.79 239.856 184.72 239.585 184.631 239.315C184.551 239.036 184.449 238.785 184.324 238.565C184.2 238.344 184.05 238.167 183.873 238.034C183.706 237.9 183.514 237.839 183.297 237.85C183.155 237.857 183.018 237.939 182.884 238.097C182.759 238.245 182.631 238.445 182.502 238.697C182.372 238.939 182.249 239.224 182.133 239.551C182.016 239.869 181.905 240.205 181.8 240.56C181.866 241.521 181.945 242.472 182.039 243.412C182.141 244.343 182.256 245.24 182.384 246.103C182.52 246.956 182.668 247.762 182.829 248.52C182.988 249.268 183.167 249.93 183.366 250.506C183.205 250.505 183.016 250.5 182.798 250.492C182.609 250.492 182.382 250.493 182.117 250.497C181.862 250.5 181.57 250.51 181.24 250.526C180.627 250.556 179.921 250.619 179.123 250.715C178.333 250.801 177.475 250.938 176.548 251.125C176.667 250.854 176.767 250.486 176.848 250.018C176.929 249.542 176.993 249.009 177.039 248.421C177.086 247.823 177.116 247.193 177.131 246.531C177.155 245.859 177.164 245.187 177.16 244.517C177.164 243.845 177.156 243.198 177.135 242.575C177.123 241.943 177.109 241.376 177.094 240.876C177.079 240.367 177.062 239.937 177.045 239.588C177.028 239.24 177.017 239.013 177.012 238.91C176.916 237.336 176.801 235.877 176.669 234.532C176.613 233.967 176.552 233.398 176.486 232.825C176.42 232.252 176.347 231.717 176.266 231.22C176.184 230.723 176.097 230.288 176.003 229.914C175.918 229.54 175.824 229.261 175.721 229.077C176.491 229.172 177.203 229.227 177.855 229.242C178.508 229.257 179.094 229.252 179.613 229.226C179.952 229.21 180.258 229.19 180.531 229.167C180.804 229.135 181.034 229.105 181.222 229.077C181.447 229.047 181.644 229.013 181.812 228.977C181.753 229.31 181.706 229.71 181.672 230.174C181.639 230.639 181.612 231.16 181.593 231.738C181.574 232.315 181.562 232.935 181.557 233.597C181.561 234.258 181.571 234.948 181.588 235.665C182.084 234.8 182.635 234.182 183.24 233.812C183.846 233.432 184.483 233.226 185.152 233.193C185.822 233.161 186.442 233.281 187.013 233.556C187.593 233.82 188.101 234.254 188.537 234.856C188.982 235.449 189.341 236.211 189.614 237.142C189.896 238.074 190.068 239.185 190.132 240.477C190.175 241.363 190.22 242.283 190.267 243.235C190.323 244.177 190.392 245.105 190.475 246.018C190.557 246.921 190.665 247.78 190.8 248.596C190.934 249.412 191.102 250.131 191.303 250.755ZM207.109 236.212C207.144 236.92 207.074 237.613 206.899 238.293C206.734 238.972 206.41 239.583 205.926 240.127C205.442 240.67 204.775 241.119 203.922 241.473C203.08 241.826 201.994 242.035 200.664 242.101C200.724 242.561 200.838 242.943 201.004 243.246C201.179 243.55 201.38 243.79 201.606 243.968C201.833 244.146 202.071 244.276 202.32 244.358C202.57 244.441 202.8 244.496 203.009 244.523C203.218 244.551 203.394 244.561 203.535 244.554C203.676 244.547 203.747 244.544 203.747 244.544C204.328 244.449 204.844 244.272 205.295 244.014C205.488 243.91 205.676 243.782 205.857 243.632C206.038 243.472 206.2 243.289 206.341 243.084C206.491 242.868 206.607 242.631 206.689 242.372C206.779 242.103 206.826 241.798 206.828 241.458C207.103 242.058 207.301 242.625 207.422 243.158C207.551 243.681 207.628 244.173 207.65 244.635C207.692 245.484 207.575 246.274 207.299 247.006C207.032 247.728 206.642 248.362 206.13 248.906C205.618 249.451 204.997 249.884 204.266 250.203C203.545 250.532 202.751 250.717 201.883 250.76C201.035 250.801 200.207 250.695 199.401 250.442C198.604 250.188 197.883 249.76 197.24 249.159C196.605 248.547 196.078 247.741 195.661 246.741C195.252 245.74 195.012 244.514 194.941 243.062C194.864 241.487 195.022 240.081 195.414 238.842C195.807 237.604 196.365 236.556 197.089 235.698C197.812 234.831 198.663 234.16 199.641 233.687C200.629 233.204 201.674 232.935 202.777 232.881C203.324 232.854 203.851 232.89 204.356 232.988C204.871 233.085 205.325 233.266 205.716 233.53C206.116 233.794 206.441 234.147 206.689 234.588C206.937 235.02 207.077 235.562 207.109 236.212ZM200.493 239.77C200.756 239.747 201.06 239.68 201.405 239.569C201.748 239.448 202.071 239.29 202.374 239.096C202.676 238.902 202.925 238.667 203.119 238.393C203.323 238.118 203.416 237.811 203.4 237.472C203.389 237.255 203.305 237.084 203.148 236.96C202.99 236.835 202.794 236.779 202.558 236.79C202.228 236.806 201.936 236.915 201.681 237.117C201.436 237.318 201.226 237.565 201.051 237.857C200.886 238.148 200.755 238.467 200.659 238.812C200.562 239.157 200.507 239.476 200.493 239.77ZM219.207 235.944C218.915 235.959 218.655 236.056 218.428 236.238C218.2 236.41 217.999 236.651 217.825 236.962C217.661 237.263 217.518 237.625 217.397 238.046C217.285 238.468 217.199 238.93 217.139 239.434C217.178 240.236 217.237 241.046 217.315 241.864C217.393 242.683 217.494 243.49 217.618 244.288C217.742 245.085 217.889 245.862 218.059 246.619C218.238 247.376 218.443 248.094 218.675 248.772C218.523 248.77 218.348 248.765 218.149 248.756C217.979 248.755 217.771 248.755 217.526 248.758C217.289 248.76 217.016 248.769 216.705 248.784C216.12 248.813 215.443 248.875 214.672 248.969C213.911 249.054 213.067 249.19 212.14 249.377C212.228 248.843 212.295 248.193 212.342 247.425C212.39 246.657 212.42 245.824 212.432 244.925C212.445 244.027 212.441 243.091 212.422 242.119C212.411 241.136 212.383 240.169 212.336 239.216C212.301 238.509 212.258 237.817 212.206 237.139C212.153 236.461 212.094 235.821 212.026 235.219C211.968 234.617 211.899 234.063 211.817 233.557C211.736 233.05 211.648 232.615 211.555 232.251C212.325 232.346 213.022 232.406 213.647 232.432C214.281 232.448 214.848 232.444 215.348 232.419C215.669 232.404 215.951 232.385 216.196 232.364C216.44 232.333 216.651 232.303 216.83 232.276C217.026 232.238 217.204 232.201 217.363 232.164C217.273 232.641 217.214 233.169 217.185 233.747C217.647 233.129 218.158 232.664 218.719 232.353C219.29 232.042 219.83 231.873 220.339 231.848C221.187 231.807 221.912 231.927 222.511 232.209C223.111 232.482 223.602 232.86 223.985 233.342C224.367 233.815 224.654 234.363 224.845 234.987C225.037 235.611 225.148 236.248 225.18 236.899C225.211 237.53 225.152 238.152 225.002 238.765C224.853 239.377 224.62 239.932 224.304 240.429C223.988 240.917 223.587 241.32 223.102 241.637C222.617 241.953 222.058 242.127 221.426 242.158C220.87 242.186 220.389 242.115 219.984 241.946C219.588 241.776 219.256 241.547 218.986 241.257C218.717 240.968 218.512 240.647 218.372 240.295C218.241 239.933 218.166 239.573 218.149 239.215C218.13 238.837 218.164 238.467 218.25 238.104C218.346 237.74 218.49 237.407 218.683 237.104C218.759 237.308 218.847 237.465 218.947 237.573C219.056 237.672 219.163 237.742 219.269 237.784C219.385 237.835 219.509 237.862 219.642 237.865C219.991 237.848 220.246 237.755 220.408 237.587C220.579 237.418 220.659 237.225 220.649 237.008C220.644 236.904 220.619 236.787 220.575 236.657C220.531 236.527 220.454 236.408 220.345 236.3C220.245 236.191 220.104 236.103 219.921 236.037C219.737 235.961 219.5 235.93 219.207 235.944Z" fill="black"/>
</g>
</svg>
