<svg width="332" height="260" viewBox="0 0 332 260" fill="none" xmlns="http://www.w3.org/2000/svg">
<g id="green-cloud">
<g id="Vector">
<path d="M51.5233 129.954L19.8812 130.12C12.3397 130.16 5.47943 134.497 2.20694 141.293C-1.12083 148.205 -0.142224 156.418 4.71607 162.351L5.66759 163.513C6.6935 170.469 13.0557 176.111 20.8741 175.233L21.8847 175.119C25.9885 176.196 30.3603 176.317 34.6597 175.366L45.1591 173.043C43.0699 194.27 68.7207 206.727 84.1209 191.683L95.1365 180.921C84.9213 201.785 107.365 223.517 127.881 212.626L146.057 202.977L152.772 231.753C154.103 237.454 157.072 242.64 161.314 246.672L165.715 250.855C180.588 264.993 205.061 260.316 211.743 240.902C218.045 222.593 220.809 209.484 222.576 201.1C224.338 192.747 225.11 189.084 227.407 189.643L248.158 193.588C267.752 197.314 285.466 181.225 283.646 161.357L280.589 127.994L312.225 127.443C319.765 127.312 326.573 122.892 329.764 116.056C333.009 109.104 331.933 100.903 327.004 95.029L325.242 92.9283C324.07 90.8214 322.36 89.0253 320.274 87.7641C313.817 82.507 305.204 80.4372 296.909 82.3785L287.63 84.5502C287.212 65.3267 263.518 54.5772 248.746 68.6634L237.603 79.289C248.067 58.5516 225.882 36.55 205.237 47.1902L186.947 56.6166L180.574 27.7626C179.312 22.0464 176.405 16.8251 172.211 12.7421L167.86 8.50539C153.156 -5.81151 128.627 -1.43211 121.714 17.8984C115.194 36.1277 112.274 49.2016 110.406 57.563L110.406 57.5631C108.546 65.894 107.73 69.5468 105.439 68.9596L84.7363 64.7627C65.1871 60.7996 47.2814 76.6708 48.8647 96.5585L51.5233 129.954Z" fill="#B7F631"/>
<path d="M51.5233 129.954L19.8812 130.12C12.3397 130.16 5.47943 134.497 2.20694 141.293C-1.12083 148.205 -0.142224 156.418 4.71607 162.351L5.66759 163.513C6.6935 170.469 13.0557 176.111 20.8741 175.233L21.8847 175.119C25.9885 176.196 30.3603 176.317 34.6597 175.366L45.1591 173.043C43.0699 194.27 68.7207 206.727 84.1209 191.683L95.1365 180.921C84.9213 201.785 107.365 223.517 127.881 212.626L146.057 202.977L152.772 231.753C154.103 237.454 157.072 242.64 161.314 246.672L165.715 250.855C180.588 264.993 205.061 260.316 211.743 240.902C218.045 222.593 220.809 209.484 222.576 201.1C224.338 192.747 225.11 189.084 227.407 189.643L248.158 193.588C267.752 197.314 285.466 181.225 283.646 161.357L280.589 127.994L312.225 127.443C319.765 127.312 326.573 122.892 329.764 116.056C333.009 109.104 331.933 100.903 327.004 95.029L325.242 92.9283C324.07 90.8214 322.36 89.0253 320.274 87.7641C313.817 82.507 305.204 80.4372 296.909 82.3785L287.63 84.5502C287.212 65.3267 263.518 54.5772 248.746 68.6634L237.603 79.289C248.067 58.5516 225.882 36.55 205.237 47.1902L186.947 56.6166L180.574 27.7626C179.312 22.0464 176.405 16.8251 172.211 12.7421L167.86 8.50539C153.156 -5.81151 128.627 -1.43211 121.714 17.8984C115.194 36.1277 112.274 49.2016 110.406 57.563L110.406 57.5631C108.546 65.894 107.73 69.5468 105.439 68.9596L84.7363 64.7627C65.1871 60.7996 47.2814 76.6708 48.8647 96.5585L51.5233 129.954Z" stroke="#E8BD0F"/>
</g>
<g id="okay-sticker">
<g id="Rectangle 698">
<rect x="15.144" y="140" width="287" height="40.0811" rx="20.0405" transform="rotate(5.93458 15.144 140)" fill="#F2F547"/>
<rect x="15.144" y="140" width="287" height="40.0811" rx="20.0405" transform="rotate(5.93458 15.144 140)" stroke="#D0B6F5"/>
</g>
<path id="NOW IS OUR TIME" d="M65.0927 173.774L62.645 173.519L59.9578 164.942L59.1045 173.151L56.6305 172.894L57.9536 160.166L60.4276 160.423L63.0922 168.962L63.9506 160.789L66.4158 161.045L65.0927 173.774ZM79.2267 169.755C79.1697 170.303 79.066 170.82 78.9154 171.305C78.7654 171.784 78.5754 172.224 78.3453 172.624C78.1035 173.023 77.8187 173.382 77.491 173.702C77.1632 174.021 76.8008 174.278 76.4035 174.472C76.0443 174.641 75.655 174.76 75.2355 174.828C74.8212 174.903 74.381 174.916 73.9148 174.867C73.4194 174.816 72.9686 174.704 72.5623 174.532C72.156 174.36 71.793 174.14 71.4734 173.871C71.1608 173.591 70.8884 173.266 70.656 172.894C70.4243 172.516 70.2408 172.1 70.1056 171.644C69.9842 171.225 69.9043 170.774 69.866 170.293C69.8335 169.813 69.8445 169.31 69.899 168.786L70.0916 166.932C70.1498 166.373 70.2515 165.847 70.3969 165.356C70.5481 164.865 70.739 164.417 70.9697 164.01C71.1922 163.627 71.4486 163.286 71.739 162.986C72.0352 162.687 72.3644 162.438 72.7266 162.24C73.0825 162.048 73.4736 161.911 73.9001 161.832C74.3266 161.753 74.7818 161.738 75.2655 161.788C75.755 161.839 76.2059 161.951 76.618 162.123C77.0365 162.291 77.4056 162.509 77.7252 162.778C78.046 163.035 78.3183 163.334 78.542 163.675C78.7716 164.017 78.9599 164.387 79.107 164.786C79.2662 165.238 79.3715 165.726 79.4231 166.25C79.4806 166.774 79.4793 167.325 79.4193 167.902L79.2267 169.755ZM76.9297 167.626C76.9636 167.299 76.9782 166.989 76.9735 166.693C76.9753 166.393 76.9542 166.114 76.9103 165.856C76.8556 165.532 76.7682 165.241 76.6479 164.981C76.5283 164.715 76.3775 164.493 76.1957 164.315C76.0505 164.182 75.8821 164.073 75.6907 163.989C75.505 163.905 75.2927 163.85 75.0537 163.825C74.8265 163.802 74.6165 163.809 74.424 163.848C74.2373 163.888 74.0653 163.955 73.9081 164.051C73.693 164.193 73.5027 164.38 73.3374 164.61C73.1779 164.841 73.0434 165.116 72.9337 165.434C72.8493 165.679 72.7772 165.948 72.7171 166.242C72.6629 166.537 72.6188 166.848 72.5849 167.174L72.3904 169.045C72.3583 169.354 72.3391 169.652 72.3327 169.94C72.3263 170.228 72.3396 170.497 72.3724 170.748C72.4044 171.064 72.4683 171.356 72.564 171.625C72.6662 171.889 72.7936 172.109 72.9462 172.284C73.0891 172.44 73.2556 172.566 73.4459 172.662C73.642 172.759 73.8682 172.821 74.1247 172.848C74.3695 172.873 74.5975 172.862 74.8087 172.813C75.02 172.764 75.2112 172.681 75.3825 172.563C75.5976 172.421 75.7849 172.234 75.9444 172.003C76.1103 171.767 76.2505 171.496 76.3648 171.19C76.4543 170.952 76.5288 170.688 76.5882 170.4C76.6535 170.112 76.7025 169.811 76.7352 169.496L76.9297 167.626ZM83.6911 175.707L83.2658 162.797L85.5125 163.03L85.6207 170.234L85.6301 170.739L85.7633 170.223L87.5056 163.238L89.2628 163.42L89.5868 170.673L89.611 171.206L89.7276 170.679L91.3346 163.636L93.59 163.87L90.501 176.415L88.2806 176.184L87.8846 169.197L87.8557 168.54L87.6923 169.177L85.9115 175.938L83.6911 175.707ZM110.886 165.668L118.247 166.433L118.04 168.417L115.558 168.159L114.646 176.928L117.129 177.186L116.923 179.161L109.563 178.396L109.768 176.421L112.19 176.672L113.101 167.904L110.68 167.652L110.886 165.668ZM129.055 177.065C129.079 176.837 129.06 176.62 128.999 176.414C128.944 176.208 128.832 176.008 128.664 175.813C128.489 175.624 128.254 175.444 127.96 175.272C127.672 175.095 127.307 174.921 126.865 174.752C126.18 174.486 125.584 174.188 125.076 173.859C124.574 173.53 124.171 173.184 123.867 172.823C123.563 172.461 123.344 172.073 123.211 171.659C123.083 171.245 123.043 170.805 123.092 170.339C123.147 169.803 123.311 169.328 123.584 168.914C123.857 168.501 124.21 168.16 124.645 167.893C125.079 167.626 125.578 167.44 126.143 167.333C126.709 167.221 127.312 167.199 127.953 167.265C128.617 167.334 129.213 167.494 129.741 167.743C130.275 167.993 130.722 168.31 131.083 168.695C131.443 169.086 131.708 169.532 131.88 170.033C132.052 170.534 132.108 171.07 132.049 171.641L129.654 171.392C129.672 171.105 129.646 170.837 129.578 170.589C129.515 170.341 129.406 170.12 129.249 169.927C129.086 169.739 128.875 169.585 128.617 169.464C128.365 169.338 128.061 169.256 127.706 169.219C127.379 169.185 127.084 169.196 126.819 169.25C126.56 169.3 126.336 169.386 126.147 169.508C125.957 169.635 125.805 169.793 125.691 169.982C125.584 170.165 125.518 170.37 125.495 170.597C125.47 170.836 125.506 171.058 125.602 171.262C125.705 171.467 125.862 171.658 126.073 171.833C126.284 172.014 126.543 172.185 126.85 172.346C127.163 172.509 127.518 172.666 127.915 172.819C128.339 172.987 128.74 173.179 129.118 173.395C129.496 173.611 129.84 173.85 130.148 174.112C130.611 174.537 130.965 175.013 131.211 175.539C131.456 176.065 131.546 176.652 131.478 177.299C131.42 177.858 131.255 178.345 130.982 178.758C130.716 179.166 130.369 179.499 129.942 179.755C129.514 180.017 129.018 180.198 128.454 180.298C127.89 180.393 127.285 180.406 126.638 180.339C126.003 180.273 125.383 180.114 124.779 179.863C124.181 179.606 123.671 179.271 123.249 178.856C122.849 178.449 122.547 177.987 122.341 177.471C122.142 176.956 122.076 176.369 122.144 175.71L124.557 175.961C124.529 176.347 124.562 176.683 124.656 176.97C124.749 177.256 124.898 177.498 125.101 177.696C125.299 177.894 125.545 178.049 125.839 178.162C126.14 178.276 126.474 178.351 126.841 178.39C127.167 178.424 127.46 178.416 127.718 178.366C127.982 178.317 128.209 178.234 128.398 178.118C128.586 178.003 128.737 177.856 128.85 177.679C128.963 177.497 129.031 177.292 129.055 177.065ZM157.707 177.913C157.65 178.461 157.546 178.978 157.396 179.463C157.246 179.942 157.056 180.382 156.826 180.782C156.584 181.181 156.299 181.54 155.971 181.86C155.644 182.179 155.281 182.436 154.884 182.63C154.525 182.799 154.135 182.918 153.716 182.986C153.302 183.061 152.861 183.074 152.395 183.025C151.9 182.974 151.449 182.862 151.043 182.69C150.636 182.519 150.273 182.298 149.954 182.029C149.641 181.749 149.369 181.424 149.136 181.052C148.905 180.674 148.721 180.258 148.586 179.802C148.465 179.383 148.385 178.933 148.346 178.451C148.314 177.971 148.325 177.468 148.379 176.944L148.572 175.09C148.63 174.531 148.732 174.005 148.877 173.514C149.028 173.023 149.219 172.575 149.45 172.169C149.673 171.785 149.929 171.444 150.219 171.144C150.516 170.845 150.845 170.596 151.207 170.398C151.563 170.206 151.954 170.069 152.381 169.99C152.807 169.911 153.262 169.896 153.746 169.946C154.235 169.997 154.686 170.109 155.098 170.281C155.517 170.449 155.886 170.667 156.206 170.936C156.526 171.193 156.799 171.492 157.022 171.833C157.252 172.175 157.44 172.546 157.587 172.944C157.747 173.396 157.852 173.884 157.904 174.408C157.961 174.932 157.96 175.483 157.9 176.06L157.707 177.913ZM155.41 175.784C155.444 175.457 155.459 175.147 155.454 174.852C155.456 174.551 155.435 174.272 155.391 174.014C155.336 173.691 155.249 173.399 155.128 173.139C155.009 172.873 154.858 172.651 154.676 172.473C154.531 172.34 154.363 172.231 154.171 172.147C153.985 172.063 153.773 172.008 153.534 171.983C153.307 171.96 153.097 171.967 152.904 172.006C152.718 172.046 152.546 172.113 152.388 172.209C152.173 172.351 151.983 172.538 151.818 172.768C151.658 172.999 151.524 173.274 151.414 173.592C151.33 173.837 151.258 174.106 151.198 174.4C151.143 174.695 151.099 175.006 151.065 175.332L150.871 177.203C150.839 177.512 150.819 177.81 150.813 178.098C150.807 178.386 150.82 178.655 150.853 178.906C150.885 179.222 150.949 179.514 151.044 179.783C151.147 180.047 151.274 180.267 151.427 180.442C151.569 180.598 151.736 180.724 151.926 180.821C152.122 180.917 152.349 180.979 152.605 181.006C152.85 181.031 153.078 181.02 153.289 180.971C153.5 180.922 153.692 180.839 153.863 180.721C154.078 180.579 154.265 180.392 154.425 180.161C154.591 179.925 154.731 179.654 154.845 179.348C154.935 179.11 155.009 178.846 155.069 178.558C155.134 178.27 155.183 177.969 155.216 177.654L155.41 175.784ZM171.144 171.932L170.276 180.369C170.202 181.08 170.037 181.702 169.781 182.235C169.531 182.768 169.203 183.206 168.797 183.546C168.384 183.892 167.899 184.136 167.342 184.279C166.791 184.422 166.175 184.458 165.493 184.387C164.852 184.32 164.282 184.161 163.784 183.909C163.292 183.657 162.882 183.323 162.554 182.906C162.226 182.489 161.989 181.993 161.843 181.418C161.703 180.838 161.67 180.193 161.743 179.482L162.629 171.047L165.086 171.302L164.217 179.739C164.179 180.165 164.181 180.542 164.224 180.871C164.272 181.2 164.364 181.477 164.499 181.703C164.625 181.911 164.788 182.075 164.987 182.196C165.187 182.311 165.424 182.383 165.698 182.411C165.995 182.442 166.263 182.42 166.5 182.344C166.744 182.264 166.953 182.129 167.125 181.941C167.31 181.748 167.46 181.499 167.574 181.192C167.689 180.886 167.77 180.526 167.819 180.113L168.705 171.678L171.144 171.932ZM179.234 180.831L177.372 180.638L176.878 185.394L174.421 185.138L175.744 172.41L180.01 172.853C180.715 172.927 181.345 173.078 181.898 173.306C182.453 173.528 182.917 173.821 183.292 174.184C183.66 174.546 183.928 174.978 184.094 175.478C184.266 175.979 184.319 176.544 184.253 177.174C184.206 177.628 184.108 178.033 183.959 178.389C183.817 178.739 183.631 179.047 183.404 179.312C183.169 179.582 182.898 179.81 182.59 179.996C182.288 180.183 181.954 180.337 181.588 180.458L183.778 185.996L183.766 186.11L181.135 185.836L179.234 180.831ZM177.579 178.645L179.397 178.834C179.776 178.873 180.114 178.855 180.41 178.78C180.713 178.7 180.966 178.567 181.168 178.382C181.336 178.234 181.47 178.051 181.569 177.831C181.675 177.612 181.742 177.363 181.771 177.083C181.806 176.745 181.784 176.443 181.706 176.175C181.634 175.903 181.505 175.671 181.319 175.481C181.154 175.311 180.945 175.171 180.691 175.063C180.437 174.954 180.141 174.882 179.803 174.847L177.993 174.658L177.579 178.645ZM211.05 178.104L207.125 177.695L206.01 188.422L203.545 188.166L204.66 177.439L200.787 177.037L200.995 175.035L211.258 176.102L211.05 178.104ZM215.526 176.545L222.887 177.31L222.681 179.295L220.198 179.037L219.287 187.805L221.769 188.063L221.564 190.039L214.203 189.274L214.409 187.298L216.83 187.55L217.742 178.781L215.32 178.53L215.526 176.545ZM231.08 178.162L231.79 183.069L233.659 178.43L236.71 178.747L235.387 191.476L233.132 191.241L233.523 187.473L234.247 181.531L232.003 186.882L230.788 186.756L229.843 181.312L229.353 187.04L228.962 190.808L226.706 190.573L228.029 177.845L231.08 178.162ZM248.234 187.173L243.006 186.63L242.633 190.223L248.743 190.858L248.537 192.843L239.961 191.951L241.284 179.223L249.834 180.112L249.626 182.113L243.541 181.481L243.208 184.689L248.436 185.233L248.234 187.173Z" fill="black"/>
</g>
<path id="Ellipse 101" d="M122 151C103.775 151 89 136.225 89 118C89 99.7746 103.775 85 122 85V151Z" fill="#FEF5F5"/>
<path id="Ellipse 103" d="M124 151C142.225 151 157 136.225 157 118C157 99.7746 142.225 85 124 85V151Z" fill="#141313"/>
<path id="Ellipse 104" d="M202 140C183.775 140 169 125.225 169 107C169 88.7746 183.775 74 202 74V140Z" fill="#FEF5F5"/>
<path id="Ellipse 105" d="M204 140C222.225 140 237 125.225 237 107C237 88.7746 222.225 74 204 74V140Z" fill="#141313"/>
</g>
</svg>
