<svg width="332" height="259" viewBox="0 0 332 259" fill="none" xmlns="http://www.w3.org/2000/svg">
<g id="green-cloud">
<g id="cloud-bg">
<path d="M51.2703 129.895L19.6283 130.061C12.0868 130.1 5.2265 134.437 1.95401 141.234C-1.37376 148.145 -0.395154 156.358 4.46314 162.291L5.41466 163.453C6.44057 170.409 12.8028 176.051 20.6212 175.173L21.6318 175.06C25.7356 176.136 30.1074 176.258 34.4068 175.306L44.9062 172.983C42.817 194.21 68.4678 206.668 83.868 191.623L94.8835 180.862C84.6684 201.726 107.112 223.457 127.628 212.566L145.804 202.918L152.52 231.693C153.85 237.394 156.819 242.58 161.061 246.612L165.462 250.796C180.335 264.934 204.808 260.256 211.49 240.842C217.792 222.534 220.556 209.424 222.324 201.04C224.085 192.687 224.857 189.024 227.154 189.584L247.905 193.529C267.499 197.254 285.213 181.165 283.393 161.297L280.336 127.935L311.973 127.384C319.513 127.253 326.32 122.832 329.511 115.996C332.756 109.044 331.68 100.843 326.751 94.9695L324.989 92.8687C323.817 90.7618 322.107 88.9657 320.021 87.7045C313.564 82.4474 304.951 80.3776 296.656 82.3189L287.377 84.4906C286.959 65.2672 263.266 54.5177 248.493 68.6038L237.35 79.2295C247.814 58.492 225.629 36.4905 204.984 47.1306L186.694 56.557L180.321 27.703C179.059 21.9869 176.152 16.7656 171.958 12.6825L167.607 8.44582C152.903 -5.87108 128.374 -1.49168 121.461 17.8388C114.941 36.0681 112.021 49.142 110.153 57.5034L110.153 57.5035C108.293 65.8344 107.477 69.4872 105.186 68.9L84.4833 64.7031C64.9342 60.7401 47.0285 76.6113 48.6117 96.4989L51.2703 129.895Z" fill="#B7F631"/>
<path d="M51.2703 129.895L19.6283 130.061C12.0868 130.1 5.2265 134.437 1.95401 141.234C-1.37376 148.145 -0.395154 156.358 4.46314 162.291L5.41466 163.453C6.44057 170.409 12.8028 176.051 20.6212 175.173L21.6318 175.06C25.7356 176.136 30.1074 176.258 34.4068 175.306L44.9062 172.983C42.817 194.21 68.4678 206.668 83.868 191.623L94.8835 180.862C84.6684 201.726 107.112 223.457 127.628 212.566L145.804 202.918L152.52 231.693C153.85 237.394 156.819 242.58 161.061 246.612L165.462 250.796C180.335 264.934 204.808 260.256 211.49 240.842C217.792 222.534 220.556 209.424 222.324 201.04C224.085 192.687 224.857 189.024 227.154 189.584L247.905 193.529C267.499 197.254 285.213 181.165 283.393 161.297L280.336 127.935L311.973 127.384C319.513 127.253 326.32 122.832 329.511 115.996C332.756 109.044 331.68 100.843 326.751 94.9695L324.989 92.8687C323.817 90.7618 322.107 88.9657 320.021 87.7045C313.564 82.4474 304.951 80.3776 296.656 82.3189L287.377 84.4906C286.959 65.2672 263.266 54.5177 248.493 68.6038L237.35 79.2295C247.814 58.492 225.629 36.4905 204.984 47.1306L186.694 56.557L180.321 27.703C179.059 21.9869 176.152 16.7656 171.958 12.6825L167.607 8.44582C152.903 -5.87108 128.374 -1.49168 121.461 17.8388C114.941 36.0681 112.021 49.142 110.153 57.5034L110.153 57.5035C108.293 65.8344 107.477 69.4872 105.186 68.9L84.4833 64.7031C64.9342 60.7401 47.0285 76.6113 48.6117 96.4989L51.2703 129.895Z" stroke="#E8BD0F"/>
</g>
<g id="okay-sticker">
<g id="now-is-our-time-bg">
<rect x="14.8914" y="139.941" width="287" height="40.0811" rx="20.0405" transform="rotate(5.93458 14.8914 139.941)" fill="#F2F547"/>
<rect x="14.8914" y="139.941" width="287" height="40.0811" rx="20.0405" transform="rotate(5.93458 14.8914 139.941)" stroke="#D0B6F5"/>
</g>
<path id="now-is-our-time-text" d="M64.8398 173.714L62.392 173.46L59.7048 164.883L58.8515 173.092L56.3776 172.835L57.7007 160.106L60.1747 160.363L62.8393 168.902L63.6977 160.73L66.1629 160.986L64.8398 173.714ZM78.9737 169.696C78.9168 170.244 78.813 170.76 78.6625 171.245C78.5125 171.725 78.3224 172.164 78.0923 172.565C77.8506 172.964 77.5658 173.323 77.2381 173.642C76.9103 173.962 76.5478 174.218 76.1506 174.413C75.7914 174.582 75.402 174.7 74.9826 174.769C74.5683 174.843 74.1281 174.856 73.6618 174.808C73.1665 174.756 72.7156 174.645 72.3093 174.473C71.9031 174.301 71.5401 174.081 71.2205 173.812C70.9079 173.532 70.6354 173.206 70.4031 172.835C70.1714 172.457 69.9879 172.04 69.8526 171.584C69.7313 171.165 69.6514 170.715 69.6131 170.234C69.5805 169.753 69.5915 169.251 69.6461 168.726L69.8387 166.873C69.8969 166.314 69.9986 165.788 70.144 165.297C70.2951 164.806 70.4861 164.357 70.7168 163.951C70.9393 163.568 71.1957 163.226 71.486 162.927C71.7822 162.627 72.1115 162.379 72.4737 162.181C72.8295 161.988 73.2207 161.852 73.6472 161.773C74.0737 161.693 74.5288 161.679 75.0125 161.729C75.5021 161.78 75.9529 161.892 76.365 162.064C76.7836 162.231 77.1527 162.449 77.4723 162.718C77.7931 162.975 78.0654 163.275 78.2891 163.616C78.5187 163.958 78.707 164.328 78.8541 164.726C79.0132 165.179 79.1186 165.667 79.1702 166.191C79.2276 166.715 79.2264 167.266 79.1664 167.843L78.9737 169.696ZM76.6767 167.566C76.7107 167.24 76.7253 166.929 76.7206 166.634C76.7224 166.334 76.7013 166.055 76.6574 165.797C76.6027 165.473 76.5152 165.181 76.395 164.921C76.2753 164.656 76.1246 164.434 75.9428 164.256C75.7976 164.123 75.6292 164.014 75.4377 163.929C75.2521 163.845 75.0398 163.791 74.8008 163.766C74.5735 163.742 74.3636 163.75 74.171 163.789C73.9843 163.828 73.8124 163.896 73.6551 163.992C73.44 164.134 73.2498 164.321 73.0845 164.551C72.925 164.782 72.7904 165.056 72.6807 165.375C72.5964 165.619 72.5242 165.889 72.4642 166.183C72.41 166.478 72.3659 166.788 72.332 167.115L72.1375 168.985C72.1054 169.294 72.0862 169.593 72.0798 169.881C72.0734 170.169 72.0867 170.438 72.1195 170.689C72.1515 171.004 72.2154 171.297 72.3111 171.566C72.4132 171.83 72.5407 172.049 72.6933 172.224C72.8361 172.381 73.0027 172.507 73.1929 172.603C73.3891 172.7 73.6153 172.762 73.8717 172.789C74.1165 172.814 74.3445 172.802 74.5558 172.754C74.767 172.705 74.9583 172.622 75.1296 172.504C75.3447 172.361 75.532 172.175 75.6915 171.944C75.8574 171.708 75.9975 171.437 76.1118 171.13C76.2014 170.892 76.2759 170.629 76.3353 170.341C76.4006 170.053 76.4496 169.752 76.4823 169.437L76.6767 167.566ZM83.4381 175.648L83.0128 162.737L85.2595 162.971L85.3678 170.175L85.3772 170.68L85.5104 170.163L87.2527 163.178L89.0098 163.361L89.3339 170.614L89.3581 171.147L89.4747 170.62L91.0817 163.576L93.3371 163.811L90.2481 176.355L88.0277 176.125L87.6317 169.138L87.6028 168.481L87.4394 169.118L85.6586 175.878L83.4381 175.648ZM110.633 165.609L117.994 166.374L117.787 168.358L115.305 168.1L114.393 176.868L116.876 177.126L116.671 179.102L109.31 178.337L109.515 176.361L111.937 176.613L112.848 167.845L110.427 167.593L110.633 165.609ZM128.802 177.005C128.826 176.778 128.807 176.561 128.746 176.354C128.691 176.148 128.579 175.948 128.411 175.754C128.236 175.565 128.001 175.384 127.707 175.213C127.419 175.035 127.054 174.862 126.612 174.692C125.927 174.427 125.331 174.129 124.823 173.799C124.321 173.47 123.918 173.125 123.614 172.764C123.31 172.402 123.091 172.014 122.958 171.6C122.83 171.186 122.79 170.746 122.839 170.279C122.894 169.743 123.059 169.268 123.331 168.855C123.604 168.441 123.957 168.101 124.392 167.834C124.826 167.567 125.325 167.38 125.89 167.274C126.456 167.162 127.059 167.139 127.7 167.206C128.364 167.275 128.96 167.434 129.488 167.683C130.022 167.933 130.469 168.251 130.83 168.636C131.19 169.027 131.455 169.473 131.627 169.974C131.799 170.474 131.855 171.01 131.796 171.582L129.401 171.333C129.419 171.046 129.393 170.778 129.325 170.529C129.262 170.281 129.153 170.061 128.996 169.868C128.833 169.68 128.622 169.526 128.364 169.405C128.112 169.278 127.808 169.197 127.453 169.16C127.126 169.126 126.831 169.136 126.566 169.191C126.307 169.241 126.083 169.327 125.894 169.448C125.704 169.576 125.552 169.734 125.438 169.922C125.331 170.105 125.265 170.311 125.242 170.538C125.217 170.777 125.253 170.999 125.349 171.203C125.452 171.408 125.609 171.598 125.82 171.773C126.031 171.954 126.29 172.126 126.597 172.287C126.91 172.449 127.265 172.607 127.662 172.76C128.086 172.928 128.487 173.12 128.865 173.336C129.244 173.552 129.587 173.791 129.895 174.053C130.358 174.478 130.712 174.953 130.958 175.48C131.203 176.006 131.293 176.593 131.225 177.239C131.167 177.799 131.002 178.285 130.729 178.699C130.463 179.107 130.116 179.439 129.689 179.695C129.261 179.957 128.765 180.138 128.201 180.239C127.637 180.333 127.032 180.347 126.385 180.28C125.75 180.214 125.13 180.055 124.526 179.804C123.928 179.547 123.418 179.211 122.996 178.796C122.596 178.39 122.294 177.928 122.088 177.412C121.889 176.896 121.823 176.309 121.891 175.651L124.304 175.901C124.276 176.287 124.309 176.624 124.403 176.91C124.496 177.197 124.645 177.439 124.848 177.637C125.046 177.834 125.292 177.989 125.586 178.102C125.887 178.216 126.221 178.292 126.588 178.33C126.914 178.364 127.207 178.356 127.465 178.307C127.729 178.257 127.956 178.175 128.145 178.059C128.333 177.943 128.484 177.797 128.597 177.62C128.71 177.437 128.778 177.233 128.802 177.005ZM157.454 177.854C157.397 178.402 157.293 178.918 157.143 179.403C156.993 179.883 156.803 180.322 156.573 180.723C156.331 181.122 156.046 181.481 155.718 181.8C155.391 182.12 155.028 182.376 154.631 182.571C154.272 182.74 153.882 182.858 153.463 182.927C153.049 183.001 152.608 183.014 152.142 182.966C151.647 182.915 151.196 182.803 150.79 182.631C150.383 182.459 150.02 182.239 149.701 181.97C149.388 181.69 149.116 181.364 148.883 180.993C148.652 180.615 148.468 180.198 148.333 179.742C148.212 179.323 148.132 178.873 148.093 178.392C148.061 177.911 148.072 177.409 148.126 176.884L148.319 175.031C148.377 174.472 148.479 173.946 148.624 173.455C148.776 172.964 148.966 172.515 149.197 172.109C149.42 171.726 149.676 171.384 149.966 171.085C150.263 170.786 150.592 170.537 150.954 170.339C151.31 170.146 151.701 170.01 152.128 169.931C152.554 169.851 153.009 169.837 153.493 169.887C153.982 169.938 154.433 170.05 154.845 170.222C155.264 170.389 155.633 170.607 155.953 170.876C156.274 171.133 156.546 171.433 156.77 171.774C156.999 172.116 157.187 172.486 157.334 172.884C157.494 173.337 157.599 173.825 157.651 174.349C157.708 174.873 157.707 175.424 157.647 176.001L157.454 177.854ZM155.157 175.724C155.191 175.398 155.206 175.087 155.201 174.792C155.203 174.492 155.182 174.213 155.138 173.955C155.083 173.631 154.996 173.339 154.875 173.079C154.756 172.814 154.605 172.592 154.423 172.414C154.278 172.281 154.11 172.172 153.918 172.087C153.732 172.003 153.52 171.949 153.281 171.924C153.054 171.9 152.844 171.908 152.651 171.947C152.465 171.986 152.293 172.054 152.136 172.15C151.92 172.292 151.73 172.479 151.565 172.709C151.405 172.94 151.271 173.214 151.161 173.533C151.077 173.777 151.005 174.047 150.945 174.341C150.89 174.636 150.846 174.946 150.812 175.273L150.618 177.143C150.586 177.452 150.567 177.751 150.56 178.039C150.554 178.327 150.567 178.596 150.6 178.847C150.632 179.163 150.696 179.455 150.791 179.724C150.894 179.988 151.021 180.207 151.174 180.382C151.317 180.539 151.483 180.665 151.673 180.761C151.869 180.858 152.096 180.92 152.352 180.947C152.597 180.972 152.825 180.96 153.036 180.912C153.247 180.863 153.439 180.78 153.61 180.662C153.825 180.519 154.012 180.333 154.172 180.102C154.338 179.866 154.478 179.595 154.592 179.288C154.682 179.05 154.756 178.787 154.816 178.499C154.881 178.211 154.93 177.91 154.963 177.595L155.157 175.724ZM170.891 171.872L170.023 180.309C169.949 181.02 169.784 181.642 169.528 182.175C169.278 182.709 168.95 183.146 168.544 183.487C168.131 183.833 167.646 184.077 167.089 184.219C166.538 184.362 165.922 184.398 165.24 184.328C164.599 184.261 164.029 184.102 163.531 183.849C163.039 183.598 162.629 183.264 162.301 182.847C161.973 182.43 161.736 181.934 161.59 181.359C161.45 180.779 161.417 180.133 161.491 179.422L162.376 170.987L164.833 171.243L163.965 179.68C163.926 180.106 163.928 180.483 163.971 180.811C164.019 181.14 164.111 181.418 164.246 181.644C164.372 181.851 164.535 182.016 164.734 182.137C164.934 182.252 165.171 182.323 165.445 182.352C165.742 182.383 166.01 182.36 166.247 182.285C166.491 182.204 166.7 182.07 166.873 181.882C167.058 181.689 167.207 181.439 167.321 181.133C167.436 180.827 167.517 180.467 167.566 180.054L168.452 171.619L170.891 171.872ZM178.981 180.772L177.119 180.579L176.625 185.334L174.168 185.079L175.491 172.351L179.757 172.794C180.462 172.867 181.092 173.018 181.645 173.247C182.2 173.469 182.664 173.762 183.039 174.125C183.407 174.487 183.675 174.918 183.841 175.419C184.013 175.92 184.066 176.485 184 177.114C183.953 177.569 183.855 177.974 183.706 178.33C183.564 178.68 183.379 178.988 183.151 179.253C182.916 179.523 182.645 179.751 182.337 179.937C182.035 180.124 181.701 180.277 181.335 180.398L183.525 185.937L183.513 186.05L180.882 185.777L178.981 180.772ZM177.326 178.585L179.144 178.774C179.523 178.814 179.861 178.796 180.157 178.721C180.46 178.64 180.713 178.507 180.915 178.322C181.083 178.175 181.217 177.991 181.316 177.772C181.422 177.553 181.489 177.304 181.518 177.024C181.553 176.686 181.531 176.383 181.453 176.116C181.381 175.844 181.252 175.612 181.066 175.422C180.901 175.252 180.692 175.112 180.438 175.003C180.184 174.894 179.888 174.822 179.55 174.787L177.741 174.599L177.326 178.585ZM210.797 178.044L206.872 177.636L205.757 188.363L203.292 188.106L204.407 177.38L200.534 176.977L200.742 174.975L211.005 176.042L210.797 178.044ZM215.273 176.486L222.634 177.251L222.428 179.236L219.945 178.977L219.034 187.746L221.516 188.004L221.311 189.979L213.95 189.214L214.156 187.239L216.577 187.49L217.489 178.722L215.067 178.47L215.273 176.486ZM230.827 178.103L231.537 183.01L233.406 178.371L236.457 178.688L235.134 191.416L232.879 191.182L233.27 187.414L233.994 181.472L231.75 186.823L230.535 186.697L229.59 181.252L229.1 186.981L228.709 190.748L226.453 190.514L227.777 177.786L230.827 178.103ZM247.981 187.114L242.753 186.571L242.38 190.164L248.49 190.799L248.284 192.783L239.708 191.892L241.031 179.163L249.581 180.052L249.373 182.054L243.289 181.422L242.955 184.63L248.183 185.173L247.981 187.114Z" fill="black"/>
</g>
<g id="left-eye">
<path id="Ellipse 101" d="M121.747 150.941C103.522 150.941 88.7473 136.166 88.7473 117.941C88.7473 99.7153 103.522 84.9407 121.747 84.9407V150.941Z" fill="#FEF5F5"/>
<path id="Ellipse 103" d="M123.747 150.941C141.973 150.941 156.747 136.166 156.747 117.941C156.747 99.7153 141.973 84.9407 123.747 84.9407V150.941Z" fill="#141313"/>
</g>
<g id="right-eye">
<path id="Ellipse 104" d="M201.747 139.941C183.522 139.941 168.747 125.166 168.747 106.941C168.747 88.7153 183.522 73.9407 201.747 73.9407V139.941Z" fill="#FEF5F5"/>
<path id="Ellipse 105" d="M203.747 139.941C221.973 139.941 236.747 125.166 236.747 106.941C236.747 88.7153 221.973 73.9407 203.747 73.9407V139.941Z" fill="#141313"/>
</g>
</g>
</svg>
