<svg width="167" height="131" viewBox="0 0 167 131" fill="none" xmlns="http://www.w3.org/2000/svg">
<g id="heart">
<g id="heart-shape">
<path d="M119.557 0.386686C104.571 0.512556 91.2121 7.02191 82.9321 16.9052C74.4873 7.16238 61.0206 0.878346 46.0346 1.00422C20.6162 1.21771 0.152633 19.5633 0.341288 42.0244C0.413941 50.6745 2.05423 58.6574 4.84877 66.0488C18.2358 102.284 58.74 123.679 78.7439 129.472C81.5663 130.321 86.2029 130.282 89.0106 129.386C108.914 123.258 149.053 101.185 161.83 64.7303C164.5 57.293 166.006 49.2836 165.933 40.6336C165.745 18.1724 144.976 0.173193 119.557 0.386686Z" fill="#E86322"/>
<path d="M119.557 0.386686C104.571 0.512556 91.2121 7.02191 82.9321 16.9052C74.4873 7.16238 61.0206 0.878346 46.0346 1.00422C20.6162 1.21771 0.152633 19.5633 0.341288 42.0244C0.413941 50.6745 2.05423 58.6574 4.84877 66.0488C18.2358 102.284 58.74 123.679 78.7439 129.472C81.5663 130.321 86.2029 130.282 89.0106 129.386C108.914 123.258 149.053 101.185 161.83 64.7303C164.5 57.293 166.006 49.2836 165.933 40.6336C165.745 18.1724 144.976 0.173193 119.557 0.386686Z" stroke="#D0B6F5"/>
</g>
<path id="heart-left-eye" d="M71.2757 50.5543C71.3511 59.5361 63.7174 66.9276 54.1669 67.0078C44.6165 67.0881 36.8597 59.8258 36.7842 50.844C36.7088 41.8622 44.3425 34.4707 53.893 34.3905C63.4434 34.3103 71.2003 41.5725 71.2757 50.5543Z" fill="#FBF7F7" stroke="#D0B6F5"/>
<path id="heart-left-eye_2" d="M66.2068 50.6931C66.2604 57.0756 60.8336 62.3413 54.0273 62.3984C47.221 62.4556 41.7065 57.2818 41.6529 50.8993C41.5993 44.5168 47.0261 39.2511 53.8324 39.1939C60.6387 39.1368 66.1532 44.3105 66.2068 50.6931Z" fill="black" stroke="#D0B6F5"/>
<path id="heart-right-eye" d="M126.642 50.0895C126.718 59.0713 119.084 66.4628 109.534 66.543C99.9832 66.6232 92.2264 59.361 92.1509 50.3792C92.0755 41.3973 99.7092 34.0059 109.26 33.9256C118.81 33.8454 126.567 41.1076 126.642 50.0895Z" fill="#FBF7F7" stroke="#D0B6F5"/>
<path id="heart-left-eye_3" d="M121.573 50.2277C121.627 56.6103 116.2 61.8759 109.393 61.9331C102.587 61.9903 97.0727 56.8165 97.0191 50.434C96.9655 44.0514 102.392 38.7858 109.199 38.7286C116.005 38.6714 121.519 43.8452 121.573 50.2277Z" fill="black" stroke="#D0B6F5"/>
</g>
</svg>
