<svg width="292" height="339" viewBox="0 0 292 339" fill="none" xmlns="http://www.w3.org/2000/svg">
<path d="M29.9463 66.168C16.0747 77.7289 5.51553 91.2237 0.848633 98.3884C0.848633 98.3884 65.9039 60.9026 103.215 96.3685C8.18874 69.6954 23.3966 184.387 23.3966 184.387C31.1215 173.65 53.0036 142.629 74.5344 130.292C89.2682 121.847 111.506 123.144 110.84 123.44C86.3546 156.413 150.608 333.593 168.087 337.846C182.505 340.225 187.516 331.21 191.341 320.792C171.029 288.771 94.4391 137.949 137.88 119.322L137.896 119.309C141.673 117.886 145.916 117.351 148.296 119.922C152.836 124.831 156.462 135.971 162.067 141.164C175.084 153.202 181.631 155.729 189.394 157.264C194.323 144.474 187.706 118.509 181.527 107.325C192.773 104.12 212.955 101.52 249.492 123.662C231.066 89.8412 203.899 73.6091 168.678 85.5479C176.133 70.9376 247.613 54.5682 265.473 63.6213C250.385 33.1592 182.166 37.0196 148.229 67.872C153.538 60.5117 162.685 56.4179 165.456 45.3575C169.175 30.5026 175.276 15.3241 180.248 0.316895C133.041 13.918 107.165 47.8659 117.825 65.3606C87.3675 32.128 53.7673 46.3021 29.9622 66.1549L29.9463 66.168Z" fill="#E86322"/>
<g id ="stick" >
<path d="M291.655 241.55C293.405 277.2 239.871 308.798 172.082 312.127C104.294 315.456 47.9208 289.255 46.1701 253.605C44.4194 217.955 97.9538 186.357 165.743 183.028C233.531 179.699 289.904 205.9 291.655 241.55Z" fill="#ECF776"/>
<path d="M140.526 220.872C140.442 221.273 140.376 221.763 140.329 222.342C140.291 222.911 140.26 223.536 140.237 224.218C140.213 224.89 140.2 225.59 140.198 226.318C140.205 227.045 140.212 227.758 140.218 228.457C140.242 230.101 140.295 231.842 140.375 233.681C140.423 234.643 140.408 235.589 140.33 236.519C140.262 237.439 140.116 238.311 139.892 239.135C139.677 239.958 139.379 240.724 138.998 241.433C138.617 242.141 138.142 242.756 137.572 243.275C137.011 243.794 136.351 244.209 135.591 244.521C134.832 244.841 133.962 245.026 132.981 245.074C132.067 245.119 131.27 245.064 130.592 244.908C129.913 244.752 129.343 244.511 128.883 244.184C128.433 243.866 128.087 243.471 127.847 243.001C127.616 242.54 127.487 242.017 127.458 241.432C127.43 240.857 127.503 240.334 127.678 239.862C127.854 239.39 128.094 238.982 128.398 238.636C128.703 238.3 129.049 238.037 129.437 237.848C129.834 237.658 130.24 237.553 130.655 237.533C131.192 237.506 131.704 237.632 132.19 237.911C132.676 238.19 133.058 238.648 133.335 239.287C133.218 239.217 133.08 239.186 132.92 239.194C132.703 239.204 132.504 239.299 132.324 239.478C132.144 239.666 132.06 239.883 132.072 240.128C132.079 240.27 132.109 240.386 132.16 240.478C132.222 240.579 132.297 240.656 132.384 240.708C132.472 240.761 132.563 240.794 132.659 240.808C132.764 240.832 132.859 240.841 132.944 240.837C133.047 240.832 133.188 240.806 133.365 240.76C133.552 240.722 133.751 240.622 133.96 240.461C134.169 240.299 134.375 240.058 134.577 239.736C134.778 239.414 134.955 238.975 135.107 238.42C135.26 237.864 135.367 237.164 135.43 236.32C135.501 235.475 135.508 234.454 135.449 233.257C135.302 234.105 135.099 234.777 134.839 235.271C134.58 235.766 134.296 236.144 133.988 236.405C133.679 236.656 133.356 236.819 133.019 236.892C132.692 236.965 132.382 237.008 132.09 237.023C131.864 237.034 131.574 237.01 131.222 236.952C130.869 236.884 130.489 236.761 130.083 236.582C129.687 236.394 129.277 236.135 128.854 235.806C128.441 235.468 128.061 235.037 127.714 234.516C127.366 233.984 127.07 233.347 126.826 232.603C126.59 231.849 126.447 230.958 126.397 229.93C126.319 228.346 126.414 226.999 126.68 225.89C126.957 224.78 127.333 223.878 127.809 223.183C128.294 222.479 128.841 221.965 129.449 221.643C130.056 221.31 130.657 221.129 131.251 221.1C131.676 221.079 132.066 221.131 132.421 221.256C132.777 221.37 133.101 221.534 133.395 221.746C133.689 221.959 133.952 222.201 134.182 222.473C134.413 222.736 134.62 223.005 134.803 223.279C134.726 222.867 134.635 222.456 134.53 222.045C134.434 221.634 134.324 221.219 134.2 220.8C134.44 220.892 134.737 220.972 135.09 221.039C135.396 221.1 135.776 221.147 136.231 221.182C136.686 221.207 137.234 221.203 137.876 221.172C138.63 221.135 139.513 221.035 140.526 220.872ZM134.85 228.267C134.837 228.003 134.802 227.688 134.747 227.323C134.69 226.947 134.602 226.592 134.482 226.258C134.361 225.914 134.2 225.625 134 225.389C133.808 225.152 133.567 225.041 133.274 225.056C133.057 225.066 132.866 225.203 132.699 225.467C132.532 225.721 132.391 226.03 132.277 226.395C132.171 226.75 132.09 227.118 132.033 227.498C131.986 227.879 131.969 228.201 131.982 228.465C132.004 228.918 132.05 229.378 132.12 229.848C132.191 230.317 132.287 230.742 132.41 231.123C132.541 231.495 132.693 231.799 132.866 232.037C133.048 232.274 133.252 232.386 133.478 232.375C133.723 232.363 133.937 232.296 134.12 232.174C134.312 232.041 134.469 231.873 134.591 231.668C134.723 231.454 134.815 231.213 134.868 230.946C134.93 230.678 134.954 230.394 134.939 230.092L134.85 228.267Z" fill="black"/>
<path d="M157.244 223.156C157.278 223.863 157.209 224.556 157.034 225.236C156.869 225.915 156.544 226.526 156.061 227.07C155.577 227.613 154.909 228.062 154.057 228.416C153.214 228.769 152.128 228.978 150.799 229.044C150.859 229.504 150.972 229.886 151.139 230.19C151.314 230.493 151.515 230.733 151.741 230.911C151.967 231.089 152.205 231.219 152.455 231.302C152.705 231.384 152.934 231.439 153.144 231.466C153.353 231.494 153.528 231.504 153.67 231.497C153.811 231.49 153.882 231.487 153.882 231.487C154.463 231.392 154.979 231.215 155.429 230.957C155.623 230.853 155.81 230.726 155.992 230.575C156.173 230.415 156.334 230.232 156.475 230.027C156.625 229.811 156.741 229.574 156.823 229.315C156.914 229.046 156.96 228.741 156.963 228.401C157.238 229.002 157.436 229.568 157.556 230.101C157.686 230.624 157.762 231.117 157.785 231.579C157.827 232.427 157.71 233.217 157.434 233.949C157.167 234.671 156.777 235.305 156.265 235.85C155.753 236.395 155.132 236.827 154.401 237.146C153.68 237.475 152.885 237.66 152.018 237.703C151.169 237.744 150.342 237.639 149.535 237.385C148.739 237.131 148.018 236.704 147.374 236.102C146.739 235.49 146.213 234.685 145.795 233.684C145.387 232.684 145.147 231.457 145.076 230.005C144.998 228.431 145.156 227.024 145.549 225.786C145.942 224.547 146.5 223.499 147.224 222.641C147.947 221.774 148.797 221.103 149.776 220.63C150.764 220.147 151.809 219.878 152.912 219.824C153.459 219.797 153.985 219.833 154.491 219.931C155.006 220.028 155.459 220.209 155.85 220.474C156.251 220.737 156.575 221.09 156.824 221.532C157.072 221.964 157.212 222.505 157.244 223.156ZM150.628 226.713C150.891 226.69 151.195 226.624 151.539 226.512C151.883 226.391 152.206 226.234 152.508 226.039C152.811 225.845 153.059 225.61 153.254 225.336C153.458 225.062 153.551 224.755 153.534 224.415C153.524 224.198 153.44 224.028 153.282 223.903C153.125 223.778 152.929 223.722 152.693 223.733C152.363 223.75 152.07 223.859 151.816 224.06C151.57 224.261 151.36 224.508 151.186 224.8C151.021 225.092 150.89 225.41 150.793 225.755C150.697 226.1 150.641 226.419 150.628 226.713Z" fill="black"/>
<path d="M172.749 218.368C172.695 218.796 172.659 219.213 172.641 219.621C172.632 220.027 172.639 220.443 172.659 220.867C172.679 221.273 172.714 221.682 172.762 222.096C172.82 222.499 172.897 222.907 172.992 223.318C172.528 223.104 172.006 222.955 171.425 222.87C170.854 222.785 170.27 222.724 169.672 222.687L169.732 223.903C169.784 224.969 169.856 226.047 169.948 227.139C170.039 228.222 170.152 229.275 170.287 230.298C170.422 231.312 170.578 232.274 170.755 233.182C170.941 234.089 171.151 234.892 171.383 235.589C171.223 235.588 171.033 235.583 170.816 235.575C170.627 235.574 170.404 235.576 170.149 235.579C169.894 235.582 169.602 235.592 169.272 235.608C168.659 235.638 167.953 235.701 167.155 235.797C166.355 235.883 165.493 236.02 164.566 236.208C164.796 234.353 164.929 232.433 164.964 230.446C165.007 228.45 164.983 226.504 164.89 224.609L164.807 222.926C164.168 223.005 163.535 223.111 162.909 223.246C162.291 223.371 161.708 223.518 161.158 223.686C161.191 223.581 161.217 223.442 161.237 223.271C161.257 223.1 161.267 222.925 161.268 222.745C161.278 222.565 161.279 222.39 161.271 222.221C161.272 222.05 161.27 221.909 161.264 221.796C161.24 221.315 161.198 220.839 161.137 220.37C161.076 219.9 161.006 219.426 160.926 218.948C161.387 219.115 161.933 219.244 162.561 219.336C163.189 219.419 163.825 219.472 164.469 219.497C164.372 218.68 164.268 217.924 164.159 217.23C164.049 216.536 163.928 215.909 163.797 215.348C164.567 215.443 165.279 215.497 165.932 215.513C166.585 215.528 167.175 215.522 167.703 215.497C168.042 215.48 168.344 215.46 168.607 215.438C168.88 215.406 169.11 215.375 169.298 215.347C169.523 215.317 169.72 215.284 169.888 215.247C169.807 215.705 169.745 216.275 169.703 216.958C169.67 217.631 169.641 218.383 169.615 219.216C170.234 219.12 170.815 219.001 171.356 218.861C171.907 218.721 172.371 218.556 172.749 218.368Z" fill="black"/>
<path d="M191.729 234.59C191.568 234.589 191.379 234.584 191.161 234.575C190.972 234.575 190.75 234.577 190.495 234.58C190.24 234.583 189.948 234.593 189.618 234.609C189.005 234.639 188.299 234.702 187.5 234.798C186.701 234.884 185.838 235.021 184.912 235.208C185.073 234.841 185.202 234.386 185.298 233.843C185.394 233.29 185.465 232.705 185.51 232.088C185.564 231.462 185.595 230.832 185.602 230.198C185.618 229.564 185.622 228.983 185.615 228.454C185.608 227.925 185.595 227.477 185.577 227.109C185.569 226.741 185.562 226.509 185.558 226.415C185.478 225.19 185.38 224.047 185.261 222.985C185.211 222.533 185.151 222.078 185.081 221.618C185.021 221.158 184.952 220.727 184.876 220.324C184.799 219.912 184.715 219.548 184.623 219.231C184.541 218.904 184.448 218.649 184.345 218.465C185.115 218.559 185.827 218.614 186.479 218.629C187.132 218.644 187.723 218.639 188.251 218.613C188.59 218.596 188.892 218.577 189.155 218.554C189.428 218.522 189.658 218.492 189.846 218.464C190.071 218.434 190.268 218.401 190.436 218.364C190.308 219.221 190.217 220.251 190.162 221.454C190.118 222.656 190.129 223.941 190.196 225.308C190.234 226.091 190.292 226.882 190.369 227.682C190.446 228.481 190.547 229.28 190.671 230.077C190.795 230.865 190.942 231.642 191.112 232.409C191.291 233.166 191.496 233.893 191.729 234.59ZM184.244 214.684C184.223 214.251 184.283 213.841 184.425 213.456C184.576 213.061 184.786 212.715 185.054 212.419C185.332 212.112 185.661 211.869 186.039 211.69C186.418 211.501 186.824 211.396 187.257 211.375C187.691 211.353 188.101 211.418 188.486 211.57C188.881 211.711 189.226 211.921 189.524 212.199C189.83 212.468 190.073 212.791 190.252 213.17C190.44 213.539 190.545 213.94 190.566 214.374C190.587 214.808 190.523 215.222 190.372 215.617C190.231 216.011 190.021 216.362 189.743 216.668C189.474 216.965 189.151 217.208 188.772 217.397C188.403 217.575 188.002 217.675 187.568 217.697C187.134 217.718 186.72 217.658 186.326 217.517C185.931 217.366 185.58 217.156 185.274 216.888C184.977 216.609 184.734 216.281 184.545 215.903C184.366 215.524 184.266 215.118 184.244 214.684Z" fill="black"/>
<path d="M206.464 216.712C206.41 217.14 206.373 217.558 206.356 217.965C206.347 218.372 206.353 218.787 206.374 219.212C206.394 219.617 206.429 220.027 206.477 220.44C206.535 220.844 206.612 221.251 206.707 221.662C206.243 221.449 205.721 221.299 205.14 221.215C204.569 221.129 203.984 221.068 203.387 221.031L203.447 222.248C203.499 223.313 203.571 224.392 203.663 225.484C203.754 226.566 203.867 227.619 204.002 228.643C204.137 229.657 204.293 230.618 204.47 231.526C204.656 232.434 204.866 233.236 205.098 233.934C204.938 233.932 204.748 233.927 204.53 233.919C204.341 233.919 204.119 233.92 203.864 233.923C203.609 233.926 203.317 233.936 202.987 233.952C202.374 233.982 201.668 234.045 200.87 234.141C200.07 234.228 199.208 234.365 198.281 234.552C198.511 232.698 198.644 230.777 198.679 228.791C198.722 226.794 198.698 224.848 198.605 222.953L198.522 221.27C197.883 221.349 197.25 221.456 196.624 221.59C196.006 221.715 195.423 221.862 194.873 222.031C194.906 221.925 194.932 221.787 194.952 221.616C194.972 221.445 194.982 221.269 194.983 221.09C194.993 220.909 194.994 220.735 194.986 220.565C194.987 220.395 194.984 220.253 194.979 220.14C194.955 219.659 194.913 219.184 194.852 218.714C194.791 218.245 194.721 217.771 194.641 217.293C195.102 217.459 195.648 217.588 196.276 217.68C196.904 217.763 197.54 217.817 198.183 217.842C198.087 217.024 197.983 216.268 197.874 215.574C197.764 214.88 197.643 214.253 197.512 213.692C198.282 213.787 198.994 213.842 199.647 213.857C200.299 213.872 200.89 213.867 201.418 213.841C201.757 213.824 202.059 213.805 202.322 213.782C202.595 213.75 202.825 213.72 203.013 213.692C203.238 213.662 203.435 213.628 203.603 213.592C203.522 214.049 203.46 214.62 203.418 215.302C203.385 215.975 203.355 216.728 203.33 217.561C203.949 217.464 204.529 217.346 205.071 217.206C205.621 217.065 206.086 216.901 206.464 216.712Z" fill="black"/>
<path d="M114.771 259.261C114.716 259.689 114.68 260.106 114.662 260.514C114.654 260.921 114.66 261.336 114.681 261.76C114.701 262.166 114.735 262.575 114.784 262.989C114.841 263.392 114.918 263.8 115.014 264.211C114.55 263.997 114.027 263.848 113.447 263.763C112.875 263.678 112.291 263.617 111.694 263.58L111.754 264.796C111.806 265.862 111.878 266.94 111.969 268.032C112.06 269.115 112.173 270.168 112.309 271.191C112.443 272.205 112.599 273.167 112.776 274.075C112.963 274.982 113.172 275.785 113.405 276.482C113.244 276.481 113.055 276.476 112.837 276.468C112.648 276.467 112.426 276.469 112.171 276.472C111.916 276.475 111.623 276.485 111.293 276.501C110.681 276.531 109.975 276.594 109.176 276.69C108.377 276.776 107.514 276.913 106.588 277.101C106.818 275.246 106.95 273.326 106.985 271.339C107.029 269.343 107.004 267.397 106.911 265.502L106.829 263.819C106.19 263.898 105.557 264.004 104.93 264.139C104.313 264.264 103.729 264.411 103.18 264.579C103.212 264.474 103.239 264.335 103.259 264.164C103.279 263.993 103.289 263.818 103.29 263.638C103.3 263.458 103.301 263.283 103.292 263.114C103.293 262.943 103.291 262.802 103.285 262.689C103.262 262.208 103.22 261.732 103.159 261.263C103.098 260.793 103.027 260.319 102.947 259.841C103.409 260.008 103.954 260.137 104.582 260.229C105.21 260.312 105.846 260.365 106.49 260.39C106.393 259.573 106.29 258.817 106.18 258.123C106.071 257.429 105.95 256.802 105.818 256.241C106.589 256.336 107.3 256.391 107.953 256.406C108.606 256.421 109.197 256.416 109.725 256.39C110.064 256.373 110.365 256.353 110.629 256.331C110.901 256.299 111.132 256.269 111.319 256.24C111.545 256.21 111.741 256.177 111.91 256.141C111.828 256.598 111.766 257.168 111.724 257.851C111.691 258.524 111.662 259.276 111.637 260.109C112.256 260.013 112.836 259.895 113.377 259.755C113.928 259.614 114.393 259.449 114.771 259.261Z" fill="black"/>
<path d="M132.41 267.326C132.437 267.873 132.424 268.479 132.372 269.143C132.319 269.797 132.21 270.464 132.045 271.144C131.879 271.813 131.642 272.472 131.334 273.121C131.025 273.76 130.628 274.332 130.142 274.838C129.666 275.343 129.086 275.759 128.403 276.086C127.72 276.413 126.916 276.599 125.992 276.644C125.068 276.689 124.25 276.592 123.539 276.353C122.838 276.114 122.226 275.78 121.704 275.352C121.191 274.914 120.759 274.406 120.41 273.827C120.059 273.24 119.774 272.62 119.553 271.97C119.332 271.319 119.167 270.661 119.059 269.995C118.96 269.319 118.895 268.68 118.865 268.076C118.813 267.011 118.903 265.962 119.136 264.93C119.369 263.888 119.753 262.953 120.289 262.123C120.834 261.293 121.528 260.611 122.371 260.078C123.224 259.545 124.24 259.249 125.419 259.192C126.211 259.153 126.928 259.24 127.572 259.454C128.215 259.659 128.792 259.957 129.303 260.348C129.814 260.738 130.253 261.204 130.619 261.743C130.995 262.282 131.312 262.858 131.569 263.469C131.826 264.08 132.022 264.718 132.159 265.382C132.296 266.046 132.379 266.694 132.41 267.326ZM127.512 268.035C127.501 267.818 127.478 267.549 127.444 267.23C127.418 266.9 127.373 266.558 127.308 266.202C127.243 265.846 127.16 265.491 127.057 265.136C126.964 264.782 126.845 264.466 126.699 264.19C126.553 263.914 126.377 263.691 126.17 263.521C125.972 263.351 125.742 263.273 125.478 263.286C125.223 263.298 125.006 263.394 124.826 263.573C124.645 263.752 124.491 263.982 124.363 264.262C124.245 264.542 124.147 264.859 124.07 265.212C124.001 265.556 123.948 265.903 123.908 266.255C123.878 266.597 123.856 266.929 123.844 267.251C123.84 267.563 123.844 267.827 123.854 268.044C123.87 268.355 123.912 268.731 123.981 269.172C124.049 269.613 124.16 270.033 124.312 270.432C124.464 270.831 124.66 271.171 124.901 271.452C125.15 271.723 125.464 271.85 125.841 271.831C126.199 271.813 126.49 271.667 126.712 271.391C126.944 271.115 127.122 270.785 127.245 270.401C127.367 270.008 127.446 269.597 127.482 269.17C127.518 268.743 127.528 268.365 127.512 268.035Z" fill="black"/>
<path d="M150.846 258.411C150.762 258.812 150.696 259.302 150.649 259.881C150.611 260.45 150.58 261.075 150.557 261.757C150.533 262.429 150.52 263.129 150.518 263.857C150.526 264.584 150.532 265.297 150.538 265.996C150.562 267.64 150.615 269.381 150.696 271.22C150.743 272.182 150.728 273.128 150.651 274.058C150.583 274.978 150.436 275.85 150.212 276.674C149.997 277.497 149.699 278.263 149.318 278.972C148.937 279.68 148.462 280.295 147.892 280.814C147.331 281.333 146.671 281.748 145.912 282.06C145.152 282.38 144.282 282.565 143.302 282.613C142.387 282.658 141.591 282.603 140.912 282.447C140.233 282.291 139.664 282.05 139.203 281.723C138.753 281.405 138.408 281.01 138.167 280.54C137.936 280.079 137.807 279.556 137.778 278.971C137.75 278.396 137.823 277.873 137.999 277.401C138.174 276.929 138.414 276.521 138.718 276.175C139.023 275.839 139.369 275.576 139.757 275.387C140.154 275.197 140.56 275.092 140.975 275.072C141.512 275.045 142.024 275.171 142.511 275.45C142.997 275.728 143.378 276.187 143.656 276.826C143.539 276.756 143.4 276.725 143.24 276.733C143.023 276.743 142.824 276.838 142.644 277.017C142.464 277.205 142.381 277.422 142.393 277.667C142.4 277.809 142.429 277.925 142.481 278.017C142.542 278.118 142.617 278.195 142.705 278.247C142.792 278.3 142.884 278.333 142.979 278.347C143.084 278.371 143.179 278.38 143.264 278.376C143.368 278.371 143.508 278.345 143.685 278.299C143.873 278.261 144.071 278.161 144.28 278C144.49 277.838 144.695 277.597 144.897 277.275C145.098 276.953 145.275 276.514 145.428 275.959C145.58 275.403 145.687 274.703 145.75 273.859C145.822 273.014 145.828 271.993 145.77 270.796C145.622 271.644 145.419 272.316 145.16 272.81C144.9 273.305 144.617 273.683 144.308 273.944C143.999 274.195 143.676 274.358 143.339 274.431C143.012 274.504 142.702 274.547 142.41 274.562C142.184 274.573 141.894 274.549 141.542 274.491C141.189 274.423 140.81 274.3 140.404 274.121C140.007 273.933 139.597 273.674 139.175 273.345C138.761 273.007 138.381 272.576 138.034 272.055C137.686 271.523 137.391 270.886 137.146 270.142C136.911 269.388 136.768 268.497 136.717 267.469C136.639 265.885 136.734 264.538 137.001 263.429C137.277 262.319 137.653 261.417 138.13 260.722C138.615 260.018 139.161 259.504 139.769 259.181C140.377 258.849 140.978 258.668 141.572 258.639C141.996 258.618 142.386 258.67 142.742 258.794C143.097 258.909 143.422 259.073 143.716 259.285C144.01 259.498 144.272 259.74 144.503 260.012C144.733 260.275 144.94 260.544 145.124 260.818C145.047 260.406 144.956 259.995 144.85 259.584C144.755 259.173 144.644 258.758 144.52 258.339C144.761 258.431 145.058 258.511 145.411 258.578C145.716 258.639 146.096 258.686 146.552 258.721C147.007 258.746 147.555 258.742 148.196 258.711C148.95 258.674 149.834 258.574 150.846 258.411ZM145.17 265.806C145.157 265.542 145.123 265.227 145.067 264.862C145.011 264.486 144.922 264.131 144.802 263.797C144.681 263.453 144.52 263.164 144.32 262.928C144.129 262.691 143.887 262.58 143.595 262.595C143.378 262.605 143.186 262.742 143.019 263.006C142.852 263.26 142.712 263.569 142.597 263.934C142.492 264.289 142.411 264.656 142.354 265.037C142.306 265.418 142.289 265.74 142.302 266.004C142.324 266.457 142.37 266.917 142.441 267.387C142.511 267.856 142.607 268.281 142.73 268.662C142.862 269.034 143.014 269.338 143.186 269.576C143.368 269.813 143.572 269.925 143.798 269.914C144.043 269.902 144.257 269.835 144.44 269.713C144.632 269.58 144.79 269.412 144.912 269.207C145.043 268.993 145.135 268.752 145.188 268.485C145.251 268.217 145.275 267.933 145.26 267.631L145.17 265.806Z" fill="black"/>
<path d="M167.564 260.694C167.599 261.402 167.529 262.095 167.354 262.775C167.189 263.454 166.865 264.065 166.381 264.609C165.897 265.152 165.229 265.601 164.377 265.955C163.535 266.308 162.449 266.517 161.119 266.583C161.179 267.043 161.293 267.425 161.459 267.728C161.634 268.032 161.835 268.272 162.061 268.45C162.288 268.628 162.525 268.758 162.775 268.841C163.025 268.923 163.255 268.978 163.464 269.005C163.673 269.033 163.848 269.043 163.99 269.036C164.131 269.029 164.202 269.026 164.202 269.026C164.783 268.931 165.299 268.754 165.75 268.496C165.943 268.392 166.131 268.265 166.312 268.114C166.493 267.954 166.655 267.771 166.796 267.566C166.946 267.35 167.062 267.113 167.144 266.854C167.234 266.585 167.281 266.28 167.283 265.94C167.558 266.541 167.756 267.107 167.877 267.64C168.006 268.163 168.083 268.656 168.105 269.118C168.147 269.966 168.03 270.756 167.754 271.488C167.487 272.21 167.097 272.844 166.585 273.389C166.073 273.934 165.452 274.366 164.721 274.685C164 275.014 163.206 275.199 162.338 275.242C161.49 275.283 160.662 275.178 159.856 274.924C159.059 274.67 158.338 274.243 157.695 273.641C157.06 273.029 156.533 272.224 156.116 271.223C155.707 270.223 155.467 268.996 155.396 267.544C155.319 265.97 155.477 264.563 155.869 263.324C156.262 262.086 156.82 261.038 157.544 260.18C158.267 259.313 159.118 258.642 160.096 258.169C161.084 257.686 162.129 257.417 163.232 257.363C163.779 257.336 164.306 257.372 164.811 257.47C165.326 257.567 165.78 257.748 166.171 258.013C166.571 258.276 166.896 258.629 167.144 259.071C167.392 259.503 167.532 260.044 167.564 260.694ZM160.948 264.252C161.211 264.229 161.515 264.163 161.86 264.051C162.203 263.93 162.526 263.773 162.829 263.578C163.131 263.384 163.379 263.149 163.574 262.875C163.778 262.601 163.871 262.294 163.855 261.954C163.844 261.737 163.76 261.567 163.603 261.442C163.445 261.317 163.249 261.261 163.013 261.272C162.683 261.289 162.391 261.397 162.136 261.599C161.891 261.8 161.681 262.047 161.506 262.339C161.341 262.63 161.21 262.949 161.113 263.294C161.017 263.639 160.962 263.958 160.948 264.252Z" fill="black"/>
<path d="M183.07 255.907C183.015 256.335 182.979 256.752 182.961 257.16C182.953 257.566 182.959 257.982 182.98 258.406C183 258.812 183.034 259.221 183.083 259.635C183.14 260.038 183.217 260.446 183.313 260.857C182.849 260.643 182.326 260.494 181.745 260.409C181.174 260.324 180.59 260.263 179.993 260.226L180.052 261.442C180.105 262.508 180.177 263.586 180.268 264.678C180.359 265.761 180.472 266.814 180.607 267.837C180.742 268.851 180.898 269.813 181.075 270.721C181.261 271.628 181.471 272.431 181.704 273.128C181.543 273.127 181.354 273.122 181.136 273.114C180.947 273.113 180.725 273.115 180.47 273.118C180.215 273.121 179.922 273.131 179.592 273.147C178.979 273.177 178.274 273.24 177.475 273.336C176.676 273.422 175.813 273.559 174.886 273.747C175.117 271.892 175.249 269.972 175.284 267.985C175.328 265.989 175.303 264.043 175.21 262.148L175.127 260.465C174.489 260.543 173.856 260.65 173.229 260.785C172.612 260.91 172.028 261.057 171.479 261.225C171.511 261.12 171.538 260.981 171.558 260.81C171.577 260.639 171.588 260.464 171.588 260.284C171.598 260.104 171.599 259.929 171.591 259.76C171.592 259.589 171.59 259.448 171.584 259.335C171.561 258.854 171.518 258.378 171.458 257.909C171.397 257.439 171.326 256.965 171.246 256.487C171.708 256.654 172.253 256.783 172.881 256.875C173.509 256.957 174.145 257.011 174.789 257.036C174.692 256.219 174.589 255.463 174.479 254.769C174.369 254.075 174.249 253.448 174.117 252.887C174.888 252.982 175.599 253.036 176.252 253.052C176.905 253.067 177.495 253.061 178.023 253.036C178.363 253.019 178.664 252.999 178.928 252.977C179.2 252.945 179.43 252.914 179.618 252.886C179.843 252.856 180.04 252.823 180.209 252.786C180.127 253.244 180.065 253.814 180.023 254.497C179.99 255.17 179.961 255.922 179.936 256.755C180.555 256.659 181.135 256.54 181.676 256.4C182.227 256.26 182.691 256.095 183.07 255.907Z" fill="black"/>
<path d="M202.303 272.755C201.79 272.704 201.222 272.675 200.598 272.668C199.973 272.661 199.35 272.673 198.728 272.703C198.134 272.733 197.56 272.78 197.005 272.845C196.46 272.909 195.986 272.98 195.584 273.056C195.748 272.368 195.869 271.658 195.947 270.926C196.034 270.194 196.086 269.435 196.104 268.65C196.132 267.855 196.133 267.028 196.11 266.169C196.087 265.31 196.052 264.404 196.005 263.452C195.998 263.31 195.979 263.122 195.949 262.887C195.928 262.652 195.892 262.399 195.841 262.127C195.79 261.856 195.72 261.585 195.631 261.315C195.551 261.036 195.449 260.785 195.325 260.565C195.2 260.344 195.05 260.167 194.873 260.034C194.706 259.9 194.514 259.839 194.297 259.85C194.156 259.856 194.018 259.939 193.884 260.097C193.759 260.245 193.632 260.445 193.502 260.697C193.372 260.939 193.249 261.224 193.133 261.551C193.016 261.869 192.905 262.205 192.8 262.56C192.866 263.521 192.946 264.472 193.039 265.412C193.142 266.343 193.256 267.24 193.384 268.103C193.52 268.956 193.669 269.762 193.829 270.52C193.988 271.268 194.167 271.93 194.366 272.506C194.205 272.505 194.016 272.5 193.798 272.492C193.609 272.492 193.382 272.493 193.118 272.497C192.863 272.5 192.57 272.51 192.24 272.526C191.627 272.556 190.921 272.619 190.123 272.715C189.333 272.801 188.475 272.937 187.549 273.125C187.668 272.854 187.768 272.485 187.849 272.018C187.929 271.542 187.993 271.009 188.04 270.421C188.086 269.823 188.116 269.193 188.131 268.531C188.155 267.859 188.164 267.187 188.16 266.517C188.165 265.845 188.156 265.198 188.135 264.575C188.123 263.943 188.109 263.376 188.094 262.876C188.079 262.367 188.062 261.937 188.045 261.588C188.028 261.24 188.017 261.013 188.012 260.91C187.916 259.336 187.802 257.877 187.669 256.531C187.613 255.967 187.552 255.398 187.486 254.825C187.42 254.252 187.347 253.717 187.266 253.22C187.185 252.723 187.097 252.287 187.003 251.914C186.919 251.54 186.825 251.261 186.721 251.077C187.491 251.172 188.203 251.227 188.856 251.242C189.509 251.257 190.094 251.252 190.613 251.226C190.952 251.21 191.259 251.19 191.531 251.167C191.804 251.135 192.034 251.105 192.222 251.077C192.447 251.047 192.644 251.013 192.812 250.977C192.753 251.31 192.706 251.71 192.673 252.174C192.639 252.639 192.612 253.16 192.593 253.738C192.575 254.315 192.562 254.935 192.557 255.597C192.561 256.258 192.571 256.948 192.588 257.665C193.084 256.8 193.635 256.182 194.241 255.812C194.846 255.432 195.483 255.226 196.152 255.193C196.822 255.16 197.442 255.281 198.013 255.556C198.593 255.82 199.101 256.254 199.537 256.856C199.982 257.448 200.341 258.211 200.614 259.142C200.896 260.074 201.069 261.185 201.132 262.477C201.175 263.363 201.221 264.283 201.267 265.235C201.323 266.177 201.392 267.105 201.475 268.018C201.557 268.921 201.665 269.78 201.8 270.596C201.935 271.412 202.102 272.131 202.303 272.755Z" fill="black"/>
<path d="M218.109 258.212C218.144 258.919 218.074 259.613 217.9 260.292C217.734 260.972 217.41 261.583 216.926 262.127C216.443 262.67 215.775 263.119 214.923 263.473C214.08 263.826 212.994 264.035 211.664 264.1C211.725 264.561 211.838 264.943 212.004 265.246C212.18 265.55 212.38 265.79 212.607 265.968C212.833 266.146 213.071 266.276 213.32 266.358C213.57 266.441 213.8 266.496 214.009 266.523C214.218 266.551 214.394 266.561 214.535 266.554C214.677 266.547 214.747 266.543 214.747 266.543C215.329 266.449 215.845 266.272 216.295 266.014C216.488 265.91 216.676 265.782 216.857 265.632C217.039 265.472 217.2 265.289 217.341 265.083C217.491 264.868 217.607 264.631 217.689 264.372C217.779 264.103 217.826 263.798 217.828 263.457C218.103 264.058 218.301 264.625 218.422 265.158C218.552 265.681 218.628 266.173 218.651 266.635C218.692 267.484 218.575 268.274 218.299 269.006C218.032 269.728 217.643 270.361 217.131 270.906C216.619 271.451 215.997 271.884 215.266 272.203C214.545 272.531 213.751 272.717 212.883 272.76C212.035 272.801 211.207 272.695 210.401 272.442C209.604 272.188 208.884 271.76 208.24 271.159C207.605 270.547 207.078 269.741 206.661 268.741C206.252 267.74 206.013 266.514 205.941 265.062C205.864 263.487 206.022 262.081 206.415 260.842C206.807 259.604 207.366 258.556 208.089 257.698C208.812 256.831 209.663 256.16 210.641 255.687C211.629 255.204 212.674 254.935 213.778 254.881C214.324 254.854 214.851 254.889 215.356 254.987C215.872 255.085 216.325 255.266 216.716 255.53C217.116 255.794 217.441 256.147 217.689 256.588C217.937 257.02 218.077 257.562 218.109 258.212ZM211.493 261.77C211.757 261.747 212.061 261.68 212.405 261.569C212.749 261.448 213.072 261.29 213.374 261.096C213.676 260.902 213.925 260.667 214.119 260.393C214.323 260.118 214.417 259.811 214.4 259.472C214.389 259.255 214.305 259.084 214.148 258.96C213.991 258.835 213.794 258.779 213.558 258.79C213.228 258.806 212.936 258.915 212.681 259.117C212.436 259.318 212.226 259.565 212.051 259.857C211.886 260.148 211.755 260.467 211.659 260.812C211.562 261.157 211.507 261.476 211.493 261.77Z" fill="black"/>
<path d="M230.207 257.944C229.915 257.959 229.655 258.056 229.428 258.238C229.2 258.41 228.999 258.651 228.826 258.962C228.661 259.263 228.518 259.625 228.397 260.046C228.285 260.468 228.199 260.93 228.139 261.434C228.178 262.236 228.237 263.046 228.315 263.864C228.393 264.682 228.494 265.49 228.618 266.288C228.742 267.085 228.889 267.862 229.059 268.619C229.238 269.376 229.443 270.094 229.675 270.772C229.524 270.77 229.348 270.765 229.15 270.756C228.979 270.755 228.771 270.755 228.526 270.758C228.29 270.76 228.016 270.769 227.705 270.784C227.12 270.813 226.443 270.874 225.672 270.969C224.911 271.054 224.067 271.19 223.141 271.377C223.228 270.843 223.295 270.193 223.342 269.425C223.39 268.657 223.42 267.824 223.432 266.925C223.445 266.027 223.441 265.091 223.422 264.118C223.412 263.136 223.383 262.169 223.336 261.216C223.302 260.509 223.258 259.817 223.206 259.139C223.154 258.461 223.094 257.821 223.027 257.219C222.969 256.617 222.899 256.063 222.817 255.557C222.736 255.05 222.648 254.615 222.555 254.251C223.325 254.346 224.023 254.406 224.648 254.432C225.282 254.448 225.849 254.444 226.348 254.419C226.669 254.404 226.951 254.385 227.196 254.364C227.44 254.333 227.652 254.303 227.83 254.276C228.026 254.238 228.204 254.201 228.363 254.164C228.273 254.641 228.214 255.169 228.186 255.747C228.647 255.129 229.158 254.664 229.719 254.353C230.29 254.041 230.83 253.873 231.339 253.848C232.188 253.807 232.912 253.927 233.512 254.209C234.111 254.482 234.602 254.86 234.985 255.342C235.367 255.815 235.654 256.363 235.845 256.987C236.037 257.611 236.148 258.248 236.18 258.899C236.211 259.53 236.152 260.152 236.003 260.764C235.853 261.377 235.62 261.932 235.305 262.429C234.988 262.917 234.588 263.32 234.102 263.637C233.617 263.953 233.058 264.127 232.427 264.158C231.87 264.186 231.389 264.115 230.984 263.946C230.588 263.776 230.256 263.547 229.986 263.257C229.717 262.968 229.512 262.647 229.372 262.295C229.241 261.933 229.166 261.573 229.149 261.214C229.13 260.837 229.164 260.467 229.25 260.104C229.346 259.74 229.49 259.407 229.683 259.104C229.759 259.308 229.847 259.465 229.947 259.573C230.056 259.672 230.163 259.742 230.269 259.784C230.385 259.835 230.51 259.862 230.642 259.865C230.991 259.848 231.246 259.755 231.408 259.587C231.579 259.417 231.66 259.224 231.649 259.008C231.644 258.904 231.619 258.787 231.575 258.657C231.531 258.527 231.454 258.408 231.345 258.3C231.245 258.191 231.104 258.103 230.921 258.037C230.738 257.961 230.5 257.93 230.207 257.944Z" fill="black"/>

</g>
</svg>
