<svg width="304" height="249" viewBox="0 0 304 249" fill="none" xmlns="http://www.w3.org/2000/svg">
<g id="peace-badge">
<path d="M261.182 37.6797C256.674 42.4614 250.432 47.0088 244.333 48.2036C238.237 49.3961 229.651 47.7613 222.394 45.2859C228.323 50.148 234.245 56.573 236.445 62.3861C238.647 68.197 238.084 75.897 236.398 82.2524C240.907 77.4671 247.148 72.9256 253.248 71.7293C259.343 70.5329 267.93 72.1708 275.186 74.6432C269.256 69.7866 263.335 63.3561 261.134 57.5453C258.932 51.7373 259.496 44.0318 261.182 37.6797Z" fill="black"/>
<path d="M28.8963 89.7151C38.8542 56.2616 68.0442 32.1447 102.776 28.6758L138.663 25.0915C153.294 23.6303 167.912 27.9815 179.361 37.2057L207.447 59.8325C234.628 81.7301 245.877 117.884 235.92 151.338L207.092 248.186L0.0683594 186.563L28.8963 89.7151Z" fill="black"/>
<path d="M173.261 84.6239C172.972 82.6826 172.304 80.6978 171.068 78.9335C169.843 77.1758 167.962 75.6871 165.747 75.0106C163.541 74.3058 161.149 74.4678 159.12 75.2009C157.082 75.945 155.374 77.1985 154.02 78.6565C152.663 80.1207 151.64 81.7873 150.848 83.5141C150.057 85.2972 149.544 86.9066 148.938 88.5868L145.441 98.5671L141.974 108.549C141.002 111.293 140.08 114.053 139.466 116.923C138.684 116.099 137.932 115.254 137.24 114.365C137.02 114.106 136.82 113.838 136.623 113.556C136.632 112.238 136.606 110.923 136.678 109.622C136.737 107.361 136.893 105.095 137.067 102.834C137.413 98.3126 137.857 93.7882 138.349 89.262L139.105 82.4849L139.207 81.6005C139.221 81.318 139.26 81.053 139.282 80.7405C139.326 80.1158 139.331 79.5092 139.339 78.9037C139.329 77.702 139.235 76.4752 139.009 75.2442C138.551 72.8094 137.576 70.3213 135.795 68.2354C134.059 66.1602 131.417 64.5648 128.489 64.228C127.738 64.1404 127.082 64.1117 126.255 64.1862C125.973 64.2131 125.671 64.2517 125.246 64.3323C124.869 64.4093 124.527 64.4825 124.173 64.598C122.793 65.021 121.524 65.7644 120.495 66.6791C118.433 68.5392 117.302 70.9293 116.594 73.2707C115.268 78.0068 115.405 82.829 115.811 87.4377C116.217 91.9838 116.556 96.5431 116.847 101.089C116.971 103.264 117.09 105.468 117.256 107.672C116.91 107.529 116.552 107.416 116.189 107.33C114.478 106.918 112.708 107.069 111.149 107.562C108.94 108.278 107.156 109.61 105.761 111.199C105.481 110.803 105.158 110.429 104.78 110.13C103.79 109.311 102.574 108.819 101.35 108.594C98.8858 108.122 96.3414 108.761 94.3719 110.078C92.3725 111.393 91.0155 113.386 90.3015 115.454C89.5776 117.583 89.4559 119.568 89.3293 121.606C89.2389 123.637 89.318 125.691 89.6876 127.735C90.0177 129.568 90.5387 131.409 91.4476 133.169C90.6349 136.06 89.7039 140.054 89.299 142.67C88.869 145.684 88.6213 148.749 88.7756 151.855C88.9583 154.944 89.4429 158.116 90.8114 161.094C91.2377 162.015 91.7563 162.908 92.3568 163.75C91.3994 164.163 90.4899 164.733 89.76 165.559C88.6369 166.779 88.11 168.612 88.3981 170.29C88.6763 171.979 89.536 173.439 90.5155 174.687C91.5143 175.939 92.6963 176.98 93.9233 177.921C98.9066 181.618 104.673 183.681 110.355 185.321C116.121 186.847 122.129 188.037 128.324 187.277C131.351 186.855 134.632 185.901 136.857 183.379C137.922 182.124 138.559 180.444 138.406 178.779C138.321 177.431 137.678 176.153 136.764 175.184C137.387 174.77 137.98 174.326 138.52 173.842C141.412 171.31 143.417 168.149 144.907 164.865C147.814 158.244 150.325 151.72 152.688 145.024C155.042 138.356 157.202 131.644 159.569 125.03C161.93 118.412 164.523 111.897 167.453 105.523C168.185 103.93 168.935 102.344 169.706 100.767C170.49 99.1938 171.253 97.4978 171.863 95.7594C173.059 92.2922 173.823 88.5354 173.261 84.6239ZM94.0471 132.675C92.4523 129.45 92.2721 125.544 92.4901 121.864C92.6523 120.027 92.8728 118.089 93.4155 116.531C93.9808 114.939 94.9702 113.565 96.3278 112.685C97.6779 111.795 99.3601 111.42 100.996 111.518C102.308 111.624 103.556 112.011 104.471 112.902C104.38 113.038 104.285 113.174 104.199 113.311C101.406 118.342 100.243 123.959 100.744 129.61C100.933 131.439 101.314 133.27 101.964 135.05C100.536 135.704 99.0209 136.101 97.6792 135.833C96.0691 135.531 94.8556 134.247 94.0471 132.675ZM168.674 94.6774C168.132 96.2719 167.439 97.7976 166.681 99.4003C165.928 101.009 165.197 102.626 164.486 104.253C161.625 110.757 159.111 117.403 156.851 124.108C154.578 130.81 152.525 137.555 150.296 144.221C149.178 147.555 148.017 150.87 146.79 154.16C145.548 157.451 144.359 160.762 142.588 163.737C141.735 165.243 140.794 166.686 139.825 168.083C138.842 169.471 137.829 170.833 136.624 171.993C135.419 173.141 134.09 174.154 132.581 174.795C131.066 175.423 129.419 175.696 127.647 175.491L127.411 176.934C129.316 177.481 131.525 177.452 133.453 176.813C134.117 176.604 134.743 176.323 135.35 176.016C135.961 176.871 136.264 177.832 136.218 178.769C136.167 179.871 135.616 180.872 134.784 181.631C133.122 183.195 130.472 183.837 127.841 184.041C125.169 184.212 122.39 184.011 119.633 183.557C116.873 183.125 114.092 182.488 111.382 181.719C108.61 180.974 105.926 180.099 103.313 179.063C100.7 178.051 98.1888 176.819 95.9338 175.345C93.7447 173.866 91.6769 171.998 91.0811 169.877C90.765 168.839 90.9006 167.773 91.5279 166.838C91.9804 166.169 92.6612 165.594 93.4567 165.118C93.4876 165.153 93.5175 165.192 93.5486 165.226C94.7117 166.447 96.1217 167.448 97.64 168.156L98.3626 166.877C95.8182 165.335 94.1091 162.929 93.1779 160.28C92.2546 157.617 91.9227 154.749 91.9689 151.886C91.9894 149.018 92.312 146.135 92.8165 143.281C93.1907 141.043 93.6987 138.827 94.2344 136.607C95.1552 137.27 96.2762 137.749 97.4205 137.86C99.4236 138.051 101.146 137.421 102.604 136.568C102.809 137.003 103.006 137.443 103.258 137.868C103.662 138.512 104.135 139.144 104.715 139.729C105.023 140.012 105.347 140.298 105.733 140.542C106.104 140.78 106.579 140.988 106.857 141.095C108.336 141.702 110.047 142.053 111.731 141.623C113.435 141.181 114.688 139.979 115.457 138.719C116.245 137.448 116.687 136.083 116.997 134.726C117.607 131.993 117.648 129.224 117.541 126.509L115.995 126.489C116.006 129.136 115.84 131.793 115.214 134.294C114.887 135.524 114.459 136.727 113.778 137.723C113.131 138.729 112.228 139.482 111.157 139.731C110.104 139.972 108.851 139.717 107.726 139.24C107.351 139.076 107.165 138.979 106.965 138.832C106.749 138.681 106.545 138.487 106.358 138.285C105.961 137.857 105.614 137.349 105.308 136.825C104.088 134.634 103.513 132.046 103.344 129.494C103.183 126.928 103.44 124.355 104.035 121.862C104.314 120.619 104.705 119.375 105.145 118.189C105.611 116.967 106.109 115.816 106.748 114.792C108.053 112.707 109.944 110.997 112.184 110.309C113.294 109.979 114.456 109.919 115.514 110.182C116.195 110.354 116.781 110.562 117.473 110.814C117.569 112.148 117.903 116.981 118.037 118.31L119.58 118.279C119.577 117.003 119.358 112.231 119.368 110.959C119.38 110.4 119.389 109.84 119.398 109.28C119.423 106.554 119.48 103.836 119.481 101.088C119.504 96.5081 119.321 91.9152 119.133 87.338C118.89 82.8373 118.921 78.3494 120.147 74.3293C120.713 72.33 121.65 70.4615 123.031 69.2022C123.72 68.573 124.516 68.0953 125.397 67.8224C125.615 67.7455 125.854 67.6895 126.064 67.641C126.231 67.6127 126.517 67.5698 126.819 67.5312C127.184 67.4965 127.737 67.4819 128.191 67.531C130.1 67.6929 131.958 68.6939 133.289 70.1867C134.649 71.6856 135.527 73.6454 135.96 75.7075C136.192 76.7435 136.313 77.8103 136.346 78.8676C136.373 79.4204 136.368 79.9526 136.355 80.4788C136.349 80.7212 136.311 81.0291 136.304 81.2995L136.233 82.1318L135.685 88.9662C135.347 93.5216 135.039 98.0818 134.857 102.65C134.786 104.953 134.75 107.252 134.79 109.556C134.797 110.12 134.8 110.683 134.824 111.237C134.551 110.948 134.252 110.684 133.929 110.443C132.422 109.251 130.388 108.597 128.44 108.758C126.468 108.882 124.661 109.81 123.408 111.118C122.138 112.452 121.412 114.089 121.067 115.802C120.73 117.486 120.915 119.328 121.516 120.953C122.113 122.591 123.041 124.077 124.133 125.382C126.197 127.851 128.689 129.816 131.484 131.393L129.041 138.358C128.185 138.304 127.411 138.409 126.617 138.538C125.521 138.766 124.484 139.134 123.513 139.609C121.589 140.551 119.959 141.892 118.583 143.364C115.836 146.341 113.966 149.849 112.447 153.408L113.877 154.017C115.485 150.603 117.431 147.3 120.065 144.655C121.381 143.349 122.883 142.229 124.541 141.489C125.374 141.111 126.239 140.833 127.12 140.698C127.954 140.549 128.965 140.554 129.599 140.714L130.784 141.057L131.057 139.948L133.161 131.28L133.338 130.814L132.799 130.436C130.232 128.619 127.777 126.511 125.903 124.125C124.021 121.753 122.794 118.952 123.399 116.249C123.679 114.93 124.28 113.638 125.204 112.694C126.122 111.762 127.372 111.151 128.687 111.074C129.999 110.996 131.333 111.426 132.379 112.262C132.647 112.458 132.89 112.691 133.127 112.94L133.434 113.297L133.759 113.751C134.16 114.289 134.54 114.834 134.961 115.36C135.056 115.493 135.148 115.625 135.257 115.746C135.453 115.983 135.642 116.231 135.841 116.454C137.762 118.792 139.988 120.896 142.395 122.762C143.694 123.788 145.078 124.748 146.316 125.698C146.927 126.17 147.514 126.681 147.843 127.123L148.031 127.432C148.091 127.571 148.06 127.44 148.112 127.727C148.149 127.89 148.159 128.318 148.133 128.646C147.938 131.568 147.218 134.651 146.711 137.7C146.174 140.756 145.587 143.813 145.521 147.029L147.068 147.153C147.351 144.147 148.133 141.144 148.773 138.132C149.437 135.081 150.163 132.108 150.484 128.84C150.513 128.391 150.54 128.05 150.469 127.437C150.467 127.332 150.346 126.826 150.218 126.594C150.101 126.318 149.952 126.096 149.8 125.886C149.164 125.041 148.469 124.502 147.814 123.955C146.472 122.915 145.159 121.992 143.917 120.995C142.901 120.197 141.942 119.353 141.016 118.477C142.67 115.644 143.881 112.646 145.008 109.622L148.705 99.701L152.287 89.7472C152.896 88.1187 153.456 86.3632 154.089 84.9176C154.765 83.4411 155.612 82.0531 156.682 80.8923C157.747 79.7354 159.035 78.8128 160.446 78.2899C161.858 77.7776 163.391 77.6847 164.773 78.1229C167.608 78.9454 169.467 81.8624 169.897 84.9889C170.373 88.1508 169.763 91.5083 168.674 94.6774Z" fill="#ECF776"/>
<path d="M14.0477 18.017C23.6495 26.8794 32.9471 38.767 35.77 49.7819C38.5884 60.7926 36.1689 75.6895 32.0156 88.0781C40.8826 78.4793 52.763 69.1821 63.7811 66.3606C74.7948 63.5351 89.6856 65.9509 102.08 70.1074C92.4715 61.2439 83.1853 49.3601 80.3593 38.3403C77.5337 27.3313 79.959 12.4349 84.1065 0.0458984C75.2501 9.64716 63.3591 18.9419 52.3455 21.766C41.3376 24.5919 26.4359 22.1727 14.0477 18.017Z" fill="#E8BD0F"/>
<path d="M23.5914 216.298C21.0933 205.516 27.8092 194.75 38.5917 192.252L279.14 136.523C289.922 134.025 300.688 140.741 303.186 151.523C305.684 162.306 298.968 173.072 288.186 175.57L47.6379 231.299C36.8554 233.797 26.0894 227.081 23.5914 216.298Z" fill="#F2F547"/>
<path d="M69.0769 199.466L70.9997 207.727C71.161 208.423 71.2075 209.065 71.139 209.652C71.0763 210.238 70.9081 210.758 70.6344 211.213C70.3564 211.674 69.9773 212.063 69.4971 212.378C69.0226 212.693 68.4514 212.927 67.7836 213.082C67.1557 213.228 66.5652 213.262 66.0122 213.186C65.465 213.108 64.9685 212.925 64.523 212.638C64.0774 212.35 63.6919 211.958 63.3665 211.462C63.0454 210.959 62.8043 210.359 62.6429 209.663L60.7372 201.398L63.1432 200.841L65.066 209.101C65.1683 209.517 65.2929 209.873 65.4398 210.17C65.5925 210.465 65.7697 210.698 65.9714 210.868C66.1577 211.023 66.3649 211.125 66.5929 211.175C66.8195 211.218 67.067 211.209 67.3353 211.147C67.6264 211.08 67.872 210.972 68.0722 210.823C68.2767 210.667 68.43 210.472 68.5321 210.238C68.6444 209.996 68.7047 209.711 68.7132 209.384C68.7217 209.057 68.6819 208.691 68.5937 208.284L66.688 200.02L69.0769 199.466Z" fill="black"/>
<path d="M94.8097 203.898L91.068 204.765L90.9347 207.538L88.4002 208.125L89.5962 194.712L91.7796 194.207L98.675 205.745L96.1405 206.332L94.8097 203.898ZM91.1847 202.581L93.7705 201.982L91.4315 197.688L91.1847 202.581Z" fill="black"/>
<path d="M105.244 199.315L103.42 199.738L104.499 204.396L102.093 204.953L99.2052 192.486L103.384 191.518C104.074 191.358 104.718 191.296 105.316 191.332C105.913 191.362 106.447 191.488 106.919 191.71C107.386 191.932 107.779 192.253 108.099 192.672C108.424 193.09 108.658 193.607 108.801 194.224C108.904 194.669 108.943 195.084 108.918 195.469C108.897 195.846 108.822 196.198 108.693 196.522C108.559 196.854 108.377 197.158 108.146 197.434C107.921 197.708 107.655 197.963 107.349 198.196L111.221 202.721L111.246 202.832L108.669 203.429L105.244 199.315ZM102.968 197.785L104.749 197.373C105.12 197.287 105.433 197.16 105.689 196.993C105.95 196.818 106.145 196.61 106.276 196.37C106.387 196.175 106.454 195.958 106.477 195.718C106.505 195.477 106.488 195.22 106.424 194.946C106.347 194.615 106.229 194.336 106.068 194.108C105.911 193.874 105.714 193.697 105.476 193.578C105.264 193.47 105.021 193.406 104.746 193.386C104.47 193.366 104.167 193.394 103.836 193.47L102.063 193.881L102.968 197.785Z" fill="black"/>
<path d="M121.311 194.745L116.191 195.931L117.006 199.45L122.991 198.064L123.441 200.007L115.042 201.953L112.153 189.486L120.527 187.546L120.982 189.507L115.022 190.888L115.75 194.03L120.87 192.844L121.311 194.745Z" fill="black"/>
<path d="M140.476 196.061L137.587 183.594L140.815 182.846C141.392 182.713 141.948 182.659 142.483 182.685C143.017 182.706 143.52 182.797 143.99 182.959C144.399 183.087 144.779 183.272 145.13 183.516C145.485 183.752 145.81 184.026 146.105 184.336C146.452 184.719 146.753 185.161 147.007 185.661C147.267 186.16 147.466 186.709 147.605 187.309L147.843 188.336C147.977 188.913 148.04 189.472 148.034 190.015C148.027 190.558 147.959 191.07 147.83 191.551C147.702 191.984 147.53 192.397 147.314 192.789C147.097 193.176 146.84 193.519 146.542 193.816C146.196 194.167 145.793 194.468 145.334 194.719C144.881 194.968 144.377 195.157 143.824 195.285L140.476 196.061ZM140.463 184.985L142.451 193.564L143.375 193.35C143.672 193.281 143.94 193.18 144.18 193.046C144.42 192.913 144.629 192.75 144.807 192.558C144.989 192.36 145.14 192.126 145.258 191.858C145.381 191.583 145.469 191.277 145.523 190.94C145.564 190.648 145.572 190.333 145.548 189.996C145.529 189.651 145.475 189.288 145.386 188.906L145.144 187.861C145.061 187.501 144.953 187.168 144.822 186.862C144.696 186.548 144.55 186.269 144.385 186.025C144.185 185.734 143.953 185.487 143.69 185.284C143.432 185.079 143.15 184.928 142.845 184.83C142.612 184.758 142.362 184.719 142.096 184.715C141.835 184.703 141.559 184.731 141.268 184.798L140.463 184.985Z" fill="black"/>
<path d="M160.806 185.748C160.93 186.285 161 186.807 161.015 187.315C161.029 187.817 160.993 188.294 160.905 188.747C160.806 189.203 160.654 189.636 160.448 190.044C160.242 190.453 159.982 190.814 159.67 191.127C159.385 191.403 159.056 191.642 158.681 191.843C158.314 192.048 157.902 192.204 157.445 192.31C156.96 192.422 156.497 192.463 156.057 192.433C155.617 192.402 155.202 192.312 154.812 192.162C154.426 191.999 154.062 191.779 153.722 191.503C153.38 191.222 153.071 190.887 152.795 190.5C152.544 190.143 152.322 189.744 152.129 189.301C151.942 188.857 151.789 188.378 151.67 187.865L151.249 186.05C151.122 185.502 151.048 184.972 151.025 184.459C151.009 183.946 151.043 183.46 151.129 183.001C151.215 182.566 151.346 182.16 151.524 181.782C151.706 181.403 151.937 181.061 152.215 180.756C152.489 180.458 152.815 180.202 153.192 179.988C153.57 179.774 153.995 179.612 154.469 179.503C154.948 179.392 155.411 179.35 155.857 179.38C156.307 179.402 156.727 179.488 157.117 179.638C157.504 179.777 157.858 179.971 158.181 180.221C158.509 180.47 158.808 180.759 159.076 181.088C159.374 181.464 159.632 181.891 159.852 182.37C160.076 182.847 160.254 183.368 160.385 183.933L160.806 185.748ZM157.941 184.481C157.867 184.162 157.78 183.863 157.679 183.586C157.583 183.301 157.473 183.044 157.347 182.814C157.19 182.526 157.013 182.278 156.814 182.072C156.615 181.859 156.4 181.699 156.17 181.589C155.99 181.511 155.795 181.463 155.587 181.445C155.384 181.426 155.165 181.443 154.931 181.498C154.709 181.549 154.512 181.625 154.343 181.724C154.179 181.822 154.039 181.942 153.921 182.083C153.764 182.288 153.645 182.526 153.563 182.798C153.488 183.068 153.45 183.372 153.449 183.708C153.449 183.967 153.469 184.245 153.508 184.543C153.552 184.839 153.611 185.147 153.686 185.467L154.11 187.299C154.18 187.602 154.259 187.89 154.347 188.165C154.434 188.439 154.534 188.69 154.647 188.916C154.78 189.204 154.935 189.46 155.113 189.683C155.296 189.9 155.488 190.066 155.689 190.181C155.875 190.283 156.073 190.348 156.285 190.377C156.502 190.405 156.736 190.39 156.987 190.332C157.227 190.276 157.438 190.191 157.622 190.076C157.806 189.962 157.96 189.821 158.084 189.654C158.241 189.449 158.357 189.211 158.433 188.941C158.513 188.664 158.557 188.362 158.566 188.035C158.573 187.781 158.558 187.508 158.52 187.216C158.489 186.923 158.437 186.622 158.365 186.314L157.941 184.481Z" fill="black"/>
<path d="M163.792 177.523L171.002 175.853L171.452 177.796L169.02 178.36L171.01 186.948L173.442 186.384L173.89 188.32L166.68 189.99L166.232 188.055L168.604 187.505L166.614 178.917L164.242 179.467L163.792 177.523Z" fill="black"/>
<path d="M187.181 185.24L184.783 185.796L179.453 178.559L181.315 186.599L178.892 187.161L176.004 174.694L178.427 174.133L183.724 181.341L181.878 173.333L184.292 172.774L187.181 185.24Z" fill="black"/>
<path d="M200.006 180.735C199.895 180.96 199.728 181.2 199.505 181.456C199.282 181.712 199.005 181.96 198.676 182.198C198.342 182.444 197.957 182.668 197.523 182.871C197.089 183.074 196.609 183.236 196.084 183.358C195.628 183.464 195.184 183.509 194.754 183.495C194.33 183.485 193.927 183.419 193.544 183.297C193.165 183.168 192.805 182.987 192.462 182.754C192.125 182.519 191.818 182.232 191.541 181.894C191.226 181.521 190.95 181.083 190.713 180.579C190.481 180.073 190.294 179.509 190.15 178.887L189.757 177.191C189.619 176.598 189.546 176.034 189.537 175.501C189.526 174.962 189.572 174.462 189.676 173.999C189.778 173.584 189.918 173.2 190.094 172.846C190.277 172.491 190.491 172.171 190.738 171.885C191.029 171.559 191.366 171.285 191.748 171.065C192.129 170.844 192.549 170.68 193.005 170.575C193.707 170.412 194.339 170.359 194.899 170.416C195.465 170.471 195.967 170.622 196.403 170.87C196.841 171.124 197.215 171.467 197.526 171.9C197.842 172.332 198.101 172.84 198.303 173.425L195.957 173.969C195.847 173.675 195.722 173.422 195.582 173.208C195.448 172.992 195.291 172.821 195.111 172.694C194.91 172.554 194.677 172.47 194.412 172.441C194.151 172.405 193.852 172.426 193.516 172.504C193.333 172.547 193.163 172.616 193.005 172.713C192.847 172.81 192.706 172.93 192.583 173.072C192.423 173.266 192.291 173.501 192.187 173.778C192.088 174.053 192.025 174.365 191.998 174.715C191.976 174.984 191.978 175.279 192.004 175.597C192.035 175.915 192.093 176.253 192.176 176.613L192.573 178.325C192.677 178.776 192.801 179.181 192.944 179.539C193.093 179.895 193.254 180.203 193.429 180.464C193.536 180.613 193.649 180.75 193.767 180.873C193.89 180.988 194.019 181.088 194.152 181.171C194.377 181.312 194.621 181.403 194.883 181.444C195.15 181.479 195.438 181.463 195.747 181.397C195.936 181.354 196.118 181.296 196.294 181.225C196.47 181.155 196.632 181.075 196.78 180.987C196.928 180.898 197.054 180.809 197.16 180.718C197.269 180.621 197.347 180.527 197.393 180.439L196.878 178.176L194.814 178.654L194.397 176.856L198.858 175.823L200.006 180.735Z" fill="black"/>
<path d="M224.862 170.908C224.986 171.445 225.056 171.967 225.071 172.474C225.085 172.976 225.049 173.454 224.961 173.907C224.862 174.363 224.71 174.796 224.504 175.204C224.298 175.613 224.039 175.974 223.726 176.287C223.441 176.563 223.112 176.802 222.737 177.003C222.37 177.208 221.958 177.364 221.501 177.47C221.016 177.582 220.553 177.623 220.113 177.593C219.673 177.562 219.258 177.472 218.869 177.322C218.482 177.159 218.118 176.939 217.778 176.663C217.436 176.382 217.127 176.047 216.851 175.66C216.6 175.303 216.378 174.903 216.185 174.461C215.998 174.017 215.845 173.538 215.726 173.025L215.305 171.209C215.178 170.661 215.104 170.131 215.081 169.619C215.065 169.106 215.099 168.62 215.186 168.161C215.271 167.726 215.403 167.319 215.58 166.942C215.763 166.562 215.993 166.22 216.271 165.915C216.545 165.617 216.871 165.361 217.248 165.148C217.626 164.934 218.051 164.772 218.525 164.662C219.005 164.551 219.467 164.51 219.913 164.539C220.363 164.561 220.783 164.648 221.173 164.798C221.56 164.937 221.915 165.131 222.237 165.381C222.565 165.63 222.864 165.919 223.133 166.247C223.43 166.624 223.689 167.051 223.908 167.529C224.133 168.007 224.31 168.528 224.441 169.093L224.862 170.908ZM221.997 169.641C221.923 169.321 221.836 169.023 221.735 168.745C221.64 168.461 221.529 168.204 221.403 167.974C221.246 167.686 221.069 167.438 220.871 167.232C220.671 167.019 220.456 166.858 220.227 166.749C220.046 166.671 219.851 166.623 219.643 166.605C219.44 166.586 219.221 166.603 218.987 166.657C218.765 166.709 218.569 166.784 218.399 166.884C218.235 166.982 218.095 167.102 217.977 167.243C217.82 167.448 217.701 167.686 217.619 167.958C217.544 168.228 217.506 168.531 217.506 168.868C217.505 169.127 217.525 169.405 217.564 169.703C217.608 169.999 217.668 170.307 217.742 170.627L218.166 172.459C218.236 172.762 218.315 173.05 218.403 173.325C218.49 173.599 218.591 173.85 218.703 174.076C218.836 174.364 218.991 174.62 219.17 174.843C219.352 175.059 219.544 175.226 219.745 175.341C219.931 175.443 220.13 175.508 220.341 175.537C220.558 175.565 220.792 175.55 221.043 175.492C221.283 175.436 221.495 175.351 221.678 175.236C221.862 175.121 222.016 174.981 222.14 174.814C222.297 174.609 222.413 174.371 222.489 174.101C222.569 173.824 222.614 173.522 222.622 173.195C222.629 172.941 222.614 172.668 222.577 172.376C222.545 172.082 222.493 171.782 222.422 171.473L221.997 169.641Z" fill="black"/>
<path d="M232.735 169.291L231.752 171.044L232.603 174.717L230.189 175.277L227.3 162.81L229.715 162.25L231.038 167.962L231.815 166.176L233.876 161.286L236.822 160.604L233.904 167.09L239.864 173.035L237.004 173.698L232.735 169.291Z" fill="black"/>
<path d="M248.544 168.281L244.803 169.148L244.669 171.922L242.135 172.509L243.331 159.096L245.514 158.59L252.41 170.128L249.875 170.716L248.544 168.281ZM244.919 166.965L247.505 166.366L245.166 162.072L244.919 166.965Z" fill="black"/>
<path d="M258.526 161.629L259.653 155.315L262.299 154.702L260.265 163.761L261.257 168.079L258.859 168.634L257.827 164.218L252.101 157.064L254.738 156.453L258.526 161.629Z" fill="black"/>
</g>
</svg>
