<svg width="359" height="450" viewBox="0 0 359 450" fill="none" xmlns="http://www.w3.org/2000/svg">
<g id="window">
<g id="Group 5618">
<g id="background">
<rect id="bottom" x="28.3267" y="174.537" width="266" height="284.615" transform="rotate(-15.0083 28.3267 174.537)" fill="#010101"/>
<rect id="top" y="68.8831" width="266" height="230.453" rx="115.226" transform="rotate(-15.0083 0 68.8831)" fill="#010101"/>
</g>
<rect id="yellow-box" x="56.2861" y="186.146" width="224.193" height="240.162" transform="rotate(-15.0083 56.2861 186.146)" stroke="#F2F547" stroke-width="4"/>
<rect id="Rectangle 695" x="31.9858" y="95.5083" width="224.193" height="193.698" rx="96.8491" transform="rotate(-15.0083 31.9858 95.5083)" stroke="#F2F547" stroke-width="4"/>
</g>
<path id="bubble-plant" d="M126.534 279.73C135.2 277.407 142.359 272.498 147.19 266.309L199.352 291.392L223.942 383.111C224.232 384.192 225.492 384.8 226.751 384.462C228.01 384.124 228.802 382.967 228.512 381.886L214.291 328.843C214.327 328.792 214.377 328.763 214.428 328.713L244.999 283.895C252.268 286.839 260.933 287.511 269.59 285.19C288.563 280.104 300.437 262.692 296.062 246.375C291.689 230.062 272.697 220.926 253.724 226.012C234.761 231.097 222.887 248.508 227.26 264.821C229.257 272.268 234.327 278.202 241.027 281.985L212.817 323.344L178.704 196.104C196.344 190.286 207.12 173.664 202.923 158.008C198.549 141.694 179.557 132.557 160.578 137.646C141.608 142.732 129.726 160.141 134.101 176.459C138.297 192.108 155.954 201.116 174.133 197.33L197.866 285.849L149.675 262.673C153.589 256.045 155.01 248.367 153.014 240.922C148.641 224.612 129.645 215.48 110.673 220.567C91.7027 225.653 79.8278 243.061 84.2008 259.371C88.5723 275.68 107.568 284.815 126.534 279.73Z" fill="#E86322"/>
<path id="pink-star" d="M146.994 77.5078L172.418 134.507L200.508 78.7739L191.08 140.47L244.843 108.771L203.556 155.575L265.922 157.975L205.885 175.028L257.053 210.765L197.327 192.652L221.052 250.379L180.599 202.851L169.348 264.241L161.013 202.388L118.358 247.949L144.787 191.409L84.271 206.677L137.072 173.4L77.9084 153.527L140.318 154.079L101.291 105.375L153.494 139.58L146.994 77.5078Z" fill="#ECA2DB"/>
</g>
</svg>
