<svg width="462" height="320" viewBox="0 0 462 320" fill="none" xmlns="http://www.w3.org/2000/svg">
<g id="Frame 48096620">
<g id="Group 5632">
<g id="heart">
<g id="heart-shape">
<path d="M427.911 66.2488C418.271 66.3298 409.677 70.5172 404.35 76.8752C398.918 70.6076 390.255 66.5651 380.614 66.646C364.262 66.7834 351.098 78.5851 351.22 93.0343C351.266 98.5989 352.321 103.734 354.119 108.489C362.731 131.799 388.787 145.563 401.656 149.29C403.472 149.836 406.454 149.81 408.261 149.234C421.065 145.292 446.886 131.092 455.105 107.641C456.823 102.857 457.792 97.7042 457.745 92.1396C457.624 77.6904 444.263 66.1114 427.911 66.2488Z" fill="#E86322"/>
<path d="M427.911 66.2488C418.271 66.3298 409.677 70.5172 404.35 76.8752C398.918 70.6076 390.255 66.5651 380.614 66.646C364.262 66.7834 351.098 78.5851 351.22 93.0343C351.266 98.5989 352.321 103.734 354.119 108.489C362.731 131.799 388.787 145.563 401.656 149.29C403.472 149.836 406.454 149.81 408.261 149.234C421.065 145.292 446.886 131.092 455.105 107.641C456.823 102.857 457.792 97.7042 457.745 92.1396C457.624 77.6904 444.263 66.1114 427.911 66.2488Z" stroke="#D0B6F5"/>
</g>
<path id="heart-left-eye" d="M396.673 98.5232C396.721 104.194 391.899 108.877 385.844 108.928C379.79 108.979 374.889 104.377 374.842 98.7065C374.794 93.036 379.616 88.3527 385.671 88.3018C391.726 88.251 396.626 92.8526 396.673 98.5232Z" fill="#FBF7F7" stroke="#D0B6F5"/>
<path id="heart-left-eye_2" d="M393.412 98.6124C393.446 102.611 390.043 105.927 385.754 105.963C381.465 105.999 378.007 102.741 377.974 98.7421C377.94 94.7437 381.343 91.4279 385.632 91.3919C389.921 91.3559 393.379 94.614 393.412 98.6124Z" fill="black" stroke="#D0B6F5"/>
<path id="heart-right-eye" d="M432.291 98.2241C432.338 103.895 427.516 108.578 421.461 108.629C415.407 108.68 410.507 104.078 410.459 98.4075C410.411 92.7369 415.234 88.0536 421.288 88.0027C427.343 87.9519 432.243 92.5536 432.291 98.2241Z" fill="#FBF7F7" stroke="#D0B6F5"/>
<path id="heart-left-eye_3" d="M429.03 98.3131C429.063 102.312 425.661 105.627 421.371 105.663C417.082 105.699 413.624 102.441 413.591 98.4428C413.557 94.4444 416.96 91.1286 421.249 91.0926C425.538 91.0565 428.996 94.3147 429.03 98.3131Z" fill="black" stroke="#D0B6F5"/>
</g>
<g id="ellipse-sticker">
<path id="Ellipse 99" d="M348.553 67.7239C362.417 85.7969 345.797 121.819 311.431 148.181C277.065 174.543 237.967 181.263 224.103 163.19C210.239 145.117 226.859 109.095 261.225 82.7331C295.591 56.3708 334.689 49.651 348.553 67.7239Z" fill="#ECF776"/>
<path id="Ellipse 100" d="M340.253 74.2007C346.011 81.7067 345.57 93.1426 339.718 105.822C333.889 118.454 322.793 132.051 307.78 143.567C292.767 155.083 276.76 162.278 263.049 164.635C249.286 167.002 238.127 164.465 232.369 156.959C226.611 149.453 227.052 138.018 232.904 125.338C238.733 112.706 249.829 99.1093 264.842 87.593C279.855 76.0767 295.862 68.8822 309.573 66.5247C323.336 64.1584 334.495 66.6947 340.253 74.2007Z" stroke="black" stroke-width="2"/>
<path id="get it together" d="M262.039 111.368C262.137 111.603 262.277 111.876 262.457 112.188C262.639 112.492 262.844 112.822 263.073 113.178C263.298 113.53 263.539 113.892 263.795 114.264C264.055 114.633 264.311 114.994 264.561 115.349C265.153 116.179 265.795 117.05 266.486 117.96C266.849 118.434 267.176 118.922 267.465 119.424C267.755 119.918 267.988 120.415 268.165 120.914C268.346 121.41 268.465 121.907 268.52 122.403C268.576 122.899 268.55 123.381 268.443 123.847C268.34 124.31 268.15 124.755 267.872 125.182C267.598 125.614 267.219 126.015 266.735 126.386C266.284 126.732 265.858 126.985 265.457 127.146C265.055 127.306 264.679 127.384 264.329 127.379C263.987 127.376 263.671 127.297 263.382 127.142C263.102 126.988 262.851 126.767 262.63 126.478C262.412 126.195 262.265 125.902 262.188 125.599C262.111 125.296 262.089 125.003 262.122 124.719C262.159 124.44 262.243 124.183 262.374 123.95C262.51 123.713 262.68 123.516 262.884 123.359C263.149 123.156 263.455 123.039 263.802 123.01C264.148 122.98 264.505 123.079 264.872 123.307C264.788 123.313 264.706 123.346 264.627 123.407C264.52 123.489 264.452 123.607 264.423 123.762C264.398 123.922 264.432 124.062 264.525 124.183C264.578 124.253 264.634 124.302 264.693 124.331C264.76 124.36 264.825 124.373 264.889 124.369C264.952 124.365 265.01 124.349 265.064 124.323C265.126 124.298 265.178 124.269 265.22 124.237C265.271 124.198 265.333 124.135 265.407 124.049C265.49 123.963 265.556 123.843 265.606 123.686C265.655 123.53 265.675 123.334 265.664 123.098C265.653 122.863 265.589 122.576 265.47 122.239C265.352 121.902 265.159 121.506 264.893 121.053C264.632 120.597 264.274 120.073 263.821 119.483C264.046 119.968 264.179 120.383 264.222 120.727C264.264 121.071 264.253 121.364 264.187 121.606C264.118 121.844 264.011 122.04 263.865 122.197C263.724 122.349 263.581 122.481 263.437 122.592C263.325 122.677 263.169 122.767 262.969 122.862C262.764 122.952 262.527 123.023 262.257 123.076C261.988 123.12 261.688 123.132 261.356 123.113C261.025 123.087 260.679 123.001 260.318 122.858C259.953 122.709 259.576 122.488 259.189 122.195C258.802 121.893 258.415 121.489 258.026 120.982C257.427 120.201 256.999 119.48 256.744 118.82C256.493 118.156 256.366 117.562 256.364 117.04C256.363 116.509 256.461 116.054 256.657 115.674C256.85 115.29 257.092 114.985 257.385 114.761C257.595 114.6 257.812 114.489 258.037 114.427C258.259 114.36 258.483 114.329 258.708 114.333C258.933 114.338 259.152 114.369 259.366 114.426C259.577 114.479 259.777 114.543 259.968 114.618C259.783 114.435 259.591 114.258 259.393 114.085C259.198 113.909 258.996 113.736 258.784 113.566C258.939 113.528 259.119 113.464 259.323 113.374C259.501 113.297 259.712 113.187 259.956 113.044C260.197 112.896 260.476 112.7 260.792 112.458C261.164 112.173 261.579 111.809 262.039 111.368ZM261.753 117.148C261.653 117.018 261.525 116.869 261.367 116.702C261.206 116.531 261.035 116.381 260.856 116.253C260.673 116.12 260.488 116.029 260.303 115.979C260.122 115.926 259.959 115.955 259.815 116.065C259.708 116.147 259.658 116.285 259.666 116.478C259.671 116.667 259.708 116.874 259.779 117.101C259.85 117.319 259.939 117.536 260.044 117.75C260.154 117.961 260.259 118.132 260.359 118.262C260.53 118.485 260.717 118.704 260.918 118.919C261.12 119.133 261.319 119.316 261.517 119.468C261.715 119.611 261.9 119.712 262.072 119.773C262.248 119.829 262.392 119.815 262.504 119.729C262.625 119.637 262.71 119.527 262.76 119.4C262.812 119.264 262.832 119.123 262.823 118.975C262.814 118.819 262.776 118.664 262.709 118.509C262.646 118.35 262.558 118.196 262.443 118.048L261.753 117.148ZM271.378 106.63C271.646 106.979 271.855 107.357 272.006 107.766C272.161 108.171 272.212 108.597 272.157 109.046C272.102 109.494 271.919 109.959 271.609 110.44C271.304 110.918 270.824 111.409 270.168 111.912C270.361 112.125 270.554 112.28 270.746 112.376C270.943 112.469 271.13 112.521 271.309 112.532C271.487 112.543 271.654 112.525 271.811 112.479C271.967 112.433 272.104 112.38 272.22 112.32C272.337 112.26 272.43 112.203 272.5 112.15C272.57 112.096 272.604 112.07 272.604 112.07C272.868 111.816 273.069 111.544 273.207 111.253C273.269 111.131 273.32 111 273.36 110.859C273.395 110.713 273.413 110.563 273.413 110.408C273.413 110.246 273.389 110.084 273.339 109.922C273.29 109.753 273.206 109.581 273.087 109.407C273.44 109.616 273.741 109.835 273.991 110.065C274.242 110.286 274.454 110.51 274.629 110.738C274.95 111.156 275.169 111.601 275.287 112.072C275.406 112.535 275.431 112.996 275.362 113.455C275.293 113.914 275.128 114.354 274.868 114.775C274.616 115.197 274.276 115.573 273.848 115.901C273.43 116.222 272.97 116.46 272.469 116.615C271.973 116.767 271.454 116.803 270.913 116.724C270.373 116.636 269.82 116.41 269.253 116.047C268.691 115.681 268.136 115.14 267.587 114.424C266.991 113.647 266.575 112.874 266.338 112.103C266.101 111.332 266.016 110.6 266.082 109.906C266.145 109.208 266.342 108.566 266.675 107.978C267.008 107.383 267.447 106.877 267.991 106.459C268.26 106.252 268.541 106.085 268.834 105.956C269.132 105.824 269.427 105.756 269.72 105.753C270.017 105.746 270.308 105.812 270.59 105.949C270.869 106.082 271.132 106.309 271.378 106.63ZM269.258 110.782C269.384 110.678 269.516 110.536 269.652 110.358C269.785 110.175 269.894 109.98 269.98 109.774C270.065 109.568 270.109 109.361 270.112 109.152C270.119 108.94 270.058 108.75 269.93 108.583C269.848 108.476 269.745 108.419 269.62 108.41C269.496 108.402 269.376 108.443 269.259 108.532C269.097 108.657 268.986 108.816 268.927 109.009C268.873 109.198 268.853 109.398 268.867 109.609C268.885 109.816 268.931 110.025 269.004 110.235C269.076 110.445 269.161 110.628 269.258 110.782ZM277.602 98.7101C277.725 98.9478 277.854 99.1738 277.989 99.3879C278.128 99.5985 278.278 99.8085 278.438 100.018C278.592 100.218 278.754 100.414 278.925 100.608C279.097 100.794 279.28 100.975 279.474 101.151C279.162 101.206 278.842 101.314 278.516 101.476C278.194 101.634 277.874 101.809 277.556 102.001L278.016 102.601C278.419 103.126 278.837 103.652 279.269 104.177C279.698 104.697 280.128 105.195 280.558 105.669C280.985 106.139 281.404 106.575 281.815 106.976C282.231 107.373 282.621 107.709 282.987 107.983C282.904 108.039 282.806 108.103 282.692 108.176C282.595 108.242 282.482 108.322 282.353 108.413C282.224 108.505 282.078 108.613 281.915 108.738C281.613 108.97 281.275 109.251 280.901 109.582C280.524 109.908 280.132 110.283 279.725 110.706C279.188 109.678 278.577 108.651 277.893 107.625C277.211 106.59 276.511 105.606 275.794 104.671L275.158 103.842C274.859 104.107 274.574 104.385 274.302 104.675C274.03 104.957 273.785 105.238 273.564 105.518C273.543 105.453 273.508 105.373 273.457 105.279C273.407 105.184 273.35 105.091 273.287 104.999C273.229 104.904 273.168 104.814 273.103 104.731C273.044 104.643 272.993 104.572 272.95 104.516C272.768 104.279 272.579 104.051 272.382 103.833C272.185 103.615 271.981 103.398 271.772 103.182C272.066 103.104 272.39 102.977 272.743 102.803C273.093 102.623 273.436 102.426 273.774 102.211C273.436 101.828 273.116 101.479 272.815 101.163C272.514 100.848 272.231 100.57 271.966 100.331C272.392 100.107 272.775 99.8834 273.113 99.6606C273.452 99.4378 273.751 99.2265 274.012 99.0268C274.179 98.8984 274.326 98.782 274.453 98.6775C274.58 98.5647 274.687 98.4681 274.773 98.3874C274.878 98.2926 274.966 98.206 275.039 98.1279C275.159 98.3903 275.329 98.7031 275.549 99.0664C275.769 99.4214 276.02 99.816 276.302 100.25C276.583 99.9821 276.838 99.7169 277.065 99.4542C277.296 99.188 277.475 98.94 277.602 98.7101ZM293.018 100.287C292.936 100.343 292.838 100.407 292.723 100.48C292.627 100.547 292.514 100.626 292.385 100.718C292.256 100.809 292.11 100.918 291.947 101.042C291.645 101.274 291.307 101.556 290.933 101.887C290.556 102.213 290.164 102.588 289.757 103.01C289.71 102.766 289.615 102.488 289.472 102.177C289.326 101.861 289.155 101.537 288.961 101.207C288.767 100.868 288.56 100.535 288.34 100.21C288.124 99.8803 287.921 99.5819 287.731 99.3144C287.54 99.0469 287.375 98.8225 287.236 98.6412C287.102 98.4563 287.017 98.3406 286.981 98.2941C286.508 97.6969 286.054 97.1481 285.619 96.6477C285.433 96.4352 285.242 96.224 285.044 96.0141C284.851 95.8005 284.663 95.6045 284.482 95.426C284.297 95.2428 284.126 95.0865 283.967 94.9569C283.81 94.8192 283.672 94.7216 283.554 94.6643C283.981 94.4405 284.363 94.2172 284.702 93.9944C285.041 93.7716 285.34 93.5603 285.6 93.3606C285.768 93.2322 285.915 93.1158 286.041 93.0112C286.169 92.8985 286.276 92.8019 286.362 92.7212C286.466 92.6263 286.555 92.5398 286.628 92.4617C286.865 92.9443 287.182 93.5022 287.579 94.1354C287.981 94.7651 288.441 95.417 288.958 96.0911C289.254 96.477 289.563 96.8604 289.884 97.2413C290.206 97.6222 290.539 97.9942 290.884 98.3572C291.226 98.7156 291.575 99.0605 291.933 99.3918C292.291 99.7149 292.653 100.013 293.018 100.287ZM282.168 92.7703C282.004 92.5564 281.89 92.3262 281.826 92.0796C281.764 91.8248 281.749 91.5742 281.781 91.3277C281.815 91.073 281.897 90.8331 282.027 90.6078C282.153 90.3779 282.323 90.1809 282.537 90.0169C282.751 89.8528 282.983 89.7413 283.233 89.6824C283.484 89.6152 283.735 89.6001 283.985 89.6373C284.236 89.6662 284.474 89.7456 284.699 89.8756C284.926 89.9974 285.121 90.1652 285.285 90.3791C285.449 90.5929 285.562 90.8273 285.625 91.0821C285.692 91.3333 285.709 91.5863 285.675 91.8409C285.643 92.0874 285.563 92.3256 285.437 92.5555C285.312 92.7772 285.142 92.97 284.928 93.1341C284.714 93.2981 284.482 93.4137 284.231 93.4809C283.976 93.5435 283.723 93.5603 283.472 93.5314C283.222 93.4942 282.982 93.4125 282.752 93.286C282.527 93.1561 282.332 92.9841 282.168 92.7703ZM294.225 85.9578C294.349 86.1955 294.478 86.4215 294.613 86.6357C294.752 86.8463 294.902 87.0562 295.062 87.2654C295.216 87.4653 295.378 87.6622 295.549 87.8561C295.721 88.0417 295.904 88.2225 296.098 88.3986C295.785 88.4535 295.466 88.5619 295.14 88.7236C294.818 88.8818 294.498 89.057 294.18 89.2491L294.64 89.8488C295.043 90.3742 295.461 90.8994 295.893 91.4244C296.322 91.9448 296.752 92.4423 297.182 92.9169C297.609 93.3869 298.028 93.8225 298.439 94.2235C298.855 94.6209 299.245 94.9566 299.61 95.2304C299.528 95.2863 299.43 95.3507 299.315 95.4234C299.219 95.4901 299.106 95.5693 298.977 95.6609C298.848 95.7525 298.702 95.8608 298.539 95.9856C298.237 96.2174 297.899 96.4988 297.525 96.8298C297.148 97.1562 296.756 97.5308 296.349 97.9536C295.812 96.9258 295.201 95.8988 294.517 94.8725C293.835 93.8381 293.135 92.8536 292.418 91.9192L291.781 91.0893C291.483 91.3551 291.198 91.633 290.926 91.9231C290.654 92.205 290.408 92.486 290.188 92.7661C290.167 92.7007 290.132 92.6208 290.081 92.5264C290.031 92.432 289.974 92.3389 289.911 92.247C289.853 92.1515 289.791 92.062 289.727 91.9783C289.668 91.891 289.617 91.8195 289.574 91.7637C289.392 91.5266 289.202 91.299 289.006 91.0808C288.809 90.8626 288.605 90.6457 288.396 90.43C288.69 90.3518 289.014 90.2252 289.367 90.0502C289.717 89.8707 290.06 89.6736 290.398 89.4589C290.06 89.0759 289.74 88.7266 289.439 88.4111C289.138 88.0956 288.855 87.818 288.59 87.5783C289.016 87.3545 289.399 87.1312 289.737 86.9083C290.076 86.6855 290.375 86.4742 290.636 86.2745C290.803 86.1461 290.95 86.0297 291.077 85.9252C291.204 85.8125 291.311 85.7158 291.397 85.6352C291.501 85.5403 291.59 85.4538 291.663 85.3756C291.783 85.638 291.953 85.9508 292.173 86.3141C292.393 86.6691 292.644 87.0637 292.926 87.4978C293.207 87.2299 293.462 86.9646 293.689 86.702C293.92 86.4358 294.099 86.1877 294.225 85.9578ZM262.703 140.387C262.826 140.625 262.955 140.851 263.09 141.065C263.229 141.276 263.379 141.486 263.539 141.695C263.693 141.895 263.855 142.092 264.026 142.285C264.198 142.471 264.381 142.652 264.575 142.828C264.263 142.883 263.943 142.991 263.617 143.153C263.295 143.311 262.975 143.486 262.657 143.679L263.117 144.278C263.52 144.804 263.938 145.329 264.37 145.854C264.799 146.374 265.229 146.872 265.659 147.346C266.086 147.816 266.505 148.252 266.916 148.653C267.332 149.05 267.722 149.386 268.088 149.66C268.005 149.716 267.907 149.78 267.793 149.853C267.696 149.92 267.583 149.999 267.454 150.09C267.325 150.182 267.179 150.29 267.016 150.415C266.714 150.647 266.376 150.928 266.002 151.259C265.625 151.586 265.233 151.96 264.826 152.383C264.289 151.355 263.678 150.328 262.994 149.302C262.312 148.268 261.612 147.283 260.895 146.349L260.258 145.519C259.96 145.785 259.675 146.062 259.403 146.353C259.131 146.634 258.885 146.915 258.665 147.196C258.644 147.13 258.609 147.05 258.558 146.956C258.508 146.861 258.451 146.768 258.388 146.676C258.33 146.581 258.269 146.491 258.204 146.408C258.145 146.32 258.094 146.249 258.051 146.193C257.869 145.956 257.68 145.728 257.483 145.51C257.286 145.292 257.082 145.075 256.873 144.859C257.167 144.781 257.491 144.655 257.844 144.48C258.194 144.3 258.537 144.103 258.875 143.888C258.537 143.505 258.217 143.156 257.916 142.841C257.615 142.525 257.332 142.247 257.067 142.008C257.493 141.784 257.876 141.561 258.214 141.338C258.553 141.115 258.852 140.904 259.113 140.704C259.28 140.576 259.427 140.459 259.554 140.355C259.681 140.242 259.788 140.145 259.874 140.065C259.979 139.97 260.067 139.883 260.14 139.805C260.26 140.067 260.43 140.38 260.65 140.744C260.87 141.099 261.121 141.493 261.403 141.927C261.684 141.659 261.939 141.394 262.166 141.131C262.397 140.865 262.576 140.617 262.703 140.387ZM274.555 138.274C274.761 138.544 274.969 138.857 275.176 139.215C275.381 139.568 275.561 139.947 275.716 140.352C275.868 140.752 275.98 141.172 276.052 141.612C276.12 142.047 276.119 142.48 276.05 142.909C275.985 143.335 275.836 143.753 275.603 144.161C275.369 144.569 275.025 144.947 274.569 145.297C274.114 145.646 273.662 145.886 273.215 146.015C272.772 146.14 272.342 146.186 271.924 146.152C271.508 146.109 271.108 146.002 270.725 145.831C270.339 145.655 269.974 145.439 269.632 145.185C269.289 144.931 268.973 144.653 268.682 144.352C268.393 144.042 268.134 143.738 267.906 143.441C267.503 142.915 267.179 142.348 266.933 141.739C266.684 141.125 266.549 140.512 266.53 139.899C266.515 139.283 266.628 138.69 266.871 138.12C267.118 137.547 267.532 137.037 268.113 136.591C268.503 136.292 268.901 136.083 269.305 135.965C269.706 135.842 270.105 135.79 270.504 135.81C270.903 135.829 271.291 135.911 271.669 136.057C272.051 136.199 272.416 136.381 272.763 136.603C273.11 136.824 273.435 137.08 273.74 137.371C274.044 137.662 274.316 137.963 274.555 138.274ZM272.304 140.366C272.222 140.259 272.116 140.13 271.985 139.979C271.856 139.82 271.712 139.661 271.553 139.502C271.394 139.343 271.226 139.192 271.049 139.047C270.876 138.899 270.704 138.78 270.532 138.691C270.36 138.601 270.191 138.549 270.025 138.536C269.865 138.519 269.719 138.56 269.589 138.66C269.464 138.757 269.386 138.882 269.358 139.037C269.329 139.192 269.331 139.364 269.365 139.552C269.403 139.737 269.465 139.933 269.551 140.141C269.637 140.34 269.733 140.537 269.837 140.73C269.942 140.915 270.048 141.092 270.155 141.261C270.264 141.422 270.359 141.555 270.441 141.662C270.559 141.816 270.713 141.993 270.904 142.194C271.095 142.394 271.299 142.57 271.518 142.72C271.736 142.869 271.956 142.974 272.179 143.032C272.402 143.083 272.606 143.036 272.792 142.894C272.969 142.758 273.065 142.581 273.082 142.361C273.103 142.139 273.077 141.907 273.004 141.668C272.927 141.424 272.823 141.186 272.69 140.956C272.558 140.725 272.429 140.529 272.304 140.366ZM280.816 127.212C280.915 127.447 281.054 127.72 281.234 128.032C281.416 128.336 281.621 128.666 281.85 129.022C282.075 129.374 282.316 129.736 282.572 130.108C282.832 130.477 283.088 130.838 283.338 131.193C283.93 132.023 284.572 132.894 285.263 133.804C285.627 134.278 285.953 134.766 286.242 135.268C286.532 135.762 286.766 136.259 286.942 136.758C287.123 137.254 287.242 137.751 287.298 138.247C287.353 138.743 287.328 139.224 287.22 139.691C287.117 140.154 286.927 140.599 286.649 141.026C286.375 141.458 285.996 141.859 285.513 142.23C285.062 142.576 284.635 142.829 284.234 142.99C283.833 143.15 283.457 143.228 283.106 143.223C282.764 143.22 282.448 143.141 282.16 142.986C281.879 142.832 281.628 142.611 281.407 142.322C281.19 142.039 281.042 141.746 280.965 141.443C280.888 141.14 280.866 140.847 280.899 140.563C280.936 140.284 281.02 140.027 281.151 139.794C281.287 139.557 281.457 139.36 281.662 139.203C281.927 139 282.232 138.883 282.579 138.854C282.925 138.824 283.282 138.923 283.649 139.151C283.565 139.157 283.483 139.19 283.404 139.251C283.297 139.333 283.229 139.451 283.201 139.606C283.175 139.766 283.209 139.906 283.302 140.027C283.355 140.097 283.412 140.146 283.47 140.175C283.538 140.204 283.603 140.217 283.666 140.213C283.729 140.209 283.788 140.193 283.841 140.167C283.903 140.142 283.955 140.113 283.997 140.081C284.048 140.042 284.111 139.979 284.185 139.893C284.267 139.807 284.333 139.687 284.383 139.53C284.433 139.374 284.452 139.178 284.441 138.942C284.431 138.707 284.366 138.42 284.248 138.083C284.129 137.746 283.937 137.35 283.67 136.897C283.409 136.441 283.052 135.917 282.599 135.327C282.823 135.812 282.956 136.227 282.999 136.571C283.041 136.915 283.03 137.208 282.964 137.45C282.896 137.688 282.788 137.884 282.642 138.041C282.501 138.193 282.358 138.325 282.214 138.436C282.102 138.521 281.946 138.611 281.746 138.706C281.542 138.796 281.305 138.867 281.034 138.92C280.765 138.964 280.465 138.976 280.133 138.957C279.802 138.931 279.456 138.845 279.095 138.702C278.73 138.553 278.354 138.332 277.966 138.039C277.58 137.737 277.192 137.333 276.803 136.826C276.204 136.045 275.777 135.324 275.521 134.664C275.27 134 275.144 133.406 275.141 132.884C275.14 132.353 275.238 131.898 275.434 131.518C275.627 131.134 275.87 130.829 276.163 130.605C276.372 130.444 276.589 130.333 276.815 130.271C277.037 130.204 277.26 130.173 277.485 130.177C277.71 130.182 277.93 130.213 278.144 130.27C278.354 130.323 278.554 130.387 278.745 130.462C278.56 130.279 278.369 130.101 278.17 129.929C277.976 129.753 277.773 129.58 277.561 129.41C277.717 129.372 277.896 129.308 278.101 129.218C278.278 129.141 278.489 129.031 278.733 128.888C278.974 128.74 279.253 128.544 279.569 128.302C279.941 128.017 280.357 127.653 280.816 127.212ZM280.531 132.992C280.431 132.862 280.302 132.713 280.144 132.546C279.983 132.375 279.813 132.225 279.633 132.096C279.45 131.964 279.266 131.873 279.08 131.823C278.899 131.77 278.736 131.799 278.592 131.909C278.485 131.991 278.436 132.129 278.444 132.322C278.448 132.511 278.485 132.718 278.556 132.945C278.627 133.163 278.716 133.38 278.821 133.594C278.931 133.805 279.036 133.976 279.136 134.106C279.307 134.329 279.494 134.548 279.695 134.763C279.897 134.977 280.096 135.16 280.294 135.312C280.492 135.455 280.677 135.556 280.849 135.617C281.026 135.673 281.17 135.659 281.281 135.573C281.402 135.481 281.487 135.371 281.538 135.244C281.589 135.108 281.61 134.967 281.6 134.819C281.591 134.663 281.553 134.508 281.486 134.353C281.423 134.194 281.335 134.04 281.221 133.892L280.531 132.992ZM290.155 122.474C290.423 122.823 290.632 123.201 290.783 123.61C290.939 124.015 290.989 124.441 290.934 124.89C290.879 125.338 290.697 125.803 290.387 126.284C290.081 126.762 289.601 127.253 288.945 127.756C289.139 127.969 289.331 128.124 289.523 128.22C289.72 128.313 289.908 128.365 290.086 128.376C290.264 128.387 290.432 128.369 290.588 128.323C290.745 128.277 290.881 128.224 290.998 128.164C291.114 128.104 291.207 128.047 291.277 127.994C291.347 127.94 291.382 127.914 291.382 127.914C291.645 127.66 291.846 127.388 291.985 127.097C292.047 126.975 292.097 126.844 292.137 126.703C292.173 126.557 292.19 126.407 292.19 126.252C292.19 126.09 292.166 125.928 292.116 125.766C292.067 125.597 291.983 125.425 291.864 125.25C292.217 125.46 292.518 125.679 292.768 125.909C293.019 126.13 293.232 126.354 293.406 126.582C293.727 127 293.947 127.445 294.064 127.916C294.183 128.379 294.208 128.84 294.139 129.299C294.07 129.758 293.906 130.198 293.645 130.619C293.393 131.041 293.053 131.417 292.626 131.745C292.207 132.066 291.748 132.304 291.247 132.459C290.75 132.611 290.231 132.647 289.69 132.568C289.15 132.48 288.597 132.254 288.03 131.891C287.469 131.525 286.913 130.983 286.364 130.268C285.768 129.491 285.352 128.717 285.115 127.947C284.878 127.176 284.793 126.444 284.859 125.75C284.922 125.052 285.119 124.41 285.452 123.822C285.785 123.227 286.224 122.721 286.768 122.303C287.037 122.096 287.319 121.929 287.611 121.8C287.909 121.668 288.204 121.6 288.497 121.597C288.795 121.59 289.085 121.656 289.368 121.793C289.647 121.926 289.909 122.153 290.155 122.474ZM288.035 126.626C288.161 126.522 288.293 126.38 288.429 126.202C288.562 126.019 288.671 125.824 288.757 125.618C288.843 125.412 288.887 125.205 288.889 124.996C288.896 124.784 288.835 124.594 288.707 124.427C288.625 124.32 288.522 124.262 288.397 124.254C288.273 124.246 288.153 124.287 288.037 124.376C287.874 124.501 287.763 124.66 287.704 124.853C287.65 125.042 287.63 125.242 287.644 125.453C287.663 125.66 287.708 125.869 287.781 126.079C287.854 126.289 287.938 126.472 288.035 126.626ZM296.379 114.554C296.502 114.792 296.631 115.018 296.766 115.232C296.905 115.443 297.055 115.652 297.216 115.862C297.369 116.062 297.531 116.258 297.702 116.452C297.874 116.638 298.057 116.819 298.251 116.995C297.939 117.05 297.619 117.158 297.293 117.32C296.971 117.478 296.652 117.653 296.334 117.845L296.794 118.445C297.197 118.97 297.614 119.496 298.047 120.021C298.475 120.541 298.905 121.039 299.336 121.513C299.763 121.983 300.182 122.419 300.593 122.82C301.008 123.217 301.399 123.553 301.764 123.827C301.681 123.883 301.583 123.947 301.469 124.02C301.372 124.086 301.259 124.165 301.13 124.257C301.001 124.349 300.855 124.457 300.693 124.582C300.39 124.814 300.052 125.095 299.679 125.426C299.301 125.752 298.909 126.127 298.503 126.55C297.965 125.522 297.355 124.495 296.671 123.469C295.988 122.434 295.288 121.45 294.571 120.515L293.935 119.686C293.636 119.951 293.351 120.229 293.079 120.519C292.808 120.801 292.562 121.082 292.341 121.362C292.32 121.297 292.285 121.217 292.235 121.123C292.184 121.028 292.128 120.935 292.065 120.843C292.006 120.748 291.945 120.658 291.881 120.575C291.821 120.487 291.77 120.416 291.727 120.36C291.545 120.123 291.356 119.895 291.159 119.677C290.962 119.459 290.759 119.242 290.549 119.026C290.843 118.948 291.167 118.821 291.52 118.646C291.87 118.467 292.214 118.27 292.551 118.055C292.213 117.672 291.893 117.323 291.592 117.007C291.291 116.692 291.008 116.414 290.743 116.175C291.169 115.951 291.552 115.727 291.891 115.505C292.229 115.282 292.529 115.07 292.789 114.871C292.956 114.742 293.103 114.626 293.23 114.521C293.358 114.409 293.464 114.312 293.55 114.231C293.655 114.137 293.743 114.05 293.816 113.972C293.937 114.234 294.106 114.547 294.326 114.91C294.547 115.265 294.798 115.66 295.079 116.094C295.361 115.826 295.615 115.561 295.842 115.298C296.073 115.032 296.252 114.784 296.379 114.554ZM312.146 116.361C311.866 116.516 311.566 116.702 311.245 116.919C310.924 117.136 310.61 117.362 310.303 117.597C310.01 117.822 309.734 118.049 309.474 118.278C309.218 118.503 309.001 118.707 308.823 118.888C308.664 118.478 308.475 118.073 308.256 117.672C308.042 117.268 307.801 116.862 307.533 116.455C307.266 116.039 306.974 115.617 306.659 115.186C306.344 114.756 306.006 114.306 305.646 113.837C305.592 113.767 305.517 113.678 305.418 113.568C305.324 113.456 305.216 113.339 305.094 113.219C304.972 113.098 304.841 112.985 304.7 112.878C304.561 112.764 304.42 112.672 304.279 112.603C304.138 112.535 303.998 112.497 303.861 112.492C303.729 112.483 303.609 112.519 303.502 112.601C303.432 112.655 303.391 112.745 303.378 112.873C303.367 112.993 303.372 113.14 303.395 113.314C303.415 113.484 303.453 113.673 303.509 113.881C303.561 114.084 303.624 114.295 303.695 114.514C304.068 114.981 304.445 115.438 304.824 115.885C305.205 116.324 305.581 116.741 305.951 117.136C306.322 117.524 306.682 117.883 307.031 118.213C307.377 118.538 307.702 118.813 308.007 119.037C307.924 119.093 307.826 119.158 307.712 119.23C307.616 119.297 307.5 119.378 307.367 119.473C307.238 119.565 307.092 119.673 306.929 119.798C306.627 120.03 306.289 120.311 305.915 120.642C305.542 120.965 305.153 121.338 304.746 121.761C304.711 121.58 304.632 121.357 304.508 121.09C304.381 120.818 304.226 120.524 304.042 120.207C303.854 119.886 303.647 119.553 303.421 119.21C303.195 118.859 302.963 118.513 302.724 118.172C302.489 117.827 302.257 117.5 302.026 117.19C301.796 116.871 301.589 116.587 301.405 116.337C301.217 116.082 301.057 115.869 300.925 115.697C300.793 115.525 300.708 115.413 300.668 115.362C300.063 114.593 299.49 113.888 298.947 113.248C298.719 112.98 298.487 112.711 298.251 112.442C298.015 112.173 297.788 111.926 297.572 111.701C297.355 111.476 297.156 111.284 296.976 111.127C296.801 110.966 296.655 110.857 296.537 110.799C296.963 110.576 297.346 110.352 297.685 110.13C298.023 109.907 298.32 109.697 298.576 109.501C298.743 109.373 298.893 109.254 299.024 109.146C299.152 109.034 299.258 108.937 299.344 108.856C299.449 108.761 299.537 108.675 299.61 108.597C299.698 108.788 299.815 109.008 299.962 109.257C300.109 109.507 300.28 109.782 300.474 110.083C300.668 110.385 300.881 110.705 301.112 111.045C301.348 111.381 301.596 111.73 301.858 112.09C301.806 111.473 301.869 110.963 302.047 110.56C302.222 110.153 302.474 109.823 302.805 109.569C303.135 109.316 303.494 109.159 303.882 109.097C304.272 109.027 304.684 109.069 305.119 109.223C305.556 109.368 306.008 109.63 306.476 110.009C306.949 110.385 307.43 110.892 307.919 111.528C308.254 111.965 308.601 112.419 308.962 112.888C309.323 113.35 309.686 113.799 310.05 114.235C310.411 114.667 310.77 115.068 311.127 115.437C311.484 115.805 311.823 116.114 312.146 116.361ZM315.078 103.356C315.345 103.704 315.555 104.083 315.705 104.492C315.861 104.897 315.911 105.323 315.857 105.772C315.802 106.22 315.619 106.685 315.309 107.166C315.004 107.644 314.523 108.135 313.868 108.637C314.061 108.851 314.254 109.006 314.446 109.102C314.643 109.195 314.83 109.247 315.008 109.258C315.187 109.269 315.354 109.251 315.511 109.205C315.667 109.159 315.804 109.106 315.92 109.046C316.037 108.986 316.13 108.929 316.2 108.876C316.269 108.822 316.304 108.796 316.304 108.796C316.567 108.542 316.768 108.27 316.907 107.979C316.969 107.857 317.02 107.726 317.059 107.585C317.095 107.439 317.113 107.289 317.112 107.134C317.113 106.971 317.088 106.809 317.039 106.648C316.99 106.479 316.906 106.307 316.787 106.132C317.14 106.342 317.441 106.561 317.691 106.791C317.941 107.012 318.154 107.236 318.329 107.464C318.65 107.882 318.869 108.327 318.987 108.798C319.106 109.261 319.13 109.722 319.062 110.181C318.993 110.64 318.828 111.08 318.568 111.501C318.316 111.923 317.976 112.299 317.548 112.627C317.13 112.948 316.67 113.186 316.169 113.341C315.673 113.493 315.154 113.529 314.613 113.45C314.073 113.362 313.519 113.136 312.953 112.773C312.391 112.407 311.836 111.865 311.286 111.149C310.691 110.373 310.274 109.599 310.038 108.828C309.801 108.058 309.715 107.325 309.782 106.632C309.844 105.934 310.042 105.291 310.374 104.704C310.708 104.109 311.146 103.602 311.69 103.185C311.96 102.978 312.241 102.811 312.534 102.682C312.831 102.55 313.126 102.482 313.419 102.479C313.717 102.472 314.007 102.538 314.29 102.675C314.569 102.808 314.832 103.035 315.078 103.356ZM312.957 107.508C313.084 107.404 313.215 107.262 313.352 107.084C313.484 106.901 313.594 106.706 313.679 106.5C313.765 106.294 313.809 106.087 313.811 105.878C313.819 105.666 313.758 105.476 313.629 105.309C313.547 105.202 313.444 105.144 313.32 105.136C313.196 105.128 313.075 105.169 312.959 105.258C312.796 105.383 312.686 105.542 312.627 105.735C312.573 105.924 312.553 106.124 312.567 106.335C312.585 106.542 312.631 106.751 312.703 106.961C312.776 107.171 312.861 107.353 312.957 107.508ZM321.158 98.9463C321.014 99.0568 320.916 99.1985 320.864 99.3714C320.808 99.5396 320.791 99.7337 320.812 99.9538C320.835 100.166 320.889 100.401 320.977 100.659C321.068 100.913 321.188 101.18 321.335 101.458C321.638 101.853 321.954 102.246 322.283 102.636C322.612 103.026 322.949 103.403 323.294 103.766C323.639 104.129 323.988 104.474 324.342 104.801C324.701 105.124 325.059 105.418 325.417 105.682C325.339 105.734 325.248 105.793 325.143 105.859C325.056 105.919 324.95 105.992 324.825 106.081C324.706 106.165 324.569 106.266 324.416 106.384C324.127 106.605 323.803 106.876 323.444 107.196C323.085 107.508 322.702 107.876 322.295 108.298C322.151 107.995 321.956 107.639 321.709 107.231C321.462 106.822 321.183 106.386 320.872 105.923C320.561 105.46 320.229 104.984 319.876 104.494C319.523 103.996 319.167 103.513 318.807 103.043C318.539 102.694 318.273 102.356 318.006 102.029C317.74 101.701 317.484 101.396 317.237 101.112C316.995 100.826 316.764 100.567 316.543 100.338C316.323 100.108 316.124 99.9168 315.948 99.764C316.374 99.5402 316.752 99.3246 317.08 99.1171C317.409 98.9014 317.697 98.6991 317.944 98.5101C318.102 98.3888 318.239 98.2795 318.357 98.1821C318.47 98.0801 318.568 97.9906 318.649 97.9135C318.736 97.8247 318.814 97.7429 318.882 97.6684C319.005 97.9436 319.161 98.2337 319.35 98.5387C319.367 98.0604 319.464 97.6427 319.641 97.2857C319.822 96.9251 320.038 96.6485 320.289 96.456C320.708 96.135 321.12 95.9407 321.526 95.873C321.928 95.8006 322.312 95.8199 322.678 95.9308C323.04 96.037 323.38 96.2155 323.698 96.4664C324.016 96.7173 324.298 97.0031 324.544 97.3239C324.783 97.6354 324.972 97.9738 325.112 98.3391C325.252 98.7044 325.329 99.0697 325.344 99.4352C325.355 99.7961 325.292 100.143 325.157 100.476C325.021 100.809 324.797 101.095 324.486 101.334C324.211 101.545 323.941 101.678 323.674 101.735C323.412 101.788 323.162 101.789 322.922 101.736C322.682 101.684 322.464 101.592 322.269 101.462C322.074 101.324 321.908 101.166 321.773 100.989C321.63 100.803 321.517 100.602 321.432 100.387C321.353 100.167 321.309 99.9461 321.3 99.7235C321.411 99.8008 321.512 99.8495 321.601 99.8696C321.691 99.8816 321.771 99.8795 321.84 99.8635C321.917 99.8486 321.99 99.8185 322.059 99.7733C322.231 99.6413 322.328 99.5037 322.351 99.3605C322.379 99.2137 322.352 99.0868 322.27 98.9799C322.23 98.9288 322.177 98.8778 322.108 98.827C322.04 98.7762 321.958 98.7425 321.864 98.7259C321.775 98.7058 321.672 98.711 321.555 98.7416C321.435 98.7675 321.302 98.8357 321.158 98.9463Z" fill="black"/>
</g>
<g id="star">
<path id="star-outer" d="M224.016 31.3603L174.97 97.6734L148.595 23.1186L137.227 99.6966L73.8647 84.4946L114.444 130.288L56.6623 147.124L108.752 160.766L76.8961 201.28L119.829 186.544L98.3154 237.352L149.017 192.298L170.004 255.237L185.183 194.668L229.625 232.467L213.154 164.943L260.862 148.921L220.564 125.952L253.171 85.4803L210.777 100.113L224.016 31.3603Z" fill="#E9E6DF"/>
<path id="star-middle" d="M210.026 54.176L171.311 106.499L150.499 47.6778L141.522 108.097L91.5124 96.1069L123.538 132.235L77.9313 145.522L119.044 156.282L93.8983 188.249L127.785 176.62L110.802 216.708L150.822 181.158L167.383 230.815L179.367 183.026L214.442 212.847L201.445 159.572L239.101 146.928L207.296 128.808L233.035 96.8744L199.573 108.422L210.026 54.176Z" fill="#E8BD0F"/>
<path id="star-inner" d="M200.909 74.6695L169.897 116.553L153.235 69.4738L146.039 117.836L105.989 108.243L131.634 137.157L95.1071 147.797L128.032 156.406L107.891 181.994L135.031 172.683L121.426 204.772L153.481 176.313L166.74 216.058L176.342 177.806L204.43 201.672L194.027 159.031L224.186 148.907L198.715 134.406L219.332 108.844L192.532 118.09L200.909 74.6695Z" fill="#E86322"/>
</g>
<g id="Group 5631">
<g id="green-cloud">
<g id="cloud-body">
<g id="cloud">
<path d="M326.982 221.645L347.195 221.268C352.617 221.167 357.554 217.818 359.767 212.739C361.822 208.023 361.177 202.614 358.088 198.672L356.035 196.05C351.49 190.248 343.984 187.708 336.747 189.522L152.197 235.784C149.066 236.568 146.475 238.857 145.27 241.902C142.533 248.818 147.91 256.015 155.161 255.143L170.955 253.244C169.256 268.413 187.331 276.712 197.924 265.628L204.045 259.223C197.16 274.285 212.927 289.025 227.227 280.895L237.8 274.883L242.25 295.306C243.135 299.367 245.125 303.066 247.996 305.99C258.956 317.148 277.943 313.172 282.598 297.789C285.903 286.869 287.478 278.87 288.525 273.55C289.693 267.619 290.204 265.019 291.727 265.416C311.343 269.41 329.643 252.755 327.909 232.486L326.982 221.645Z" fill="#B7F631"/>
<path d="M326.982 221.645L347.195 221.268C352.617 221.167 357.554 217.818 359.767 212.739C361.822 208.023 361.177 202.614 358.088 198.672L356.035 196.05C351.49 190.248 343.984 187.708 336.747 189.522L152.197 235.784C149.066 236.568 146.475 238.857 145.27 241.902C142.533 248.818 147.91 256.015 155.161 255.143L170.955 253.244C169.256 268.413 187.331 276.712 197.924 265.628L204.045 259.223C197.16 274.285 212.927 289.025 227.227 280.895L237.8 274.883L242.25 295.306C243.135 299.367 245.125 303.066 247.996 305.99C258.956 317.148 277.943 313.172 282.598 297.789C285.903 286.869 287.478 278.87 288.525 273.55C289.693 267.619 290.204 265.019 291.727 265.416C311.343 269.41 329.643 252.755 327.909 232.486L326.982 221.645Z" stroke="#E8BD0F"/>
</g>
<g id="cloud_2">
<path d="M175.134 223.037L154.926 223.15C149.498 223.181 144.519 226.468 142.248 231.52C140.141 236.206 140.726 241.618 143.768 245.597L145.793 248.245C150.275 254.108 157.76 256.747 165.025 255.026L350.066 211.178C353.21 210.433 355.829 208.177 357.069 205.146C359.882 198.267 354.584 191.004 347.319 191.781L331.509 193.474C333.377 178.331 315.384 169.807 304.664 180.755L298.486 187.065C305.54 172.091 289.927 157.156 275.528 165.104L264.906 170.967L260.682 150.48C259.843 146.414 257.897 142.694 255.062 139.737C244.227 128.438 225.188 132.169 220.362 147.488C216.937 158.359 215.274 166.335 214.168 171.639C212.934 177.554 212.393 180.148 210.875 179.731C191.307 175.482 172.819 191.887 174.326 212.162L175.134 223.037Z" fill="#B7F631"/>
<path d="M175.134 223.037L154.926 223.15C149.498 223.181 144.519 226.468 142.248 231.52C140.141 236.206 140.726 241.618 143.768 245.597L145.793 248.245C150.275 254.108 157.76 256.747 165.025 255.026L350.066 211.178C353.21 210.433 355.829 208.177 357.069 205.146C359.882 198.267 354.584 191.004 347.319 191.781L331.509 193.474C333.377 178.331 315.384 169.807 304.664 180.755L298.486 187.065C305.54 172.091 289.927 157.156 275.528 165.104L264.906 170.967L260.682 150.48C259.843 146.414 257.897 142.694 255.062 139.737C244.227 128.438 225.188 132.169 220.362 147.488C216.937 158.359 215.274 166.335 214.168 171.639C212.934 177.554 212.393 180.148 210.875 179.731C191.307 175.482 172.819 191.887 174.326 212.162L175.134 223.037Z" stroke="#E8BD0F"/>
</g>
</g>
<g id="cloud-left-eye">
<path id="Ellipse 101" d="M221.853 237.979C209.772 237.979 199.978 227.489 199.978 214.549C199.978 201.609 209.772 191.119 221.853 191.119V237.979Z" fill="#FEF5F5"/>
<path id="Ellipse 103" d="M223.179 237.979C235.261 237.979 245.055 227.489 245.055 214.549C245.055 201.609 235.261 191.119 223.179 191.119V237.979Z" fill="#141313"/>
</g>
<g id="cloud-right-eye">
<path id="right-eye-left" d="M274.885 230.169C262.804 230.169 253.01 219.68 253.01 206.74C253.01 193.8 262.804 183.31 274.885 183.31V230.169Z" fill="#FEF5F5"/>
<path id="right-eye-right" d="M276.211 230.169C288.293 230.169 298.087 219.68 298.087 206.74C298.087 193.8 288.293 183.31 276.211 183.31V230.169Z" fill="#141313"/>
</g>
</g>
</g>
<g id="you-do-you-badge">
<g id="Group 5619">
<path id="badge" d="M438.078 225.759L456.215 217.776L447.754 199.858L461.45 185.545L446.774 172.224L453.945 153.759L435.288 147.063L434.842 127.258L415.045 128.205L407.049 110.075L389.125 118.523L374.798 104.828L361.477 119.49L342.999 112.314L336.307 130.958L316.492 131.395L317.45 151.182L305.285 161.395L307.774 177.083L294.078 191.396L308.754 204.717L301.583 223.182L320.24 229.878L320.686 249.683L340.483 248.736L348.479 266.866L366.403 258.418L380.73 272.113L394.051 257.451L412.529 264.627L419.22 245.983L439.036 245.546L438.078 225.759Z" fill="black"/>
<g id="you-do-you-text">
<circle id="ellipse" cx="374.333" cy="195.952" r="47.5758" transform="rotate(20.4836 374.333 195.952)" fill="#D0B6F5"/>
<path id="Y" d="M314.848 191.945C315.166 192.06 315.526 192.158 315.93 192.24C316.334 192.321 316.757 192.393 317.199 192.453C317.641 192.504 318.097 192.545 318.568 192.576C319.028 192.606 319.474 192.628 319.904 192.64C320.932 192.678 321.988 192.685 323.072 192.662C323.55 192.643 324.042 192.619 324.549 192.589C325.047 192.56 325.554 192.535 326.071 192.515C326.891 192.482 327.716 192.479 328.548 192.505C329.38 192.531 330.18 192.626 330.949 192.792C331.718 192.957 332.441 193.217 333.12 193.571C333.799 193.925 334.395 194.42 334.908 195.055C335.422 195.679 335.838 196.464 336.159 197.41C336.479 198.345 336.666 199.486 336.719 200.833C336.759 201.857 336.667 202.75 336.443 203.511C336.229 204.263 335.921 204.89 335.521 205.395C335.11 205.89 334.631 206.266 334.084 206.522C333.527 206.768 332.936 206.904 332.312 206.929C331.844 206.947 331.401 206.867 330.983 206.688C330.566 206.509 330.204 206.264 329.899 205.953C329.583 205.634 329.334 205.267 329.152 204.854C328.959 204.432 328.854 203.996 328.836 203.547C328.814 202.971 328.943 202.409 329.224 201.861C329.506 201.312 329.975 200.82 330.632 200.383C330.617 200.491 330.606 200.599 330.601 200.707C330.595 200.805 330.594 200.898 330.597 200.986C330.625 201.688 330.941 202.028 331.546 202.004C331.829 201.993 332.054 201.857 332.219 201.596C332.384 201.326 332.458 200.971 332.441 200.532C332.42 199.995 332.262 199.571 331.966 199.261C331.67 198.94 331.304 198.7 330.868 198.541C330.431 198.383 329.958 198.284 329.449 198.245C328.929 198.207 328.435 198.197 327.967 198.216L327.337 198.241C327.54 198.418 327.705 198.632 327.832 198.881C327.949 199.13 328.047 199.386 328.126 199.646C328.195 199.907 328.244 200.16 328.273 200.403C328.302 200.646 328.32 200.851 328.326 201.016C328.349 201.602 328.294 202.195 328.162 202.797C328.029 203.388 327.757 203.937 327.347 204.441C326.936 204.936 326.357 205.355 325.608 205.697C324.849 206.04 323.861 206.255 322.643 206.342C322.594 206.344 322.409 206.356 322.087 206.378C321.755 206.391 321.351 206.427 320.874 206.485C320.388 206.533 319.858 206.608 319.285 206.709C318.712 206.8 318.15 206.924 317.6 207.083C317.048 207.232 316.543 207.418 316.082 207.641C315.612 207.855 315.246 208.114 314.984 208.417C315.119 207.376 315.21 206.449 315.256 205.636C315.292 204.813 315.298 204.095 315.273 203.48C315.255 203.002 315.228 202.588 315.195 202.237C315.152 201.877 315.106 201.581 315.058 201.348C315.008 201.077 314.95 200.844 314.883 200.652C315.285 200.685 315.712 200.722 316.163 200.762C316.604 200.794 317.055 200.825 317.516 200.856C317.966 200.877 318.421 200.893 318.881 200.905C319.34 200.906 319.785 200.898 320.214 200.881C320.702 200.862 321.16 200.825 321.588 200.769C322.006 200.713 322.374 200.635 322.693 200.535C323.001 200.425 323.245 200.293 323.425 200.139C323.594 199.976 323.674 199.782 323.666 199.558C323.655 199.285 323.499 199.061 323.199 198.887C322.889 198.704 322.493 198.563 322.01 198.465C321.517 198.367 320.968 198.306 320.361 198.281C319.754 198.256 319.148 198.255 318.543 198.279C317.84 198.307 317.173 198.362 316.541 198.446C315.899 198.52 315.384 198.604 314.997 198.697C315.058 198.519 315.103 198.288 315.131 198.003C315.17 197.757 315.197 197.438 315.211 197.047C315.224 196.646 315.219 196.152 315.196 195.567C315.178 195.099 315.142 194.567 315.09 193.973C315.037 193.369 314.956 192.693 314.848 191.945Z" fill="#B7F631"/>
<path id="O" d="M333.31 171.035C334.671 171.626 335.886 172.334 336.955 173.159C338.014 173.981 338.857 174.895 339.485 175.902C340.104 176.905 340.462 177.992 340.561 179.164C340.672 180.33 340.448 181.558 339.888 182.848C339.332 184.129 338.588 185.131 337.657 185.855C336.738 186.574 335.699 187.055 334.54 187.297C333.376 187.527 332.132 187.535 330.808 187.323C329.476 187.106 328.129 186.703 326.767 186.112C325.764 185.676 324.837 185.162 323.987 184.57C323.137 183.978 322.381 183.341 321.718 182.659C321.056 181.978 320.494 181.26 320.033 180.507C319.573 179.753 319.23 178.998 319.005 178.24C318.775 177.47 318.666 176.715 318.679 175.975C318.695 175.226 318.849 174.516 319.14 173.844C319.63 172.715 320.353 171.81 321.309 171.128C322.26 170.434 323.365 169.971 324.626 169.741C325.89 169.502 327.262 169.491 328.744 169.708C330.229 169.916 331.751 170.358 333.31 171.035ZM329.769 176.029C329.097 175.738 328.456 175.523 327.845 175.386C327.225 175.244 326.668 175.178 326.174 175.188C325.675 175.184 325.255 175.257 324.913 175.407C324.563 175.553 324.327 175.765 324.206 176.042C324.09 176.311 324.122 176.629 324.304 176.995C324.477 177.357 324.746 177.73 325.113 178.112C325.483 178.486 325.922 178.847 326.431 179.195C326.94 179.544 327.467 179.837 328.014 180.074C328.542 180.303 329.055 180.472 329.55 180.581C330.041 180.677 330.489 180.712 330.894 180.685C331.3 180.659 331.653 180.567 331.955 180.411C332.252 180.242 332.469 180.001 332.605 179.687C332.737 179.382 332.764 179.064 332.684 178.731C332.6 178.386 332.429 178.056 332.171 177.742C331.918 177.419 331.588 177.111 331.183 176.818C330.769 176.522 330.298 176.259 329.769 176.029Z" fill="#B7F631"/>
<path id="U" d="M341.481 147.624C342.045 148.621 342.79 149.759 343.714 151.038C344.639 152.317 345.688 153.636 346.863 154.996C347.029 155.188 347.192 155.377 347.351 155.561C347.512 155.732 347.679 155.911 347.852 156.096C348.026 156.282 348.202 156.478 348.381 156.685C348.567 156.886 348.762 157.104 348.966 157.341C349.394 157.836 349.828 158.383 350.269 158.983C350.718 159.577 351.111 160.211 351.449 160.887C351.788 161.563 352.051 162.271 352.239 163.011C352.421 163.745 352.463 164.496 352.366 165.264C352.269 166.018 352.002 166.785 351.565 167.563C351.133 168.348 350.474 169.124 349.588 169.89C348.753 170.612 347.949 171.138 347.177 171.47C346.419 171.802 345.689 171.988 344.987 172.026C344.286 172.051 343.614 171.954 342.972 171.734C342.331 171.514 341.719 171.21 341.139 170.821C340.551 170.425 339.992 169.973 339.462 169.463C338.939 168.947 338.441 168.416 337.968 167.869C337.758 167.625 337.582 167.422 337.442 167.259C337.302 167.083 337.179 166.925 337.071 166.786C336.957 166.639 336.843 166.492 336.729 166.345C336.615 166.199 336.479 166.026 336.321 165.827C336.162 165.629 335.965 165.393 335.728 165.12C335.499 164.84 335.209 164.497 334.858 164.09C334.431 163.595 333.934 163.043 333.369 162.434C332.812 161.819 332.242 161.234 331.659 160.679C331.07 160.117 330.503 159.632 329.958 159.225C329.414 158.805 328.945 158.546 328.551 158.448C329.412 157.936 330.187 157.421 330.875 156.904C331.571 156.38 332.196 155.878 332.751 155.399C333.105 155.093 333.42 154.808 333.696 154.544C333.971 154.28 334.206 154.052 334.4 153.858C334.625 153.625 334.816 153.421 334.975 153.246C335.274 153.787 335.622 154.384 336.018 155.035C336.413 155.687 336.855 156.371 337.343 157.085C337.831 157.799 338.358 158.537 338.926 159.298C339.501 160.053 340.108 160.8 340.746 161.539C341.544 162.463 342.207 163.2 342.735 163.751C343.269 164.295 343.714 164.698 344.069 164.96C344.418 165.214 344.702 165.349 344.922 165.365C345.143 165.381 345.338 165.315 345.508 165.168C345.737 164.971 345.868 164.734 345.902 164.46C345.937 164.172 345.86 163.813 345.669 163.384C345.48 162.94 345.165 162.419 344.724 161.819C344.291 161.213 343.714 160.485 342.993 159.636C341.938 158.445 340.93 157.353 339.971 156.363C339.566 155.938 339.146 155.52 338.713 155.108C338.286 154.689 337.871 154.305 337.467 153.957C337.071 153.603 336.698 153.299 336.35 153.045C335.995 152.784 335.69 152.602 335.434 152.5C336.288 151.995 337.048 151.493 337.714 150.995C338.381 150.496 338.965 150.03 339.468 149.596C339.8 149.309 340.09 149.046 340.335 148.808C340.589 148.563 340.801 148.354 340.973 148.179C341.168 147.972 341.338 147.787 341.481 147.624Z" fill="#B7F631"/>
<path id="D" d="M390.849 152.041C390.556 153.606 390.132 154.917 389.576 155.976C389.02 157.034 388.386 157.904 387.672 158.585C386.96 159.256 386.199 159.765 385.39 160.11C384.582 160.446 383.778 160.678 382.979 160.806C382.191 160.927 381.434 160.964 380.708 160.918C379.981 160.871 379.345 160.797 378.797 160.694C377.866 160.52 377.076 160.337 376.426 160.146C375.784 159.966 375.247 159.836 374.815 159.755C374.326 159.663 373.782 159.572 373.183 159.479C372.584 159.387 371.948 159.308 371.275 159.241C371.622 158.82 371.946 158.339 372.246 157.799C372.557 157.251 372.844 156.674 373.106 156.067C373.369 155.461 373.608 154.845 373.825 154.22C374.052 153.587 374.257 152.974 374.437 152.382C374.856 150.99 375.216 149.547 375.515 148.053C375.775 146.562 375.964 145.152 376.084 143.823C376.13 143.255 376.163 142.685 376.18 142.112C376.21 141.532 376.213 140.981 376.192 140.46C376.172 139.93 376.118 139.448 376.03 139.014C375.952 138.582 375.83 138.227 375.663 137.947C376.352 138.195 377.01 138.398 377.636 138.555C378.272 138.714 378.835 138.839 379.324 138.93C379.641 138.99 379.95 139.038 380.251 139.074C380.552 139.111 380.863 139.149 381.184 139.189C381.504 139.229 381.843 139.273 382.202 139.32C382.571 139.369 382.98 139.436 383.431 139.52C384.084 139.643 384.762 139.819 385.463 140.05C386.177 140.273 386.854 140.583 387.495 140.981C388.145 141.381 388.741 141.885 389.283 142.493C389.825 143.102 390.261 143.849 390.592 144.735C390.923 145.622 391.12 146.667 391.183 147.871C391.257 149.067 391.146 150.457 390.849 152.041ZM383.868 150.407C384.078 149.283 384.219 148.341 384.292 147.58C384.365 146.819 384.377 146.2 384.327 145.724C384.288 145.239 384.191 144.883 384.035 144.656C383.879 144.428 383.676 144.29 383.427 144.244C383.206 144.202 382.983 144.28 382.757 144.476C382.543 144.664 382.327 144.997 382.109 145.472C381.89 145.948 381.674 146.573 381.46 147.348C381.247 148.113 381.036 149.052 380.828 150.165C380.609 151.336 380.454 152.321 380.364 153.119C380.286 153.909 380.26 154.55 380.288 155.042C380.324 155.536 380.41 155.899 380.545 156.133C380.692 156.359 380.885 156.495 381.125 156.54C381.595 156.628 382.066 156.184 382.536 155.209C383.007 154.234 383.451 152.633 383.868 150.407Z" fill="#B7F631"/>
<path id="O_2" d="M408.244 164.343C407.365 165.539 406.404 166.566 405.361 167.424C404.325 168.274 403.246 168.893 402.124 169.281C401.009 169.661 399.869 169.768 398.705 169.604C397.544 169.453 396.396 168.961 395.263 168.128C394.138 167.301 393.326 166.353 392.827 165.283C392.331 164.228 392.093 163.108 392.115 161.924C392.151 160.738 392.419 159.523 392.921 158.28C393.428 157.029 394.122 155.806 395.001 154.61C395.649 153.728 396.356 152.939 397.123 152.242C397.889 151.545 398.678 150.95 399.49 150.456C400.302 149.961 401.126 149.574 401.963 149.292C402.801 149.011 403.613 148.844 404.402 148.794C405.204 148.741 405.965 148.803 406.683 148.98C407.41 149.162 408.068 149.47 408.658 149.904C409.65 150.633 410.371 151.539 410.823 152.623C411.289 153.704 411.493 154.885 411.437 156.165C411.389 157.45 411.095 158.791 410.553 160.187C410.02 161.589 409.25 162.974 408.244 164.343ZM404.162 159.78C404.596 159.19 404.948 158.612 405.218 158.047C405.494 157.474 405.682 156.946 405.783 156.463C405.897 155.977 405.92 155.551 405.85 155.184C405.785 154.81 405.631 154.533 405.387 154.354C405.151 154.18 404.835 154.142 404.437 154.237C404.045 154.325 403.622 154.505 403.168 154.777C402.721 155.055 402.271 155.403 401.818 155.821C401.365 156.24 400.963 156.689 400.61 157.169C400.269 157.633 399.99 158.095 399.773 158.554C399.571 159.011 399.437 159.44 399.373 159.841C399.308 160.242 399.319 160.607 399.404 160.936C399.503 161.264 399.69 161.528 399.965 161.731C400.233 161.928 400.538 162.024 400.879 162.021C401.235 162.016 401.594 161.922 401.958 161.741C402.329 161.565 402.703 161.313 403.078 160.983C403.46 160.645 403.821 160.244 404.162 159.78Z" fill="#B7F631"/>
<path id="Y_2" d="M432.144 203.364C431.826 203.249 431.466 203.151 431.062 203.069C430.658 202.987 430.235 202.916 429.793 202.855C429.351 202.804 428.895 202.764 428.425 202.733C427.964 202.703 427.519 202.681 427.088 202.669C426.06 202.631 425.005 202.624 423.921 202.647C423.443 202.666 422.95 202.69 422.443 202.72C421.946 202.749 421.438 202.774 420.921 202.794C420.102 202.827 419.276 202.83 418.444 202.804C417.612 202.778 416.812 202.682 416.043 202.517C415.274 202.352 414.551 202.092 413.872 201.738C413.194 201.383 412.598 200.889 412.084 200.254C411.571 199.629 411.154 198.844 410.833 197.899C410.513 196.964 410.326 195.823 410.273 194.476C410.233 193.452 410.325 192.559 410.549 191.797C410.764 191.046 411.071 190.418 411.472 189.914C411.882 189.419 412.361 189.043 412.908 188.787C413.465 188.54 414.056 188.405 414.68 188.38C415.149 188.362 415.592 188.442 416.009 188.621C416.427 188.8 416.788 189.045 417.094 189.355C417.409 189.675 417.658 190.042 417.841 190.455C418.033 190.877 418.138 191.313 418.156 191.762C418.179 192.337 418.049 192.9 417.768 193.448C417.486 193.997 417.017 194.489 416.36 194.926C416.375 194.818 416.386 194.71 416.391 194.602C416.397 194.504 416.398 194.411 416.395 194.323C416.367 193.621 416.051 193.281 415.446 193.305C415.163 193.316 414.939 193.452 414.773 193.713C414.608 193.983 414.534 194.338 414.551 194.777C414.572 195.314 414.731 195.737 415.026 196.048C415.322 196.369 415.688 196.609 416.125 196.767C416.561 196.926 417.034 197.025 417.544 197.063C418.063 197.102 418.557 197.111 419.025 197.093L419.655 197.068C419.452 196.89 419.288 196.677 419.161 196.428C419.043 196.178 418.945 195.923 418.867 195.663C418.798 195.401 418.749 195.149 418.719 194.906C418.69 194.663 418.673 194.458 418.666 194.292C418.643 193.707 418.698 193.114 418.83 192.512C418.963 191.92 419.235 191.372 419.645 190.867C420.056 190.372 420.635 189.954 421.384 189.612C422.143 189.269 423.131 189.054 424.35 188.967C424.398 188.965 424.584 188.953 424.905 188.93C425.237 188.917 425.641 188.882 426.118 188.824C426.604 188.776 427.134 188.701 427.707 188.6C428.28 188.509 428.842 188.385 429.393 188.226C429.944 188.077 430.45 187.891 430.91 187.668C431.38 187.454 431.746 187.195 432.008 186.892C431.873 187.933 431.783 188.86 431.737 189.673C431.7 190.495 431.695 191.214 431.719 191.829C431.738 192.307 431.764 192.721 431.797 193.072C431.841 193.432 431.886 193.728 431.935 193.96C431.984 194.232 432.042 194.464 432.109 194.657C431.707 194.624 431.28 194.587 430.829 194.546C430.388 194.515 429.937 194.484 429.477 194.453C429.026 194.432 428.571 194.415 428.111 194.404C427.652 194.403 427.208 194.411 426.778 194.427C426.29 194.447 425.832 194.484 425.405 194.54C424.987 194.596 424.618 194.674 424.3 194.774C423.991 194.884 423.747 195.016 423.568 195.17C423.398 195.333 423.318 195.526 423.327 195.751C423.337 196.024 423.493 196.248 423.793 196.421C424.103 196.605 424.499 196.745 424.982 196.844C425.475 196.942 426.024 197.003 426.631 197.028C427.238 197.053 427.844 197.054 428.449 197.03C429.152 197.002 429.819 196.946 430.451 196.863C431.093 196.789 431.608 196.705 431.995 196.612C431.934 196.79 431.889 197.021 431.861 197.306C431.822 197.552 431.795 197.87 431.782 198.262C431.768 198.663 431.773 199.156 431.796 199.742C431.814 200.21 431.85 200.742 431.903 201.336C431.956 201.939 432.036 202.616 432.144 203.364Z" fill="#B7F631"/>
<path id="O_3" d="M413.58 224.101C412.218 223.51 411.003 222.802 409.935 221.976C408.876 221.155 408.032 220.24 407.405 219.234C406.786 218.231 406.427 217.143 406.329 215.972C406.217 214.806 406.442 213.578 407.002 212.288C407.557 211.007 408.301 210.004 409.233 209.28C410.152 208.561 411.191 208.081 412.35 207.838C413.514 207.609 414.758 207.601 416.081 207.813C417.414 208.029 418.761 208.433 420.123 209.024C421.126 209.459 422.053 209.973 422.903 210.566C423.753 211.158 424.509 211.795 425.172 212.476C425.834 213.158 426.396 213.875 426.856 214.629C427.317 215.382 427.66 216.138 427.885 216.895C428.115 217.666 428.223 218.421 428.211 219.161C428.195 219.91 428.041 220.62 427.749 221.292C427.259 222.421 426.537 223.326 425.581 224.008C424.63 224.702 423.524 225.164 422.264 225.395C421 225.634 419.627 225.645 418.146 225.428C416.661 225.22 415.139 224.777 413.58 224.101ZM417.121 219.107C417.792 219.398 418.434 219.613 419.045 219.75C419.665 219.891 420.222 219.957 420.716 219.948C421.214 219.952 421.635 219.879 421.976 219.729C422.327 219.583 422.563 219.371 422.683 219.093C422.8 218.825 422.767 218.507 422.586 218.141C422.413 217.778 422.143 217.406 421.777 217.023C421.407 216.65 420.967 216.289 420.459 215.94C419.95 215.592 419.422 215.299 418.876 215.062C418.347 214.832 417.835 214.663 417.339 214.555C416.849 214.459 416.401 214.424 415.995 214.451C415.59 214.477 415.236 214.568 414.934 214.725C414.637 214.894 414.421 215.135 414.285 215.449C414.153 215.753 414.126 216.072 414.205 216.404C414.29 216.75 414.461 217.079 414.718 217.393C414.972 217.716 415.301 218.024 415.707 218.317C416.121 218.614 416.592 218.877 417.121 219.107Z" fill="#B7F631"/>
<path id="U_2" d="M405.409 247.511C404.844 246.515 404.1 245.377 403.175 244.098C402.251 242.819 401.201 241.499 400.027 240.139C399.861 239.947 399.698 239.759 399.538 239.574C399.378 239.403 399.211 239.225 399.037 239.039C398.864 238.853 398.688 238.657 398.509 238.45C398.323 238.25 398.128 238.031 397.923 237.795C397.496 237.3 397.061 236.752 396.62 236.152C396.172 235.559 395.779 234.924 395.44 234.249C395.102 233.573 394.839 232.865 394.65 232.124C394.468 231.391 394.426 230.64 394.524 229.872C394.62 229.117 394.888 228.351 395.325 227.573C395.756 226.787 396.415 226.011 397.302 225.245C398.137 224.524 398.941 223.997 399.712 223.666C400.471 223.333 401.201 223.148 401.903 223.109C402.604 223.084 403.275 223.182 403.917 223.401C404.559 223.621 405.17 223.926 405.751 224.314C406.338 224.71 406.897 225.163 407.428 225.672C407.951 226.188 408.449 226.72 408.921 227.267C409.132 227.51 409.308 227.714 409.448 227.876C409.588 228.052 409.711 228.21 409.819 228.35C409.932 228.497 410.046 228.643 410.16 228.79C410.274 228.937 410.41 229.11 410.569 229.308C410.728 229.507 410.925 229.743 411.161 230.016C411.39 230.296 411.68 230.639 412.031 231.045C412.459 231.54 412.955 232.092 413.52 232.701C414.078 233.317 414.648 233.902 415.23 234.457C415.819 235.019 416.386 235.503 416.931 235.91C417.475 236.331 417.945 236.59 418.339 236.688C417.478 237.2 416.703 237.714 416.014 238.232C415.318 238.756 414.693 239.257 414.139 239.736C413.784 240.042 413.469 240.328 413.194 240.591C412.918 240.855 412.684 241.084 412.489 241.277C412.265 241.51 412.073 241.714 411.915 241.89C411.615 241.349 411.268 240.752 410.872 240.1C410.477 239.448 410.035 238.765 409.547 238.051C409.059 237.337 408.531 236.599 407.964 235.837C407.389 235.082 406.782 234.335 406.144 233.596C405.345 232.673 404.683 231.935 404.155 231.385C403.62 230.84 403.175 230.437 402.82 230.176C402.472 229.922 402.188 229.787 401.967 229.771C401.747 229.755 401.552 229.82 401.382 229.967C401.153 230.165 401.021 230.401 400.987 230.676C400.952 230.964 401.03 231.323 401.22 231.752C401.41 232.195 401.725 232.717 402.165 233.316C402.599 233.923 403.176 234.65 403.896 235.499C404.952 236.691 405.959 237.782 406.919 238.773C407.324 239.197 407.743 239.616 408.177 240.028C408.603 240.447 409.019 240.83 409.423 241.178C409.819 241.533 410.191 241.837 410.54 242.091C410.895 242.352 411.2 242.533 411.456 242.635C410.602 243.141 409.842 243.642 409.175 244.141C408.509 244.639 407.924 245.105 407.422 245.54C407.089 245.827 406.8 246.09 406.554 246.328C406.301 246.572 406.088 246.782 405.916 246.956C405.721 247.164 405.552 247.349 405.409 247.511Z" fill="#B7F631"/>
<g id="cross-eyes" clip-path="url(#clip0_149_1088)">
<g id="Page-1">
<g id="Dribbble-Light-Preview">
<g id="icons">
<path id="emoji_happy_simple-[#452]" fill-rule="evenodd" clip-rule="evenodd" d="M360.192 204.29L353.876 201.931C346.698 221.148 378.275 232.944 385.454 213.727L379.138 211.368C374.353 224.179 355.406 217.101 360.192 204.29ZM399.476 196.621L396.703 190.425L389.27 193.877L385.922 186.398L379.765 189.258L383.113 196.739L375.681 200.192L378.454 206.388L385.887 202.936L389.235 210.416L395.392 207.555L392.043 200.075L399.476 196.621ZM366.781 190.639L370.129 198.118L363.973 200.979L360.624 193.499L353.192 196.952L350.419 190.755L357.851 187.303L354.503 179.821L360.66 176.961L364.008 184.441L371.44 180.988L374.214 187.184L366.781 190.639Z" fill="black"/>
</g>
</g>
</g>
</g>
</g>
</g>
</g>
<g id="window">
<g id="Group 5618">
<g id="background">
<rect id="bottom" x="14.9839" y="114.325" width="140.706" height="150.553" transform="rotate(-15.0083 14.9839 114.325)" fill="#010101"/>
<rect id="top" y="58.437" width="140.706" height="121.903" rx="60.9513" transform="rotate(-15.0083 0 58.437)" fill="#010101"/>
</g>
<rect id="yellow-box" x="30.9277" y="121.131" width="116.707" height="125.154" transform="rotate(-15.0083 30.9277 121.131)" stroke="#F2F547" stroke-width="4"/>
<rect id="Rectangle 695" x="18.0732" y="73.1871" width="116.707" height="100.576" rx="50.2882" transform="rotate(-15.0083 18.0732 73.1871)" stroke="#F2F547" stroke-width="4"/>
</g>
<path id="bubble-plant" d="M66.9326 169.969C71.5168 168.74 75.3034 166.143 77.8591 162.869L105.451 176.138L118.459 224.654C118.612 225.226 119.278 225.548 119.944 225.369C120.611 225.19 121.03 224.578 120.876 224.006L113.354 195.948C113.372 195.921 113.399 195.906 113.426 195.879L129.597 172.172C133.442 173.729 138.026 174.085 142.605 172.857C152.641 170.166 158.922 160.956 156.608 152.325C154.295 143.696 144.249 138.863 134.213 141.554C124.181 144.243 117.901 153.454 120.214 162.082C121.27 166.022 123.952 169.16 127.496 171.162L112.574 193.039L94.5289 125.733C103.86 122.656 109.56 113.863 107.34 105.581C105.026 96.9519 94.9804 92.1187 84.9411 94.8103C74.9064 97.5007 68.6213 106.71 70.9355 115.341C73.1549 123.619 82.4949 128.384 92.1112 126.382L104.665 173.206L79.1736 160.946C81.2439 157.44 81.9954 153.379 80.9395 149.441C78.6265 140.813 68.5783 135.983 58.5427 138.673C48.5079 141.364 42.2265 150.572 44.5396 159.2C46.852 167.826 56.9001 172.659 66.9326 169.969Z" fill="#E86322"/>
<path id="pink-star" d="M77.7558 62.9992L91.204 93.1501L106.063 63.669L101.076 96.3041L129.515 79.5365L107.675 104.295L140.665 105.564L108.907 114.585L135.973 133.488L104.38 123.907L116.93 154.443L95.5319 129.302L89.5804 161.775L85.1713 129.057L62.6083 153.158L76.588 123.249L44.577 131.326L72.5071 113.723L41.2114 103.211L74.2242 103.503L53.58 77.7399L81.1941 95.8338L77.7558 62.9992Z" fill="#ECA2DB"/>
</g>
<path id="sparkle" d="M86.4967 0C84.33 10.1177 79.9791 21.2482 73.6115 27.6145C67.2449 33.9762 56.1175 38.3357 46 40.5021C56.1175 42.6731 67.2449 47.0192 73.6115 53.3896C79.9791 59.7554 84.3387 70.8772 86.5054 81C88.67 70.8772 93.0229 59.7559 99.3926 53.3855C105.755 47.0197 116.885 42.6643 127 40.4938C116.885 38.331 105.755 33.9767 99.3885 27.6104C93.0229 21.2487 88.6613 10.1182 86.4967 0Z" fill="#F2F547"/>
<g id="sparkle_2">
<path d="M210.637 155.463C212.349 152.527 214.796 149.535 217.311 148.29C219.825 147.046 223.491 147.007 226.631 147.54C223.958 145.637 221.228 142.925 220.085 140.147C218.94 137.369 218.884 133.331 219.351 129.872C217.64 132.81 215.192 135.8 212.677 137.046C210.164 138.291 206.497 138.328 203.357 137.797C206.031 139.697 208.76 142.412 209.904 145.189C211.049 147.965 211.104 152.006 210.637 155.463Z" fill="#0E0E0E"/>
<path d="M210.637 155.463C212.349 152.527 214.796 149.535 217.311 148.29C219.825 147.046 223.491 147.007 226.631 147.54C223.958 145.637 221.228 142.925 220.085 140.147C218.94 137.369 218.884 133.331 219.351 129.872C217.64 132.81 215.192 135.8 212.677 137.046C210.164 138.291 206.497 138.328 203.357 137.797C206.031 139.697 208.76 142.412 209.904 145.189C211.049 147.965 211.104 152.006 210.637 155.463Z" stroke="black"/>
</g>
</g>
</g>
<defs>
<clipPath id="clip0_149_1088">
<rect width="48.0084" height="48.0084" fill="white" transform="translate(357.395 172.08) rotate(20.4836)"/>
</clipPath>
</defs>
</svg>
