<svg width="1440" height="457" viewBox="0 0 1440 457" fill="none" xmlns="http://www.w3.org/2000/svg">
<g id="kolajv1">
<g id="heart">
<g id="heart-shape">
<path d="M1088.56 104.387C1073.57 104.513 1060.21 111.022 1051.93 120.905C1043.49 111.162 1030.02 104.878 1015.03 105.004C989.616 105.218 969.153 123.563 969.341 146.024C969.414 154.674 971.054 162.657 973.849 170.049C987.236 206.284 1027.74 227.679 1047.74 233.472C1050.57 234.321 1055.2 234.282 1058.01 233.386C1077.91 227.258 1118.05 205.185 1130.83 168.73C1133.5 161.293 1135.01 153.284 1134.93 144.634C1134.74 122.172 1113.98 104.173 1088.56 104.387Z" fill="#E86322"/>
<path d="M1088.56 104.387C1073.57 104.513 1060.21 111.022 1051.93 120.905C1043.49 111.162 1030.02 104.878 1015.03 105.004C989.616 105.218 969.153 123.563 969.341 146.024C969.414 154.674 971.054 162.657 973.849 170.049C987.236 206.284 1027.74 227.679 1047.74 233.472C1050.57 234.321 1055.2 234.282 1058.01 233.386C1077.91 227.258 1118.05 205.185 1130.83 168.73C1133.5 161.293 1135.01 153.284 1134.93 144.634C1134.74 122.172 1113.98 104.173 1088.56 104.387Z" stroke="#D0B6F5"/>
</g>
<path id="heart-left-eye" d="M1040.28 154.554C1040.35 163.536 1032.72 170.928 1023.17 171.008C1013.62 171.088 1005.86 163.826 1005.78 154.844C1005.71 145.862 1013.34 138.471 1022.89 138.39C1032.44 138.31 1040.2 145.572 1040.28 154.554Z" fill="#FBF7F7" stroke="#D0B6F5"/>
<path id="heart-left-eye_2" d="M1035.21 154.693C1035.26 161.076 1029.83 166.341 1023.03 166.398C1016.22 166.456 1010.71 161.282 1010.65 154.899C1010.6 148.517 1016.03 143.251 1022.83 143.194C1029.64 143.137 1035.15 148.311 1035.21 154.693Z" fill="black" stroke="#D0B6F5"/>
<path id="heart-right-eye" d="M1095.64 154.089C1095.72 163.071 1088.08 170.463 1078.53 170.543C1068.98 170.623 1061.23 163.361 1061.15 154.379C1061.08 145.397 1068.71 138.006 1078.26 137.926C1087.81 137.845 1095.57 145.108 1095.64 154.089Z" fill="#FBF7F7" stroke="#D0B6F5"/>
<path id="heart-left-eye_3" d="M1090.57 154.228C1090.63 160.61 1085.2 165.876 1078.39 165.933C1071.59 165.99 1066.07 160.817 1066.02 154.434C1065.97 148.051 1071.39 142.786 1078.2 142.729C1085 142.671 1090.52 147.845 1090.57 154.228Z" fill="black" stroke="#D0B6F5"/>
</g>
<g id="star">
<path id="star-outer" d="M750.016 56.3603L700.97 122.673L674.595 48.1186L663.227 124.697L599.865 109.495L640.444 155.288L582.662 172.124L634.752 185.766L602.896 226.28L645.829 211.544L624.315 262.352L675.017 217.298L696.004 280.237L711.183 219.668L755.625 257.467L739.154 189.943L786.862 173.921L746.564 150.952L779.171 110.48L736.777 125.113L750.016 56.3603Z" fill="#E9E6DF"/>
<path id="star-middle" d="M736.026 79.176L697.311 131.499L676.499 72.6778L667.522 133.097L617.512 121.107L649.538 157.235L603.931 170.522L645.044 181.282L619.898 213.249L653.785 201.62L636.802 241.708L676.822 206.158L693.383 255.815L705.367 208.026L740.442 237.847L727.445 184.572L765.101 171.928L733.296 153.808L759.035 121.874L725.573 133.422L736.026 79.176Z" fill="#E8BD0F"/>
<path id="star-inner" d="M726.909 99.6695L695.897 141.553L679.235 94.4738L672.039 142.836L631.989 133.243L657.634 162.157L621.107 172.797L654.032 181.406L633.891 206.994L661.031 197.683L647.426 229.772L679.481 201.313L692.74 241.058L702.342 202.806L730.43 226.672L720.027 184.031L750.186 173.907L724.715 159.406L745.332 133.844L718.532 143.09L726.909 99.6695Z" fill="#E86322"/>
</g>
<g id="you-do-you-badge">
<g id="Group 5619">
<path id="badge" d="M1395.84 321.793L1430.63 306.483L1414.4 272.118L1440.67 244.668L1412.52 219.119L1426.27 183.706L1390.49 170.864L1389.64 132.88L1351.67 134.698L1336.34 99.9264L1301.96 116.128L1274.48 89.8628L1248.93 117.983L1213.5 104.221L1200.66 139.977L1162.66 140.815L1164.5 178.764L1141.17 198.352L1145.94 228.439L1119.67 255.889L1147.82 281.438L1134.07 316.85L1169.85 329.693L1170.7 367.677L1208.67 365.859L1224 400.63L1258.38 384.428L1285.86 410.694L1311.41 382.574L1346.84 396.336L1359.68 360.58L1397.68 359.742L1395.84 321.793Z" fill="black"/>
<g id="you-do-you-text">
<circle id="ellipse" cx="1273.59" cy="264.627" r="91.2441" transform="rotate(20.4836 1273.59 264.627)" fill="#D0B6F5"/>
<path id="Y" d="M1123.78 249.671C1124.73 250.015 1125.82 250.31 1127.03 250.555C1128.24 250.801 1129.51 251.014 1130.83 251.197C1132.16 251.35 1133.53 251.472 1134.94 251.563C1136.32 251.655 1137.66 251.72 1138.95 251.757C1142.03 251.87 1145.2 251.892 1148.45 251.822C1149.89 251.766 1151.36 251.693 1152.88 251.604C1154.38 251.516 1155.9 251.441 1157.45 251.38C1159.91 251.283 1162.39 251.274 1164.88 251.351C1167.38 251.429 1169.78 251.716 1172.08 252.211C1174.39 252.707 1176.56 253.486 1178.6 254.549C1180.63 255.613 1182.42 257.096 1183.96 259C1185.5 260.874 1186.75 263.229 1187.71 266.065C1188.67 268.871 1189.23 272.294 1189.39 276.334C1189.51 279.408 1189.24 282.087 1188.57 284.371C1187.92 286.624 1187 288.508 1185.8 290.021C1184.57 291.506 1183.13 292.633 1181.49 293.401C1179.82 294.141 1178.05 294.548 1176.17 294.622C1174.77 294.678 1173.44 294.437 1172.19 293.9C1170.93 293.363 1169.85 292.628 1168.93 291.697C1167.99 290.737 1167.24 289.638 1166.69 288.399C1166.11 287.131 1165.8 285.824 1165.75 284.478C1165.68 282.751 1166.07 281.064 1166.91 279.418C1167.75 277.772 1169.16 276.295 1171.13 274.986C1171.09 275.31 1171.06 275.634 1171.04 275.957C1171.02 276.251 1171.02 276.53 1171.03 276.793C1171.11 278.901 1172.06 279.919 1173.87 279.848C1174.72 279.814 1175.4 279.407 1175.89 278.625C1176.39 277.813 1176.61 276.749 1176.56 275.432C1176.5 273.822 1176.02 272.55 1175.13 271.618C1174.25 270.656 1173.15 269.937 1171.84 269.461C1170.53 268.984 1169.11 268.689 1167.58 268.573C1166.02 268.458 1164.54 268.429 1163.14 268.484L1161.25 268.558C1161.86 269.092 1162.35 269.732 1162.73 270.479C1163.08 271.227 1163.38 271.993 1163.61 272.775C1163.82 273.559 1163.97 274.315 1164.05 275.045C1164.14 275.774 1164.2 276.388 1164.21 276.886C1164.28 278.642 1164.12 280.422 1163.72 282.227C1163.32 284.001 1162.51 285.646 1161.28 287.16C1160.05 288.646 1158.31 289.902 1156.06 290.928C1153.78 291.956 1150.82 292.601 1147.16 292.862C1147.02 292.868 1146.46 292.904 1145.5 292.971C1144.5 293.011 1143.29 293.117 1141.86 293.291C1140.4 293.436 1138.81 293.66 1137.09 293.962C1135.37 294.235 1133.69 294.609 1132.03 295.085C1130.38 295.531 1128.86 296.089 1127.48 296.759C1126.07 297.401 1124.97 298.178 1124.19 299.088C1124.59 295.964 1124.86 293.183 1125 290.744C1125.11 288.277 1125.13 286.121 1125.06 284.277C1125 282.842 1124.92 281.599 1124.82 280.548C1124.69 279.468 1124.55 278.579 1124.41 277.881C1124.26 277.066 1124.09 276.369 1123.89 275.791C1125.09 275.89 1126.37 276.001 1127.73 276.123C1129.05 276.218 1130.4 276.311 1131.78 276.404C1133.13 276.468 1134.5 276.516 1135.88 276.55C1137.26 276.554 1138.59 276.531 1139.88 276.481C1141.34 276.423 1142.72 276.31 1144 276.142C1145.25 275.976 1146.36 275.742 1147.31 275.44C1148.24 275.11 1148.97 274.715 1149.51 274.254C1150.02 273.765 1150.26 273.184 1150.23 272.51C1150.2 271.691 1149.73 271.02 1148.83 270.499C1147.9 269.949 1146.71 269.526 1145.27 269.232C1143.79 268.938 1142.14 268.754 1140.32 268.679C1138.5 268.604 1136.68 268.602 1134.86 268.674C1132.76 268.757 1130.76 268.924 1128.86 269.174C1126.93 269.397 1125.39 269.648 1124.23 269.928C1124.41 269.393 1124.55 268.699 1124.63 267.845C1124.75 267.108 1124.83 266.152 1124.87 264.977C1124.91 263.774 1124.89 262.294 1124.83 260.537C1124.77 259.132 1124.66 257.538 1124.5 255.756C1124.35 253.944 1124.1 251.916 1123.78 249.671Z" fill="#B7F631"/>
<path id="O" d="M1177.77 199.723C1181.86 201.496 1185.5 203.621 1188.71 206.097C1191.88 208.562 1194.41 211.305 1196.3 214.326C1198.15 217.335 1199.23 220.596 1199.53 224.11C1199.86 227.608 1199.19 231.292 1197.51 235.162C1195.84 239.005 1193.61 242.013 1190.81 244.185C1188.06 246.343 1184.94 247.784 1181.46 248.511C1177.97 249.199 1174.24 249.224 1170.27 248.587C1166.27 247.938 1162.23 246.727 1158.14 244.954C1155.13 243.648 1152.35 242.106 1149.8 240.329C1147.25 238.552 1144.98 236.641 1143 234.597C1141.01 232.553 1139.33 230.4 1137.94 228.14C1136.56 225.879 1135.53 223.613 1134.86 221.34C1134.17 219.029 1133.84 216.763 1133.88 214.544C1133.93 212.297 1134.39 210.166 1135.26 208.151C1136.73 204.764 1138.9 202.049 1141.77 200.004C1144.62 197.92 1147.94 196.533 1151.72 195.842C1155.51 195.125 1159.63 195.092 1164.07 195.743C1168.53 196.367 1173.1 197.694 1177.77 199.723ZM1167.15 214.707C1165.13 213.832 1163.21 213.188 1161.38 212.776C1159.52 212.352 1157.85 212.154 1156.37 212.182C1154.87 212.171 1153.61 212.391 1152.58 212.84C1151.53 213.278 1150.82 213.913 1150.46 214.746C1150.11 215.552 1150.21 216.505 1150.75 217.604C1151.27 218.691 1152.08 219.808 1153.18 220.956C1154.29 222.077 1155.61 223.16 1157.14 224.205C1158.66 225.251 1160.24 226.129 1161.88 226.841C1163.47 227.529 1165.01 228.036 1166.49 228.362C1167.97 228.65 1169.31 228.754 1170.53 228.675C1171.74 228.596 1172.8 228.322 1173.71 227.852C1174.6 227.345 1175.25 226.621 1175.66 225.68C1176.05 224.766 1176.13 223.811 1175.9 222.813C1175.64 221.777 1175.13 220.788 1174.36 219.846C1173.6 218.877 1172.61 217.953 1171.39 217.074C1170.15 216.184 1168.74 215.395 1167.15 214.707Z" fill="#B7F631"/>
<path id="U" d="M1194.65 139.75C1196.34 142.74 1198.58 146.154 1201.35 149.991C1204.12 153.828 1207.27 157.787 1210.8 161.866C1211.29 162.442 1211.78 163.007 1212.26 163.561C1212.74 164.074 1213.24 164.609 1213.76 165.167C1214.28 165.724 1214.81 166.313 1215.35 166.934C1215.91 167.535 1216.49 168.191 1217.11 168.9C1218.39 170.385 1219.69 172.028 1221.01 173.828C1222.36 175.608 1223.54 177.512 1224.56 179.538C1225.57 181.565 1226.36 183.689 1226.93 185.912C1227.47 188.112 1227.6 190.364 1227.3 192.669C1227.01 194.933 1226.21 197.232 1224.9 199.566C1223.61 201.923 1221.63 204.25 1218.97 206.549C1216.46 208.713 1214.05 210.292 1211.74 211.286C1209.46 212.284 1207.27 212.84 1205.17 212.957C1203.06 213.032 1201.05 212.739 1199.12 212.08C1197.2 211.42 1195.37 210.507 1193.62 209.341C1191.86 208.154 1190.18 206.795 1188.59 205.267C1187.02 203.719 1185.53 202.125 1184.11 200.484C1183.48 199.753 1182.95 199.143 1182.53 198.655C1182.11 198.126 1181.74 197.653 1181.42 197.235C1181.08 196.794 1180.74 196.354 1180.4 195.914C1180.05 195.473 1179.64 194.955 1179.17 194.36C1178.69 193.764 1178.1 193.056 1177.39 192.236C1176.71 191.397 1175.84 190.367 1174.78 189.148C1173.5 187.663 1172.01 186.007 1170.32 184.18C1168.64 182.334 1166.93 180.578 1165.18 178.914C1163.42 177.227 1161.72 175.774 1160.08 174.553C1158.45 173.292 1157.04 172.514 1155.86 172.22C1158.44 170.685 1160.77 169.141 1162.83 167.588C1164.92 166.016 1166.8 164.512 1168.46 163.076C1169.52 162.157 1170.47 161.301 1171.29 160.51C1172.12 159.719 1172.83 159.033 1173.41 158.452C1174.08 157.753 1174.66 157.141 1175.13 156.615C1176.03 158.238 1177.07 160.028 1178.26 161.984C1179.45 163.94 1180.77 165.989 1182.24 168.131C1183.7 170.274 1185.28 172.487 1186.99 174.772C1188.71 177.037 1190.53 179.278 1192.45 181.495C1194.84 184.266 1196.83 186.478 1198.41 188.13C1200.02 189.764 1201.35 190.972 1202.41 191.756C1203.46 192.518 1204.31 192.923 1204.97 192.971C1205.64 193.02 1206.22 192.823 1206.73 192.383C1207.42 191.789 1207.81 191.081 1207.91 190.257C1208.02 189.392 1207.79 188.316 1207.22 187.028C1206.65 185.699 1205.7 184.134 1204.38 182.335C1203.08 180.516 1201.35 178.333 1199.19 175.787C1196.02 172.212 1193 168.938 1190.12 165.965C1188.9 164.692 1187.65 163.437 1186.34 162.2C1185.07 160.943 1183.82 159.793 1182.61 158.749C1181.42 157.686 1180.3 156.774 1179.26 156.012C1178.19 155.228 1177.28 154.684 1176.51 154.379C1179.07 152.862 1181.35 151.357 1183.35 149.862C1185.35 148.367 1187.1 146.968 1188.61 145.665C1189.61 144.803 1190.48 144.015 1191.21 143.3C1191.97 142.567 1192.61 141.938 1193.13 141.415C1193.71 140.793 1194.22 140.238 1194.65 139.75Z" fill="#B7F631"/>
<path id="D" d="M1318.81 159.389C1317.93 164.083 1316.66 168.017 1314.99 171.192C1313.33 174.367 1311.42 176.977 1309.28 179.02C1307.15 181.035 1304.86 182.56 1302.43 183.595C1300.01 184.602 1297.6 185.298 1295.2 185.684C1292.84 186.047 1290.57 186.158 1288.39 186.018C1286.21 185.879 1284.3 185.655 1282.66 185.348C1279.86 184.825 1277.49 184.277 1275.54 183.703C1273.62 183.164 1272.01 182.773 1270.71 182.53C1269.24 182.256 1267.61 181.98 1265.81 181.703C1264.02 181.427 1262.11 181.189 1260.09 180.99C1261.13 179.724 1262.1 178.281 1263 176.661C1263.94 175.018 1264.8 173.286 1265.58 171.467C1266.37 169.647 1267.09 167.799 1267.74 165.924C1268.42 164.025 1269.03 162.187 1269.58 160.411C1270.83 156.235 1271.91 151.907 1272.81 147.425C1273.59 142.951 1274.16 138.72 1274.52 134.734C1274.66 133.031 1274.75 131.321 1274.81 129.602C1274.89 127.86 1274.91 126.208 1274.84 124.646C1274.78 123.055 1274.62 121.609 1274.36 120.308C1274.12 119.012 1273.75 117.945 1273.26 117.106C1275.32 117.851 1277.29 118.458 1279.17 118.929C1281.08 119.406 1282.77 119.781 1284.24 120.056C1285.19 120.234 1286.12 120.378 1287.02 120.487C1287.92 120.597 1288.85 120.712 1289.82 120.832C1290.78 120.952 1291.8 121.083 1292.87 121.225C1293.98 121.372 1295.21 121.573 1296.56 121.826C1298.52 122.193 1300.55 122.722 1302.66 123.414C1304.8 124.083 1306.83 125.015 1308.75 126.209C1310.7 127.409 1312.49 128.921 1314.11 130.745C1315.74 132.57 1317.05 134.812 1318.04 137.471C1319.03 140.131 1319.62 143.267 1319.81 146.879C1320.04 150.467 1319.7 154.637 1318.81 159.389ZM1297.87 154.485C1298.5 151.115 1298.92 148.289 1299.14 146.005C1299.36 143.721 1299.4 141.865 1299.25 140.436C1299.13 138.984 1298.84 137.916 1298.37 137.232C1297.9 136.548 1297.29 136.136 1296.54 135.996C1295.88 135.872 1295.21 136.104 1294.54 136.693C1293.89 137.258 1293.25 138.255 1292.59 139.682C1291.94 141.109 1291.29 142.985 1290.64 145.308C1290.01 147.603 1289.37 150.421 1288.75 153.761C1288.09 157.275 1287.63 160.228 1287.36 162.622C1287.12 164.992 1287.05 166.915 1287.13 168.391C1287.24 169.872 1287.5 170.963 1287.9 171.665C1288.34 172.343 1288.92 172.75 1289.64 172.885C1291.05 173.149 1292.46 171.818 1293.87 168.893C1295.29 165.968 1296.62 161.166 1297.87 154.485Z" fill="#B7F631"/>
<path id="O_2" d="M1359.13 191.103C1356.49 194.691 1353.61 197.771 1350.48 200.345C1347.37 202.894 1344.13 204.751 1340.77 205.914C1337.42 207.054 1334 207.377 1330.51 206.884C1327.03 206.431 1323.58 204.955 1320.19 202.457C1316.81 199.976 1314.37 197.131 1312.88 193.923C1311.39 190.755 1310.68 187.396 1310.74 183.844C1310.85 180.286 1311.65 176.643 1313.16 172.913C1314.68 169.16 1316.76 165.489 1319.4 161.901C1321.34 159.257 1323.46 156.89 1325.76 154.799C1328.06 152.709 1330.43 150.922 1332.87 149.439C1335.3 147.957 1337.77 146.793 1340.29 145.949C1342.8 145.104 1345.24 144.606 1347.6 144.454C1350.01 144.296 1352.29 144.482 1354.45 145.012C1356.62 145.559 1358.6 146.484 1360.37 147.785C1363.34 149.971 1365.51 152.69 1366.87 155.94C1368.26 159.185 1368.88 162.727 1368.71 166.567C1368.56 170.424 1367.68 174.446 1366.06 178.634C1364.46 182.839 1362.15 186.995 1359.13 191.103ZM1346.88 177.413C1348.18 175.642 1349.24 173.909 1350.05 172.214C1350.88 170.495 1351.44 168.91 1351.74 167.46C1352.09 166.003 1352.15 164.725 1351.94 163.626C1351.75 162.503 1351.29 161.672 1350.56 161.134C1349.85 160.614 1348.9 160.497 1347.71 160.784C1346.53 161.047 1345.26 161.587 1343.9 162.403C1342.56 163.236 1341.21 164.28 1339.85 165.536C1338.49 166.791 1337.28 168.139 1336.23 169.579C1335.2 170.971 1334.37 172.357 1333.72 173.734C1333.11 175.105 1332.71 176.392 1332.51 177.595C1332.32 178.799 1332.35 179.894 1332.61 180.882C1332.9 181.863 1333.47 182.658 1334.29 183.265C1335.09 183.855 1336.01 184.145 1337.03 184.135C1338.1 184.119 1339.18 183.839 1340.27 183.295C1341.38 182.769 1342.5 182.011 1343.63 181.021C1344.78 180.008 1345.86 178.805 1346.88 177.413Z" fill="#B7F631"/>
<path id="Y_2" d="M1419.19 286.152C1418.24 285.808 1417.16 285.514 1415.94 285.268C1414.73 285.023 1413.46 284.809 1412.14 284.627C1410.81 284.474 1409.44 284.351 1408.03 284.26C1406.65 284.168 1405.31 284.104 1404.02 284.067C1400.94 283.953 1397.77 283.931 1394.52 284.001C1393.09 284.057 1391.61 284.13 1390.09 284.219C1388.6 284.308 1387.07 284.382 1385.52 284.443C1383.06 284.54 1380.59 284.55 1378.09 284.472C1375.6 284.394 1373.19 284.108 1370.89 283.612C1368.58 283.117 1366.41 282.337 1364.37 281.274C1362.34 280.211 1360.55 278.727 1359.01 276.823C1357.47 274.949 1356.22 272.594 1355.26 269.758C1354.3 266.952 1353.74 263.529 1353.58 259.489C1353.46 256.416 1353.73 253.737 1354.4 251.453C1355.05 249.199 1355.97 247.315 1357.17 245.802C1358.4 244.317 1359.84 243.19 1361.48 242.422C1363.15 241.682 1364.93 241.275 1366.8 241.201C1368.2 241.146 1369.53 241.387 1370.79 241.924C1372.04 242.461 1373.12 243.195 1374.04 244.127C1374.99 245.086 1375.73 246.185 1376.28 247.425C1376.86 248.692 1377.17 249.999 1377.23 251.346C1377.29 253.073 1376.91 254.759 1376.06 256.405C1375.22 258.051 1373.81 259.528 1371.84 260.837C1371.88 260.513 1371.92 260.189 1371.93 259.866C1371.95 259.572 1371.95 259.294 1371.94 259.03C1371.86 256.922 1370.91 255.904 1369.1 255.976C1368.25 256.009 1367.57 256.417 1367.08 257.199C1366.58 258.01 1366.36 259.074 1366.41 260.391C1366.47 262.001 1366.95 263.273 1367.84 264.205C1368.73 265.167 1369.82 265.886 1371.13 266.363C1372.44 266.839 1373.86 267.135 1375.39 267.25C1376.95 267.365 1378.43 267.395 1379.83 267.339L1381.72 267.265C1381.12 266.732 1380.62 266.092 1380.24 265.344C1379.89 264.596 1379.59 263.83 1379.36 263.048C1379.15 262.265 1379 261.508 1378.92 260.779C1378.83 260.049 1378.78 259.435 1378.76 258.938C1378.69 257.181 1378.85 255.401 1379.25 253.597C1379.65 251.822 1380.46 250.177 1381.69 248.663C1382.93 247.178 1384.66 245.922 1386.91 244.895C1389.19 243.867 1392.15 243.223 1395.81 242.961C1395.95 242.956 1396.51 242.919 1397.47 242.852C1398.47 242.813 1399.68 242.706 1401.11 242.533C1402.57 242.387 1404.16 242.163 1405.88 241.861C1407.6 241.588 1409.28 241.214 1410.94 240.738C1412.59 240.292 1414.11 239.734 1415.49 239.064C1416.9 238.422 1418 237.646 1418.78 236.735C1418.38 239.859 1418.11 242.64 1417.97 245.079C1417.86 247.546 1417.84 249.702 1417.91 251.546C1417.97 252.981 1418.05 254.224 1418.15 255.275C1418.28 256.355 1418.42 257.244 1418.56 257.942C1418.71 258.757 1418.89 259.454 1419.08 260.032C1417.88 259.933 1416.6 259.822 1415.25 259.7C1413.92 259.605 1412.57 259.512 1411.19 259.42C1409.84 259.356 1408.47 259.307 1407.09 259.273C1405.71 259.269 1404.38 259.292 1403.09 259.343C1401.63 259.4 1400.26 259.513 1398.97 259.681C1397.72 259.848 1396.61 260.082 1395.66 260.383C1394.73 260.713 1394 261.108 1393.46 261.569C1392.95 262.058 1392.71 262.64 1392.74 263.313C1392.77 264.132 1393.24 264.803 1394.14 265.325C1395.07 265.875 1396.26 266.297 1397.7 266.592C1399.18 266.885 1400.83 267.07 1402.65 267.144C1404.47 267.219 1406.29 267.221 1408.11 267.15C1410.21 267.067 1412.22 266.9 1414.11 266.649C1416.04 266.427 1417.58 266.175 1418.74 265.895C1418.56 266.43 1418.43 267.124 1418.34 267.978C1418.22 268.716 1418.14 269.672 1418.1 270.846C1418.06 272.05 1418.08 273.53 1418.15 275.286C1418.2 276.691 1418.31 278.285 1418.47 280.067C1418.63 281.879 1418.87 283.907 1419.19 286.152Z" fill="#B7F631"/>
<path id="O_3" d="M1366 335.729C1361.92 333.956 1358.27 331.831 1355.07 329.354C1351.89 326.89 1349.36 324.147 1347.48 321.126C1345.62 318.117 1344.54 314.856 1344.25 311.342C1343.91 307.844 1344.59 304.16 1346.27 300.29C1347.93 296.446 1350.17 293.439 1352.96 291.266C1355.72 289.109 1358.83 287.667 1362.31 286.941C1365.8 286.253 1369.54 286.227 1373.51 286.865C1377.5 287.514 1381.55 288.725 1385.63 290.497C1388.64 291.804 1391.42 293.345 1393.97 295.123C1396.52 296.9 1398.79 298.811 1400.78 300.855C1402.76 302.899 1404.45 305.051 1405.83 307.312C1407.21 309.572 1408.24 311.839 1408.92 314.112C1409.61 316.423 1409.93 318.688 1409.9 320.908C1409.85 323.154 1409.38 325.285 1408.51 327.301C1407.04 330.687 1404.87 333.403 1402 335.448C1399.15 337.532 1395.84 338.919 1392.05 339.609C1388.26 340.327 1384.14 340.36 1379.7 339.709C1375.24 339.085 1370.68 337.758 1366 335.729ZM1376.62 320.745C1378.64 321.62 1380.56 322.263 1382.4 322.676C1384.26 323.099 1385.93 323.297 1387.41 323.27C1388.91 323.28 1390.17 323.061 1391.19 322.612C1392.24 322.174 1392.95 321.539 1393.31 320.706C1393.66 319.899 1393.56 318.947 1393.02 317.848C1392.5 316.761 1391.69 315.643 1390.59 314.496C1389.48 313.375 1388.16 312.292 1386.64 311.246C1385.11 310.201 1383.53 309.322 1381.89 308.611C1380.3 307.923 1378.77 307.416 1377.28 307.09C1375.81 306.802 1374.46 306.698 1373.25 306.777C1372.03 306.856 1370.97 307.13 1370.07 307.599C1369.17 308.107 1368.52 308.831 1368.12 309.772C1367.72 310.685 1367.64 311.641 1367.88 312.638C1368.13 313.674 1368.64 314.663 1369.42 315.605C1370.18 316.575 1371.17 317.498 1372.38 318.377C1373.62 319.268 1375.04 320.057 1376.62 320.745Z" fill="#B7F631"/>
<path id="U_2" d="M1349.12 395.701C1347.43 392.711 1345.2 389.298 1342.42 385.46C1339.65 381.623 1336.5 377.665 1332.98 373.586C1332.48 373.009 1331.99 372.444 1331.51 371.89C1331.03 371.377 1330.53 370.842 1330.01 370.285C1329.49 369.728 1328.96 369.139 1328.42 368.518C1327.87 367.916 1327.28 367.261 1326.67 366.551C1325.38 365.066 1324.08 363.424 1322.76 361.624C1321.41 359.843 1320.23 357.94 1319.22 355.913C1318.2 353.886 1317.41 351.762 1316.85 349.54C1316.3 347.34 1316.18 345.087 1316.47 342.782C1316.76 340.519 1317.56 338.22 1318.87 335.885C1320.17 333.529 1322.14 331.201 1324.8 328.903C1327.31 326.738 1329.72 325.159 1332.04 324.165C1334.31 323.168 1336.5 322.611 1338.61 322.495C1340.71 322.42 1342.72 322.712 1344.65 323.372C1346.57 324.032 1348.41 324.944 1350.15 326.11C1351.91 327.298 1353.59 328.656 1355.18 330.185C1356.75 331.732 1358.24 333.327 1359.66 334.967C1360.29 335.699 1360.82 336.308 1361.24 336.796C1361.66 337.325 1362.03 337.799 1362.35 338.217C1362.7 338.657 1363.04 339.098 1363.38 339.538C1363.72 339.978 1364.13 340.496 1364.61 341.092C1365.08 341.687 1365.67 342.395 1366.38 343.215C1367.07 344.055 1367.94 345.084 1368.99 346.303C1370.28 347.789 1371.76 349.445 1373.46 351.272C1375.13 353.118 1376.84 354.873 1378.59 356.538C1380.36 358.224 1382.06 359.678 1383.69 360.898C1385.32 362.16 1386.73 362.937 1387.91 363.231C1385.33 364.767 1383.01 366.311 1380.94 367.863C1378.85 369.435 1376.98 370.939 1375.31 372.376C1374.25 373.295 1373.31 374.15 1372.48 374.942C1371.65 375.733 1370.95 376.419 1370.37 377C1369.69 377.698 1369.12 378.31 1368.64 378.837C1367.74 377.213 1366.7 375.423 1365.51 373.467C1364.33 371.511 1363 369.462 1361.54 367.32C1360.07 365.178 1358.49 362.964 1356.79 360.68C1355.06 358.414 1353.24 356.173 1351.33 353.956C1348.93 351.185 1346.95 348.974 1345.36 347.321C1343.76 345.688 1342.42 344.479 1341.36 343.695C1340.31 342.933 1339.46 342.528 1338.8 342.48C1338.14 342.432 1337.55 342.628 1337.04 343.069C1336.36 343.662 1335.96 344.371 1335.86 345.194C1335.76 346.059 1335.99 347.135 1336.56 348.423C1337.13 349.753 1338.07 351.317 1339.39 353.117C1340.69 354.936 1342.43 357.118 1344.59 359.665C1347.75 363.24 1350.78 366.514 1353.65 369.486C1354.87 370.759 1356.13 372.014 1357.43 373.251C1358.71 374.508 1359.95 375.658 1361.17 376.702C1362.35 377.765 1363.47 378.677 1364.52 379.439C1365.58 380.223 1366.5 380.768 1367.26 381.073C1364.7 382.589 1362.42 384.095 1360.42 385.59C1358.42 387.085 1356.67 388.484 1355.16 389.786C1354.17 390.648 1353.3 391.436 1352.56 392.151C1351.8 392.885 1351.16 393.513 1350.65 394.036C1350.06 394.658 1349.55 395.213 1349.12 395.701Z" fill="#B7F631"/>
<g id="cross-eyes" clip-path="url(#clip0_146_769)">
<g id="Page-1">
<g id="Dribbble-Light-Preview">
<g id="icons">
<path id="emoji_happy_simple-[#452]" fill-rule="evenodd" clip-rule="evenodd" d="M1246.47 280.619L1234.36 276.094C1220.59 312.949 1281.15 335.572 1294.92 298.717L1282.81 294.193C1273.63 318.762 1237.29 305.188 1246.47 280.619ZM1321.81 265.91L1316.49 254.026L1302.24 260.648L1295.82 246.302L1284.01 251.788L1290.43 266.137L1276.18 272.759L1281.5 284.642L1295.75 278.021L1302.17 292.366L1313.98 286.88L1307.56 272.535L1321.81 265.91ZM1259.11 254.436L1265.53 268.782L1253.72 274.267L1247.3 259.922L1233.05 266.544L1227.73 254.66L1241.98 248.038L1235.56 233.69L1247.37 228.204L1253.79 242.549L1268.04 235.927L1273.36 247.811L1259.11 254.436Z" fill="black"/>
</g>
</g>
</g>
</g>
</g>
</g>
</g>
<g id="Group 5629">
<g id="window">
<g id="Group 5618">
<g id="background">
<rect id="bottom" x="36.3264" y="174.537" width="266" height="284.615" transform="rotate(-15.0083 36.3264 174.537)" fill="#010101"/>
<rect id="top" x="8" y="68.8831" width="266" height="230.453" rx="115.226" transform="rotate(-15.0083 8 68.8831)" fill="#010101"/>
</g>
<rect id="yellow-box" x="64.2861" y="186.146" width="224.193" height="240.162" transform="rotate(-15.0083 64.2861 186.146)" stroke="#F2F547" stroke-width="4"/>
<rect id="Rectangle 695" x="39.9858" y="95.5083" width="224.193" height="193.698" rx="96.8491" transform="rotate(-15.0083 39.9858 95.5083)" stroke="#F2F547" stroke-width="4"/>
</g>
<path id="bubble-plant" d="M134.534 279.73C143.2 277.407 150.359 272.498 155.19 266.309L207.352 291.392L231.942 383.111C232.232 384.192 233.492 384.8 234.751 384.462C236.01 384.124 236.802 382.967 236.512 381.886L222.291 328.843C222.327 328.792 222.377 328.763 222.428 328.713L252.999 283.895C260.268 286.839 268.933 287.511 277.59 285.19C296.563 280.104 308.437 262.692 304.062 246.375C299.689 230.062 280.697 220.926 261.724 226.012C242.761 231.097 230.887 248.508 235.26 264.821C237.257 272.268 242.327 278.202 249.027 281.985L220.817 323.344L186.704 196.104C204.344 190.286 215.12 173.664 210.923 158.008C206.549 141.694 187.557 132.557 168.578 137.646C149.608 142.732 137.726 160.141 142.101 176.459C146.297 192.108 163.954 201.116 182.133 197.33L205.866 285.849L157.675 262.673C161.589 256.045 163.01 248.367 161.014 240.922C156.641 224.612 137.645 215.48 118.673 220.567C99.7027 225.653 87.8278 243.061 92.2008 259.371C96.5723 275.68 115.568 284.815 134.534 279.73Z" fill="#E86322"/>
<path id="pink-star" d="M154.995 77.5078L180.418 134.507L208.509 78.7739L199.08 140.47L252.843 108.771L211.556 155.575L273.922 157.975L213.885 175.028L265.053 210.765L205.327 192.652L229.052 250.379L188.6 202.851L177.349 264.241L169.013 202.388L126.359 247.949L152.787 191.409L92.2713 206.677L145.072 173.4L85.9086 153.527L148.318 154.079L109.291 105.375L161.495 139.58L154.995 77.5078Z" fill="#ECA2DB"/>
</g>
<path id="sparkle" d="M35.4967 59C33.33 69.1177 28.9791 80.2482 22.6115 86.6145C16.2449 92.9762 5.11747 97.3357 -5 99.5021C5.11747 101.673 16.2449 106.019 22.6115 112.39C28.9791 118.755 33.3387 129.877 35.5054 140C37.67 129.877 42.0229 118.756 48.3926 112.385C54.7551 106.02 65.8846 101.664 76 99.4938C65.8851 97.331 54.7551 92.9767 48.3885 86.6104C42.0229 80.2487 37.6613 69.1182 35.4967 59Z" fill="#F2F547"/>
</g>
<g id="u-are-sticker">
<g id="peace-badge">
<path id="peace-badge-bg" d="M1027.98 267.482L1000 361.455L798.731 301.544L826.703 207.571C836.314 175.285 864.486 152.009 898.005 148.661L933.893 145.077C947.74 143.694 961.575 147.812 972.411 156.542L1000.5 179.169C1026.73 200.302 1037.59 235.195 1027.98 267.482Z" fill="black" stroke="#E8BD0F" stroke-width="6"/>
<g id="peace-sign">
<path id="Vector" d="M968.193 201.624C967.904 199.683 967.236 197.698 966 195.933C964.775 194.176 962.894 192.687 960.679 192.011C958.473 191.306 956.08 191.468 954.052 192.201C952.014 192.945 950.306 194.198 948.951 195.656C947.595 197.121 946.572 198.787 945.78 200.514C944.989 202.297 944.476 203.907 943.87 205.587L940.373 215.567L936.906 225.549C935.934 228.293 935.012 231.053 934.398 233.923C933.616 233.099 932.864 232.254 932.172 231.365C931.952 231.106 931.752 230.838 931.555 230.556C931.564 229.238 931.538 227.923 931.61 226.622C931.669 224.361 931.825 222.095 931.999 219.834C932.344 215.313 932.789 210.788 933.281 206.262L934.037 199.485L934.139 198.6C934.152 198.318 934.192 198.053 934.214 197.74C934.258 197.116 934.263 196.509 934.271 195.904C934.261 194.702 934.167 193.475 933.941 192.244C933.483 189.809 932.508 187.321 930.727 185.235C928.99 183.16 926.349 181.565 923.421 181.228C922.669 181.14 922.014 181.112 921.187 181.186C920.905 181.213 920.603 181.252 920.178 181.332C919.801 181.409 919.459 181.482 919.105 181.598C917.725 182.021 916.456 182.764 915.427 183.679C913.365 185.539 912.234 187.929 911.526 190.271C910.2 195.007 910.337 199.829 910.743 204.438C911.149 208.984 911.488 213.543 911.779 218.089C911.903 220.264 912.022 222.468 912.188 224.672C911.842 224.529 911.483 224.416 911.121 224.33C909.409 223.918 907.64 224.069 906.081 224.562C903.872 225.278 902.088 226.61 900.693 228.199C900.413 227.803 900.09 227.429 899.712 227.13C898.722 226.311 897.506 225.819 896.282 225.594C893.818 225.122 891.273 225.761 889.304 227.078C887.304 228.393 885.947 230.386 885.233 232.454C884.509 234.583 884.388 236.568 884.261 238.606C884.171 240.637 884.25 242.691 884.619 244.735C884.95 246.568 885.471 248.409 886.38 250.169C885.567 253.06 884.636 257.054 884.231 259.67C883.801 262.684 883.553 265.749 883.707 268.855C883.89 271.944 884.375 275.116 885.743 278.094C886.17 279.015 886.688 279.908 887.289 280.75C886.331 281.163 885.422 281.733 884.692 282.559C883.569 283.779 883.042 285.612 883.33 287.29C883.608 288.979 884.468 290.439 885.447 291.687C886.446 292.939 887.628 293.98 888.855 294.921C893.839 298.618 899.605 300.681 905.286 302.321C911.053 303.847 917.061 305.037 923.256 304.277C926.282 303.855 929.564 302.901 931.789 300.379C932.853 299.124 933.491 297.444 933.338 295.779C933.253 294.431 932.61 293.153 931.696 292.184C932.319 291.77 932.912 291.326 933.452 290.842C936.344 288.31 938.349 285.149 939.839 281.865C942.746 275.244 945.257 268.72 947.62 262.024C949.974 255.356 952.134 248.644 954.501 242.03C956.862 235.412 959.455 228.897 962.385 222.523C963.117 220.93 963.867 219.344 964.638 217.767C965.422 216.194 966.185 214.498 966.795 212.759C967.991 209.292 968.755 205.535 968.193 201.624ZM888.979 249.675C887.384 246.45 887.204 242.544 887.422 238.864C887.584 237.027 887.805 235.089 888.347 233.531C888.913 231.939 889.902 230.565 891.26 229.685C892.61 228.795 894.292 228.42 895.928 228.518C897.24 228.624 898.488 229.011 899.403 229.902C899.312 230.038 899.216 230.174 899.131 230.311C896.338 235.342 895.175 240.959 895.676 246.61C895.865 248.439 896.246 250.27 896.896 252.05C895.468 252.704 893.953 253.101 892.611 252.833C891.001 252.531 889.788 251.247 888.979 249.675ZM963.606 211.677C963.064 213.272 962.371 214.798 961.613 216.4C960.86 218.009 960.129 219.626 959.418 221.253C956.557 227.757 954.042 234.403 951.783 241.108C949.51 247.81 947.456 254.555 945.228 261.221C944.11 264.555 942.949 267.87 941.722 271.16C940.48 274.451 939.291 277.762 937.52 280.737C936.667 282.243 935.726 283.686 934.757 285.083C933.774 286.471 932.761 287.833 931.556 288.993C930.351 290.141 929.022 291.154 927.513 291.795C925.998 292.423 924.351 292.696 922.579 292.491L922.343 293.934C924.248 294.481 926.457 294.452 928.385 293.813C929.049 293.604 929.675 293.323 930.282 293.016C930.892 293.871 931.196 294.832 931.15 295.769C931.099 296.871 930.548 297.872 929.715 298.631C928.054 300.195 925.404 300.837 922.773 301.041C920.101 301.212 917.322 301.011 914.565 300.557C911.805 300.125 909.024 299.488 906.314 298.719C903.542 297.974 900.858 297.099 898.245 296.063C895.632 295.051 893.121 293.819 890.866 292.345C888.677 290.866 886.609 288.998 886.013 286.877C885.697 285.839 885.833 284.773 886.46 283.838C886.912 283.169 887.593 282.594 888.389 282.118C888.419 282.153 888.449 282.192 888.48 282.226C889.644 283.447 891.054 284.448 892.572 285.156L893.295 283.877C890.75 282.335 889.041 279.929 888.11 277.28C887.187 274.617 886.855 271.749 886.901 268.886C886.921 266.018 887.244 263.135 887.748 260.281C888.123 258.043 888.631 255.827 889.166 253.607C890.087 254.27 891.208 254.749 892.352 254.86C894.356 255.051 896.078 254.421 897.536 253.568C897.741 254.003 897.938 254.443 898.19 254.868C898.594 255.512 899.067 256.144 899.647 256.729C899.954 257.012 900.279 257.298 900.665 257.542C901.036 257.78 901.511 257.987 901.789 258.095C903.268 258.702 904.979 259.053 906.663 258.623C908.367 258.181 909.62 256.979 910.389 255.719C911.177 254.448 911.619 253.083 911.929 251.726C912.539 248.993 912.58 246.224 912.473 243.508L910.927 243.489C910.938 246.136 910.772 248.793 910.145 251.294C909.819 252.524 909.391 253.727 908.71 254.723C908.063 255.729 907.16 256.482 906.089 256.731C905.036 256.972 903.783 256.717 902.658 256.24C902.283 256.076 902.097 255.979 901.897 255.832C901.681 255.681 901.477 255.487 901.289 255.285C900.893 254.857 900.546 254.349 900.24 253.825C899.02 251.634 898.445 249.046 898.276 246.494C898.115 243.928 898.372 241.355 898.967 238.862C899.246 237.619 899.637 236.375 900.077 235.189C900.543 233.967 901.041 232.816 901.68 231.792C902.984 229.707 904.876 227.997 907.115 227.309C908.226 226.979 909.388 226.919 910.446 227.181C911.127 227.354 911.713 227.562 912.405 227.814C912.501 229.148 912.835 233.981 912.969 235.31L914.511 235.279C914.508 234.003 914.29 229.231 914.299 227.959C914.312 227.4 914.321 226.84 914.33 226.28C914.355 223.554 914.412 220.836 914.413 218.088C914.436 213.508 914.252 208.915 914.064 204.338C913.821 199.837 913.853 195.349 915.079 191.329C915.645 189.33 916.582 187.461 917.963 186.202C918.652 185.573 919.448 185.095 920.329 184.822C920.547 184.745 920.786 184.689 920.995 184.641C921.163 184.613 921.449 184.57 921.751 184.531C922.116 184.497 922.669 184.482 923.123 184.531C925.032 184.693 926.889 185.694 928.221 187.187C929.581 188.686 930.459 190.645 930.892 192.708C931.123 193.744 931.245 194.81 931.278 195.868C931.305 196.42 931.3 196.953 931.287 197.479C931.28 197.721 931.243 198.029 931.236 198.3L931.165 199.132L930.617 205.966C930.279 210.522 929.971 215.082 929.789 219.65C929.717 221.953 929.682 224.252 929.722 226.556C929.729 227.12 929.732 227.683 929.756 228.237C929.483 227.948 929.184 227.684 928.861 227.443C927.354 226.251 925.32 225.597 923.372 225.758C921.4 225.882 919.592 226.81 918.34 228.118C917.07 229.452 916.344 231.089 915.999 232.802C915.662 234.486 915.847 236.328 916.448 237.953C917.045 239.591 917.972 241.077 919.065 242.382C921.129 244.851 923.621 246.816 926.416 248.393L923.973 255.358C923.117 255.304 922.343 255.409 921.549 255.538C920.452 255.766 919.416 256.134 918.445 256.609C916.521 257.551 914.891 258.892 913.515 260.364C910.768 263.341 908.898 266.849 907.379 270.408L908.809 271.017C910.417 267.603 912.363 264.3 914.997 261.655C916.313 260.348 917.815 259.229 919.473 258.489C920.306 258.111 921.171 257.833 922.052 257.698C922.886 257.549 923.897 257.554 924.531 257.714L925.716 258.057L925.989 256.948L928.093 248.28L928.27 247.814L927.731 247.436C925.164 245.619 922.709 243.511 920.835 241.125C918.953 238.753 917.726 235.952 918.331 233.249C918.611 231.929 919.212 230.638 920.136 229.694C921.054 228.762 922.304 228.151 923.619 228.074C924.931 227.996 926.265 228.426 927.311 229.262C927.579 229.458 927.822 229.691 928.059 229.94L928.366 230.297L928.691 230.751C929.092 231.289 929.472 231.834 929.893 232.36C929.988 232.493 930.08 232.625 930.189 232.746C930.385 232.982 930.573 233.231 930.773 233.454C932.694 235.792 934.92 237.896 937.327 239.762C938.626 240.788 940.01 241.748 941.248 242.698C941.859 243.17 942.446 243.681 942.774 244.123L942.963 244.432C943.023 244.571 942.992 244.44 943.044 244.727C943.081 244.89 943.091 245.318 943.065 245.646C942.87 248.568 942.15 251.651 941.643 254.7C941.106 257.756 940.519 260.813 940.453 264.029L942 264.153C942.283 261.147 943.065 258.144 943.705 255.132C944.368 252.081 945.095 249.108 945.416 245.84C945.445 245.391 945.472 245.05 945.401 244.437C945.399 244.332 945.278 243.826 945.149 243.594C945.033 243.318 944.884 243.096 944.732 242.886C944.095 242.041 943.401 241.502 942.746 240.955C941.404 239.915 940.091 238.992 938.849 237.995C937.833 237.197 936.874 236.353 935.948 235.477C937.602 232.644 938.813 229.646 939.94 226.622L943.637 216.701L947.219 206.747C947.828 205.119 948.388 203.363 949.021 201.918C949.697 200.441 950.544 199.053 951.614 197.892C952.678 196.735 953.967 195.813 955.378 195.29C956.79 194.778 958.323 194.685 959.705 195.123C962.54 195.945 964.399 198.862 964.829 201.989C965.305 205.151 964.695 208.508 963.606 211.677Z" fill="#ECF776"/>
</g>
</g>
<g id="sparkle_2">
<path d="M808.979 135.017C818.581 143.879 827.879 155.767 830.702 166.782C833.52 177.793 831.101 192.69 826.947 205.078C835.814 195.479 847.695 186.182 858.713 183.361C869.727 180.535 884.617 182.951 897.012 187.107C887.403 178.244 878.117 166.36 875.291 155.34C872.465 144.331 874.891 129.435 879.038 117.046C870.182 126.647 858.291 135.942 847.277 138.766C836.269 141.592 821.368 139.173 808.979 135.017Z" fill="#E8BD0F"/>
<path d="M808.979 135.017C818.581 143.879 827.879 155.767 830.702 166.782C833.52 177.793 831.101 192.69 826.947 205.078C835.814 195.479 847.695 186.182 858.713 183.361C869.727 180.535 884.617 182.951 897.012 187.107C887.403 178.244 878.117 166.36 875.291 155.34C872.465 144.331 874.891 129.435 879.038 117.046C870.182 126.647 858.291 135.942 847.277 138.766C836.269 141.592 821.368 139.173 808.979 135.017Z" stroke="black"/>
</g>
<g id="u-are-text-banner">
<g id="Rectangle 698">
<rect x="814" y="313.775" width="287" height="40.0811" rx="20.0405" transform="rotate(-13.0439 814 313.775)" fill="#F2F547"/>
<rect x="814" y="313.775" width="287" height="40.0811" rx="20.0405" transform="rotate(-13.0439 814 313.775)" stroke="#D0B6F5"/>
</g>
<path id="U ARE DOING OKAY" d="M863.009 318.466L864.931 326.727C865.093 327.423 865.139 328.065 865.071 328.652C865.008 329.238 864.84 329.758 864.566 330.213C864.288 330.674 863.909 331.063 863.429 331.378C862.954 331.693 862.383 331.927 861.715 332.082C861.087 332.228 860.497 332.262 859.944 332.186C859.397 332.108 858.9 331.925 858.455 331.638C858.009 331.35 857.624 330.958 857.298 330.462C856.977 329.959 856.736 329.359 856.575 328.663L854.669 320.398L857.075 319.841L858.998 328.102C859.1 328.517 859.225 328.873 859.372 329.17C859.524 329.465 859.701 329.698 859.903 329.868C860.089 330.023 860.297 330.125 860.525 330.175C860.751 330.218 860.999 330.209 861.267 330.147C861.558 330.08 861.804 329.972 862.004 329.823C862.208 329.667 862.362 329.472 862.464 329.238C862.576 328.996 862.636 328.711 862.645 328.384C862.653 328.058 862.614 327.691 862.525 327.284L860.62 319.02L863.009 318.466ZM888.741 322.898L885 323.765L884.866 326.538L882.332 327.125L883.528 313.712L885.711 313.207L892.607 324.745L890.072 325.332L888.741 322.898ZM885.116 321.581L887.702 320.982L885.363 316.689L885.116 321.581ZM899.176 318.315L897.352 318.738L898.431 323.396L896.025 323.953L893.137 311.486L897.315 310.518C898.006 310.358 898.65 310.296 899.248 310.332C899.844 310.362 900.379 310.488 900.851 310.71C901.318 310.932 901.711 311.253 902.03 311.672C902.356 312.09 902.59 312.607 902.733 313.224C902.836 313.669 902.875 314.084 902.85 314.469C902.829 314.847 902.754 315.198 902.625 315.522C902.491 315.854 902.309 316.158 902.078 316.434C901.853 316.709 901.587 316.963 901.28 317.196L905.152 321.721L905.178 321.832L902.601 322.43L899.176 318.315ZM896.9 316.786L898.681 316.373C899.052 316.287 899.365 316.16 899.621 315.993C899.881 315.818 900.077 315.61 900.208 315.37C900.319 315.175 900.386 314.958 900.409 314.719C900.437 314.477 900.419 314.22 900.356 313.946C900.279 313.615 900.16 313.336 899.999 313.108C899.843 312.874 899.645 312.697 899.407 312.578C899.196 312.47 898.953 312.406 898.677 312.386C898.402 312.366 898.099 312.394 897.768 312.471L895.995 312.881L896.9 316.786ZM915.243 313.745L910.122 314.931L910.938 318.45L916.923 317.064L917.373 319.007L908.973 320.953L906.085 308.487L914.459 306.547L914.913 308.507L908.954 309.888L909.682 313.03L914.802 311.844L915.243 313.745ZM934.407 315.061L931.519 302.594L934.747 301.846C935.324 301.713 935.88 301.659 936.415 301.685C936.949 301.706 937.451 301.797 937.922 301.959C938.33 302.087 938.71 302.272 939.061 302.516C939.417 302.752 939.742 303.026 940.036 303.336C940.384 303.719 940.684 304.161 940.939 304.661C941.199 305.16 941.398 305.71 941.537 306.309L941.775 307.336C941.909 307.913 941.972 308.473 941.966 309.015C941.959 309.558 941.891 310.07 941.762 310.551C941.634 310.984 941.462 311.397 941.246 311.789C941.029 312.177 940.771 312.519 940.473 312.816C940.128 313.167 939.725 313.468 939.266 313.719C938.813 313.968 938.309 314.157 937.755 314.285L934.407 315.061ZM934.395 303.985L936.382 312.564L937.307 312.35C937.604 312.281 937.872 312.18 938.112 312.046C938.351 311.913 938.56 311.75 938.738 311.558C938.921 311.36 939.071 311.126 939.19 310.858C939.313 310.583 939.401 310.277 939.455 309.94C939.496 309.648 939.504 309.333 939.48 308.996C939.46 308.651 939.406 308.288 939.318 307.906L939.076 306.861C938.992 306.501 938.885 306.168 938.754 305.862C938.627 305.549 938.481 305.27 938.317 305.025C938.117 304.735 937.885 304.487 937.622 304.284C937.364 304.079 937.082 303.928 936.777 303.83C936.543 303.758 936.294 303.719 936.028 303.715C935.767 303.703 935.491 303.731 935.199 303.798L934.395 303.985ZM954.737 304.748C954.862 305.285 954.932 305.807 954.947 306.315C954.961 306.817 954.924 307.294 954.837 307.748C954.738 308.204 954.586 308.636 954.379 309.044C954.173 309.453 953.914 309.814 953.602 310.127C953.317 310.403 952.987 310.642 952.613 310.843C952.245 311.048 951.833 311.204 951.377 311.31C950.892 311.422 950.429 311.463 949.989 311.433C949.549 311.403 949.134 311.312 948.744 311.162C948.358 310.999 947.994 310.779 947.653 310.503C947.311 310.222 947.002 309.887 946.726 309.5C946.475 309.143 946.253 308.744 946.061 308.301C945.874 307.857 945.721 307.379 945.601 306.865L945.181 305.05C945.054 304.502 944.979 303.972 944.957 303.46C944.94 302.946 944.975 302.46 945.061 302.001C945.147 301.566 945.278 301.16 945.455 300.782C945.638 300.403 945.869 300.061 946.147 299.756C946.421 299.458 946.746 299.202 947.124 298.988C947.501 298.774 947.927 298.612 948.401 298.503C948.88 298.392 949.343 298.351 949.789 298.38C950.239 298.402 950.659 298.488 951.048 298.638C951.435 298.777 951.79 298.971 952.113 299.222C952.441 299.47 952.74 299.759 953.008 300.088C953.306 300.464 953.564 300.891 953.783 301.37C954.008 301.847 954.186 302.368 954.317 302.933L954.737 304.748ZM951.873 303.481C951.799 303.162 951.711 302.863 951.611 302.586C951.515 302.301 951.404 302.044 951.279 301.814C951.122 301.526 950.944 301.279 950.746 301.072C950.547 300.859 950.332 300.699 950.102 300.59C949.922 300.511 949.727 300.463 949.518 300.445C949.315 300.426 949.097 300.443 948.863 300.498C948.64 300.549 948.444 300.625 948.275 300.724C948.111 300.822 947.97 300.942 947.853 301.084C947.696 301.288 947.577 301.526 947.495 301.798C947.419 302.068 947.381 302.372 947.381 302.708C947.381 302.967 947.4 303.245 947.439 303.543C947.484 303.84 947.543 304.148 947.617 304.467L948.042 306.3C948.112 306.602 948.191 306.891 948.278 307.165C948.366 307.439 948.466 307.69 948.579 307.916C948.712 308.204 948.867 308.46 949.045 308.683C949.228 308.9 949.419 309.066 949.621 309.182C949.807 309.283 950.005 309.348 950.216 309.377C950.433 309.405 950.667 309.39 950.919 309.332C951.158 309.276 951.37 309.191 951.554 309.077C951.738 308.962 951.892 308.821 952.015 308.654C952.173 308.449 952.289 308.212 952.365 307.941C952.445 307.664 952.489 307.362 952.498 307.035C952.505 306.781 952.49 306.508 952.452 306.216C952.42 305.923 952.369 305.622 952.297 305.314L951.873 303.481ZM957.724 296.523L964.933 294.853L965.384 296.797L962.952 297.36L964.942 305.948L967.373 305.385L967.822 307.32L960.612 308.99L960.164 307.055L962.536 306.505L960.546 297.917L958.174 298.467L957.724 296.523ZM981.112 304.24L978.715 304.796L973.384 297.559L975.247 305.599L972.824 306.161L969.936 293.694L972.359 293.133L977.656 300.341L975.81 292.333L978.224 291.774L981.112 304.24ZM993.937 299.736C993.827 299.96 993.66 300.2 993.437 300.456C993.213 300.712 992.937 300.96 992.607 301.198C992.273 301.444 991.889 301.669 991.455 301.871C991.021 302.074 990.541 302.237 990.016 302.358C989.559 302.464 989.116 302.51 988.685 302.495C988.262 302.485 987.859 302.419 987.476 302.297C987.097 302.168 986.736 301.987 986.394 301.754C986.056 301.519 985.749 301.232 985.473 300.894C985.158 300.522 984.882 300.083 984.645 299.579C984.413 299.073 984.225 298.509 984.081 297.887L983.688 296.192C983.551 295.598 983.478 295.035 983.468 294.501C983.458 293.963 983.504 293.462 983.607 292.999C983.71 292.584 983.849 292.2 984.026 291.846C984.208 291.491 984.423 291.171 984.669 290.885C984.961 290.559 985.297 290.285 985.679 290.065C986.061 289.844 986.48 289.681 986.937 289.575C987.639 289.412 988.27 289.359 988.831 289.416C989.397 289.471 989.898 289.623 990.335 289.87C990.772 290.124 991.147 290.467 991.457 290.9C991.774 291.332 992.033 291.841 992.235 292.425L989.889 292.969C989.779 292.676 989.654 292.422 989.514 292.208C989.38 291.992 989.223 291.821 989.043 291.694C988.842 291.554 988.609 291.47 988.344 291.441C988.083 291.405 987.784 291.427 987.447 291.505C987.265 291.547 987.094 291.616 986.936 291.713C986.778 291.81 986.638 291.93 986.514 292.073C986.355 292.266 986.223 292.501 986.118 292.778C986.02 293.053 985.957 293.366 985.929 293.715C985.908 293.984 985.91 294.279 985.935 294.597C985.967 294.915 986.024 295.253 986.108 295.613L986.504 297.326C986.609 297.777 986.733 298.181 986.876 298.539C987.024 298.895 987.186 299.204 987.361 299.464C987.467 299.614 987.58 299.75 987.699 299.873C987.822 299.988 987.95 300.088 988.084 300.171C988.309 300.312 988.552 300.403 988.815 300.444C989.081 300.479 989.369 300.463 989.679 300.397C989.867 300.354 990.05 300.296 990.226 300.226C990.402 300.155 990.564 300.075 990.712 299.987C990.859 299.898 990.986 299.809 991.091 299.718C991.201 299.621 991.279 299.527 991.324 299.439L990.809 297.176L988.746 297.654L988.329 295.856L992.79 294.823L993.937 299.736ZM1018.79 289.908C1018.92 290.445 1018.99 290.967 1019 291.475C1019.02 291.976 1018.98 292.454 1018.89 292.907C1018.79 293.363 1018.64 293.796 1018.44 294.204C1018.23 294.613 1017.97 294.974 1017.66 295.287C1017.37 295.563 1017.04 295.802 1016.67 296.003C1016.3 296.208 1015.89 296.364 1015.43 296.47C1014.95 296.582 1014.49 296.623 1014.05 296.593C1013.6 296.562 1013.19 296.472 1012.8 296.322C1012.41 296.159 1012.05 295.939 1011.71 295.663C1011.37 295.382 1011.06 295.047 1010.78 294.66C1010.53 294.303 1010.31 293.904 1010.12 293.461C1009.93 293.017 1009.78 292.538 1009.66 292.025L1009.24 290.209C1009.11 289.662 1009.04 289.131 1009.01 288.619C1009 288.106 1009.03 287.62 1009.12 287.161C1009.2 286.726 1009.33 286.32 1009.51 285.942C1009.69 285.563 1009.92 285.22 1010.2 284.915C1010.48 284.617 1010.8 284.362 1011.18 284.148C1011.56 283.934 1011.98 283.772 1012.46 283.663C1012.94 283.551 1013.4 283.51 1013.84 283.539C1014.29 283.561 1014.71 283.648 1015.1 283.798C1015.49 283.937 1015.85 284.131 1016.17 284.381C1016.5 284.63 1016.8 284.919 1017.06 285.248C1017.36 285.624 1017.62 286.051 1017.84 286.529C1018.06 287.007 1018.24 287.528 1018.37 288.093L1018.79 289.908ZM1015.93 288.641C1015.85 288.321 1015.77 288.023 1015.67 287.745C1015.57 287.461 1015.46 287.204 1015.34 286.974C1015.18 286.686 1015 286.438 1014.8 286.232C1014.6 286.019 1014.39 285.859 1014.16 285.749C1013.98 285.671 1013.78 285.623 1013.57 285.605C1013.37 285.586 1013.15 285.603 1012.92 285.658C1012.7 285.709 1012.5 285.785 1012.33 285.884C1012.17 285.982 1012.03 286.102 1011.91 286.243C1011.75 286.448 1011.63 286.686 1011.55 286.958C1011.48 287.228 1011.44 287.531 1011.44 287.868C1011.44 288.127 1011.46 288.405 1011.5 288.703C1011.54 288.999 1011.6 289.307 1011.67 289.627L1012.1 291.459C1012.17 291.762 1012.25 292.05 1012.33 292.325C1012.42 292.599 1012.52 292.85 1012.63 293.076C1012.77 293.364 1012.92 293.62 1013.1 293.843C1013.28 294.06 1013.48 294.226 1013.68 294.341C1013.86 294.443 1014.06 294.508 1014.27 294.537C1014.49 294.565 1014.72 294.55 1014.97 294.492C1015.21 294.436 1015.43 294.351 1015.61 294.236C1015.79 294.122 1015.95 293.981 1016.07 293.814C1016.23 293.609 1016.35 293.371 1016.42 293.101C1016.5 292.824 1016.55 292.522 1016.55 292.195C1016.56 291.941 1016.55 291.668 1016.51 291.376C1016.48 291.083 1016.42 290.782 1016.35 290.473L1015.93 288.641ZM1026.67 288.292L1025.68 290.044L1026.53 293.717L1024.12 294.277L1021.23 281.81L1023.65 281.251L1024.97 286.962L1025.75 285.176L1027.81 280.287L1030.75 279.604L1027.84 286.09L1033.8 292.035L1030.94 292.698L1026.67 288.292ZM1042.48 287.281L1038.73 288.148L1038.6 290.922L1036.07 291.509L1037.26 278.096L1039.45 277.59L1046.34 289.129L1043.81 289.716L1042.48 287.281ZM1038.85 285.965L1041.44 285.366L1039.1 281.072L1038.85 285.965ZM1052.46 280.629L1053.58 274.315L1056.23 273.702L1054.2 282.762L1055.19 287.079L1052.79 287.634L1051.76 283.218L1046.03 276.064L1048.67 275.453L1052.46 280.629Z" fill="black"/>
</g>
</g>
<g id="ellipse-sticker">
<path id="Ellipse 99" d="M841.655 246.55C843.405 282.2 789.871 313.798 722.082 317.127C654.294 320.456 597.921 294.255 596.17 258.605C594.419 222.955 647.954 191.357 715.742 188.028C783.531 184.699 839.904 210.9 841.655 246.55Z" fill="#ECF776"/>
<path id="Ellipse 100" d="M824.752 247.517C825.468 262.082 814.874 276.302 796.082 287.392C777.379 298.43 751.028 306.043 721.471 307.494C691.913 308.946 664.943 303.951 645.249 294.799C625.46 285.604 613.525 272.49 612.809 257.925C612.094 243.36 622.688 229.14 641.48 218.049C660.183 207.012 686.534 199.399 716.091 197.947C745.649 196.496 772.619 201.49 792.312 210.642C812.101 219.838 824.037 232.951 824.752 247.517Z" stroke="black" stroke-width="4"/>
<path id="get it together" d="M690.526 225.872C690.442 226.273 690.376 226.763 690.329 227.342C690.291 227.911 690.26 228.536 690.237 229.218C690.213 229.89 690.2 230.59 690.198 231.318C690.205 232.045 690.212 232.758 690.218 233.458C690.242 235.101 690.294 236.842 690.375 238.681C690.422 239.643 690.407 240.589 690.33 241.519C690.262 242.439 690.116 243.311 689.892 244.135C689.677 244.958 689.379 245.724 688.998 246.433C688.617 247.142 688.141 247.756 687.571 248.275C687.011 248.794 686.351 249.209 685.591 249.521C684.832 249.842 683.962 250.026 682.981 250.074C682.067 250.119 681.27 250.064 680.591 249.908C679.913 249.752 679.343 249.511 678.883 249.184C678.432 248.866 678.087 248.471 677.847 248.001C677.616 247.54 677.486 247.017 677.458 246.433C677.429 245.857 677.503 245.334 677.678 244.862C677.854 244.39 678.093 243.982 678.398 243.636C678.703 243.3 679.049 243.037 679.437 242.848C679.834 242.658 680.24 242.553 680.654 242.533C681.192 242.506 681.704 242.632 682.19 242.911C682.676 243.19 683.058 243.648 683.335 244.287C683.218 244.217 683.08 244.186 682.919 244.194C682.702 244.204 682.504 244.299 682.324 244.478C682.144 244.666 682.06 244.883 682.072 245.128C682.079 245.27 682.108 245.387 682.16 245.479C682.222 245.579 682.296 245.656 682.384 245.709C682.472 245.761 682.563 245.794 682.658 245.808C682.763 245.832 682.858 245.841 682.943 245.837C683.047 245.832 683.188 245.806 683.365 245.76C683.552 245.722 683.75 245.623 683.96 245.461C684.169 245.3 684.375 245.058 684.576 244.736C684.778 244.414 684.955 243.976 685.107 243.42C685.259 242.864 685.367 242.164 685.429 241.32C685.501 240.475 685.508 239.454 685.449 238.257C685.302 239.105 685.098 239.777 684.839 240.272C684.58 240.766 684.296 241.144 683.987 241.405C683.678 241.656 683.356 241.819 683.019 241.892C682.692 241.965 682.382 242.008 682.09 242.023C681.863 242.034 681.574 242.01 681.221 241.952C680.868 241.884 680.489 241.761 680.083 241.583C679.686 241.394 679.277 241.135 678.854 240.806C678.441 240.468 678.06 240.037 677.713 239.516C677.366 238.985 677.07 238.347 676.826 237.603C676.59 236.849 676.447 235.958 676.397 234.93C676.319 233.346 676.413 231.999 676.68 230.89C676.956 229.78 677.333 228.878 677.809 228.183C678.294 227.479 678.841 226.965 679.449 226.643C680.056 226.31 680.657 226.13 681.251 226.1C681.675 226.08 682.065 226.131 682.421 226.256C682.777 226.37 683.101 226.534 683.395 226.746C683.689 226.959 683.952 227.201 684.182 227.473C684.413 227.736 684.62 228.005 684.803 228.279C684.726 227.867 684.635 227.456 684.53 227.045C684.434 226.634 684.324 226.219 684.199 225.8C684.44 225.892 684.737 225.972 685.09 226.039C685.396 226.1 685.776 226.148 686.231 226.182C686.686 226.207 687.234 226.204 687.875 226.172C688.63 226.135 689.513 226.035 690.526 225.872ZM684.85 233.267C684.837 233.003 684.802 232.689 684.746 232.323C684.69 231.947 684.602 231.593 684.482 231.258C684.361 230.914 684.2 230.625 683.999 230.389C683.808 230.152 683.566 230.041 683.274 230.056C683.057 230.066 682.866 230.203 682.699 230.467C682.532 230.721 682.391 231.03 682.277 231.395C682.171 231.75 682.09 232.118 682.033 232.498C681.986 232.879 681.968 233.201 681.981 233.465C682.004 233.918 682.05 234.378 682.12 234.848C682.19 235.317 682.287 235.742 682.41 236.123C682.541 236.495 682.693 236.8 682.866 237.037C683.047 237.274 683.251 237.386 683.478 237.375C683.723 237.363 683.937 237.296 684.12 237.174C684.312 237.041 684.469 236.873 684.591 236.669C684.723 236.454 684.815 236.213 684.868 235.946C684.93 235.678 684.954 235.394 684.939 235.092L684.85 233.267ZM707.244 228.156C707.278 228.863 707.208 229.556 707.034 230.236C706.869 230.915 706.544 231.526 706.061 232.07C705.577 232.613 704.909 233.062 704.057 233.416C703.214 233.769 702.128 233.978 700.799 234.044C700.859 234.504 700.972 234.886 701.138 235.19C701.314 235.493 701.515 235.733 701.741 235.911C701.967 236.089 702.205 236.219 702.455 236.302C702.705 236.384 702.934 236.439 703.143 236.466C703.353 236.494 703.528 236.504 703.669 236.497C703.811 236.49 703.882 236.487 703.882 236.487C704.463 236.392 704.979 236.215 705.429 235.957C705.623 235.853 705.81 235.726 705.992 235.575C706.173 235.415 706.334 235.232 706.475 235.027C706.625 234.811 706.741 234.574 706.823 234.315C706.914 234.046 706.96 233.741 706.962 233.401C707.238 234.002 707.436 234.568 707.556 235.101C707.686 235.624 707.762 236.117 707.785 236.579C707.826 237.427 707.709 238.217 707.433 238.949C707.166 239.671 706.777 240.305 706.265 240.85C705.753 241.395 705.131 241.827 704.4 242.146C703.679 242.475 702.885 242.66 702.018 242.703C701.169 242.745 700.342 242.639 699.535 242.385C698.738 242.131 698.018 241.704 697.374 241.102C696.739 240.491 696.213 239.685 695.795 238.684C695.387 237.684 695.147 236.457 695.076 235.005C694.998 233.431 695.156 232.024 695.549 230.786C695.942 229.547 696.5 228.499 697.223 227.641C697.946 226.774 698.797 226.104 699.776 225.63C700.763 225.147 701.809 224.878 702.912 224.824C703.459 224.797 703.985 224.833 704.491 224.931C705.006 225.028 705.459 225.209 705.85 225.474C706.251 225.738 706.575 226.09 706.824 226.532C707.072 226.964 707.212 227.505 707.244 228.156ZM700.627 231.713C700.891 231.69 701.195 231.624 701.539 231.512C701.883 231.391 702.206 231.234 702.508 231.039C702.811 230.845 703.059 230.611 703.253 230.336C703.457 230.062 703.551 229.755 703.534 229.415C703.524 229.198 703.44 229.028 703.282 228.903C703.125 228.778 702.928 228.722 702.693 228.733C702.363 228.75 702.07 228.859 701.816 229.06C701.57 229.261 701.36 229.508 701.186 229.8C701.02 230.092 700.889 230.41 700.793 230.755C700.696 231.1 700.641 231.419 700.627 231.713ZM722.749 223.368C722.695 223.796 722.658 224.213 722.641 224.621C722.632 225.028 722.638 225.443 722.659 225.867C722.679 226.273 722.713 226.682 722.762 227.096C722.82 227.499 722.896 227.907 722.992 228.318C722.528 228.104 722.006 227.955 721.425 227.87C720.854 227.785 720.269 227.724 719.672 227.687L719.732 228.903C719.784 229.969 719.856 231.047 719.947 232.139C720.038 233.222 720.152 234.275 720.287 235.298C720.422 236.312 720.578 237.274 720.755 238.182C720.941 239.089 721.15 239.892 721.383 240.589C721.222 240.588 721.033 240.583 720.815 240.575C720.626 240.574 720.404 240.576 720.149 240.579C719.894 240.582 719.602 240.592 719.272 240.608C718.659 240.638 717.953 240.701 717.154 240.797C716.355 240.883 715.492 241.02 714.566 241.208C714.796 239.353 714.929 237.433 714.964 235.446C715.007 233.45 714.983 231.504 714.89 229.609L714.807 227.926C714.168 228.005 713.535 228.111 712.909 228.246C712.291 228.371 711.708 228.518 711.158 228.686C711.191 228.581 711.217 228.442 711.237 228.271C711.257 228.1 711.267 227.925 711.268 227.745C711.278 227.565 711.279 227.39 711.27 227.221C711.272 227.05 711.269 226.909 711.264 226.796C711.24 226.315 711.198 225.84 711.137 225.37C711.076 224.9 711.006 224.427 710.925 223.948C711.387 224.115 711.932 224.244 712.561 224.336C713.189 224.419 713.824 224.472 714.468 224.497C714.372 223.68 714.268 222.924 714.159 222.23C714.049 221.536 713.928 220.909 713.797 220.348C714.567 220.443 715.279 220.498 715.931 220.513C716.584 220.528 717.175 220.523 717.703 220.497C718.042 220.48 718.344 220.46 718.607 220.438C718.88 220.406 719.11 220.376 719.298 220.347C719.523 220.317 719.72 220.284 719.888 220.248C719.807 220.705 719.745 221.275 719.703 221.958C719.67 222.631 719.64 223.383 719.615 224.216C720.234 224.12 720.814 224.002 721.356 223.862C721.906 223.721 722.371 223.556 722.749 223.368ZM741.729 239.59C741.568 239.589 741.379 239.584 741.161 239.576C740.972 239.575 740.75 239.577 740.495 239.58C740.24 239.583 739.947 239.593 739.617 239.609C739.005 239.639 738.299 239.702 737.5 239.798C736.701 239.884 735.838 240.021 734.912 240.208C735.073 239.841 735.202 239.386 735.298 238.843C735.394 238.29 735.465 237.705 735.51 237.088C735.564 236.462 735.595 235.832 735.601 235.198C735.617 234.564 735.622 233.983 735.615 233.454C735.608 232.925 735.595 232.477 735.577 232.109C735.569 231.741 735.562 231.51 735.557 231.415C735.478 230.19 735.38 229.047 735.261 227.985C735.211 227.534 735.151 227.078 735.081 226.618C735.02 226.158 734.952 225.727 734.875 225.324C734.798 224.912 734.714 224.548 734.623 224.231C734.541 223.904 734.448 223.649 734.345 223.465C735.115 223.559 735.826 223.614 736.479 223.629C737.132 223.644 737.723 223.639 738.251 223.613C738.59 223.596 738.892 223.577 739.155 223.555C739.428 223.522 739.658 223.492 739.845 223.464C740.071 223.434 740.268 223.401 740.436 223.364C740.308 224.221 740.217 225.251 740.162 226.454C740.117 227.656 740.128 228.941 740.196 230.308C740.234 231.091 740.292 231.882 740.369 232.682C740.446 233.481 740.547 234.28 740.671 235.077C740.795 235.865 740.941 236.642 741.111 237.409C741.29 238.166 741.496 238.893 741.729 239.59ZM734.244 219.684C734.223 219.251 734.283 218.841 734.425 218.456C734.575 218.061 734.785 217.715 735.054 217.419C735.332 217.112 735.661 216.869 736.039 216.69C736.417 216.501 736.823 216.396 737.257 216.375C737.691 216.354 738.101 216.418 738.486 216.57C738.88 216.711 739.226 216.921 739.524 217.199C739.83 217.468 740.072 217.791 740.252 218.17C740.44 218.539 740.545 218.94 740.566 219.374C740.587 219.808 740.523 220.222 740.372 220.617C740.231 221.011 740.021 221.362 739.743 221.668C739.474 221.965 739.15 222.208 738.772 222.397C738.403 222.575 738.001 222.675 737.568 222.697C737.134 222.718 736.72 222.658 736.325 222.517C735.93 222.366 735.58 222.156 735.274 221.888C734.977 221.61 734.734 221.281 734.545 220.903C734.366 220.524 734.265 220.118 734.244 219.684ZM756.464 221.712C756.409 222.14 756.373 222.558 756.355 222.965C756.347 223.372 756.353 223.787 756.374 224.212C756.394 224.617 756.428 225.027 756.477 225.44C756.535 225.844 756.611 226.251 756.707 226.662C756.243 226.449 755.721 226.299 755.14 226.215C754.569 226.129 753.984 226.068 753.387 226.031L753.447 227.248C753.499 228.313 753.571 229.392 753.662 230.484C753.753 231.566 753.866 232.619 754.002 233.643C754.137 234.657 754.293 235.618 754.469 236.526C754.656 237.434 754.865 238.236 755.098 238.934C754.937 238.932 754.748 238.927 754.53 238.919C754.341 238.919 754.119 238.92 753.864 238.923C753.609 238.926 753.317 238.936 752.987 238.952C752.374 238.982 751.668 239.045 750.869 239.141C750.07 239.228 749.207 239.365 748.281 239.552C748.511 237.698 748.644 235.777 748.678 233.791C748.722 231.794 748.698 229.848 748.604 227.953L748.522 226.27C747.883 226.349 747.25 226.456 746.624 226.59C746.006 226.715 745.422 226.862 744.873 227.031C744.906 226.925 744.932 226.787 744.952 226.616C744.972 226.445 744.982 226.269 744.983 226.09C744.993 225.91 744.994 225.735 744.985 225.565C744.986 225.395 744.984 225.253 744.979 225.14C744.955 224.659 744.913 224.184 744.852 223.714C744.791 223.245 744.721 222.771 744.64 222.293C745.102 222.459 745.647 222.588 746.276 222.68C746.903 222.763 747.539 222.817 748.183 222.842C748.086 222.024 747.983 221.268 747.873 220.574C747.764 219.88 747.643 219.253 747.512 218.692C748.282 218.787 748.993 218.842 749.646 218.857C750.299 218.872 750.89 218.867 751.418 218.841C751.757 218.824 752.059 218.805 752.322 218.782C752.595 218.75 752.825 218.72 753.012 218.692C753.238 218.662 753.435 218.628 753.603 218.592C753.521 219.05 753.46 219.62 753.418 220.302C753.384 220.975 753.355 221.728 753.33 222.561C753.949 222.464 754.529 222.346 755.071 222.206C755.621 222.065 756.086 221.901 756.464 221.712ZM664.771 264.261C664.716 264.689 664.68 265.106 664.662 265.514C664.654 265.921 664.66 266.336 664.681 266.76C664.701 267.166 664.735 267.575 664.784 267.989C664.841 268.392 664.918 268.8 665.014 269.211C664.55 268.997 664.027 268.848 663.446 268.763C662.875 268.678 662.291 268.617 661.694 268.58L661.753 269.796C661.806 270.862 661.878 271.94 661.969 273.032C662.06 274.115 662.173 275.168 662.308 276.191C662.443 277.205 662.599 278.167 662.776 279.075C662.962 279.982 663.172 280.785 663.405 281.482C663.244 281.481 663.055 281.476 662.837 281.468C662.648 281.468 662.426 281.469 662.171 281.472C661.916 281.475 661.623 281.485 661.293 281.501C660.68 281.531 659.975 281.594 659.176 281.69C658.377 281.777 657.514 281.913 656.587 282.101C656.818 280.246 656.95 278.326 656.985 276.339C657.029 274.343 657.004 272.397 656.911 270.502L656.828 268.819C656.19 268.898 655.557 269.004 654.93 269.139C654.313 269.264 653.729 269.411 653.18 269.579C653.212 269.474 653.239 269.335 653.259 269.164C653.278 268.993 653.289 268.818 653.289 268.638C653.299 268.458 653.3 268.283 653.292 268.114C653.293 267.943 653.291 267.802 653.285 267.689C653.262 267.208 653.219 266.733 653.159 266.263C653.098 265.793 653.027 265.32 652.947 264.841C653.409 265.008 653.954 265.137 654.582 265.229C655.21 265.312 655.846 265.365 656.49 265.391C656.393 264.573 656.29 263.817 656.18 263.123C656.07 262.429 655.95 261.802 655.818 261.241C656.589 261.336 657.3 261.391 657.953 261.406C658.606 261.421 659.196 261.416 659.724 261.39C660.064 261.373 660.365 261.353 660.629 261.331C660.901 261.299 661.131 261.269 661.319 261.24C661.544 261.21 661.741 261.177 661.91 261.141C661.828 261.598 661.766 262.168 661.724 262.851C661.691 263.524 661.662 264.276 661.637 265.109C662.256 265.013 662.836 264.895 663.377 264.755C663.928 264.614 664.392 264.45 664.771 264.261ZM682.41 272.326C682.437 272.873 682.424 273.479 682.372 274.143C682.319 274.798 682.21 275.464 682.045 276.144C681.879 276.813 681.642 277.472 681.334 278.121C681.025 278.76 680.628 279.332 680.142 279.838C679.666 280.344 679.086 280.759 678.403 281.086C677.72 281.413 676.916 281.599 675.992 281.644C675.068 281.689 674.25 281.592 673.539 281.353C672.837 281.114 672.226 280.78 671.704 280.352C671.191 279.914 670.759 279.406 670.409 278.827C670.059 278.24 669.774 277.621 669.553 276.97C669.332 276.319 669.167 275.661 669.059 274.995C668.959 274.319 668.895 273.68 668.865 273.076C668.813 272.011 668.903 270.962 669.136 269.93C669.368 268.888 669.753 267.953 670.288 267.123C670.834 266.293 671.528 265.611 672.371 265.078C673.224 264.545 674.24 264.249 675.418 264.192C676.21 264.153 676.928 264.24 677.572 264.454C678.215 264.659 678.792 264.957 679.303 265.348C679.814 265.738 680.252 266.204 680.619 266.743C680.995 267.282 681.312 267.858 681.569 268.469C681.825 269.08 682.022 269.718 682.159 270.382C682.295 271.046 682.379 271.694 682.41 272.326ZM677.511 273.035C677.501 272.818 677.478 272.55 677.443 272.23C677.418 271.9 677.373 271.558 677.308 271.202C677.243 270.846 677.16 270.491 677.057 270.136C676.964 269.782 676.845 269.466 676.699 269.19C676.553 268.914 676.376 268.691 676.17 268.521C675.972 268.351 675.742 268.273 675.478 268.286C675.223 268.298 675.006 268.394 674.825 268.573C674.645 268.752 674.491 268.982 674.363 269.262C674.244 269.542 674.147 269.859 674.069 270.212C674.001 270.556 673.947 270.903 673.908 271.255C673.878 271.597 673.856 271.929 673.843 272.251C673.84 272.563 673.843 272.827 673.854 273.044C673.869 273.355 673.911 273.731 673.98 274.172C674.049 274.613 674.16 275.033 674.312 275.432C674.463 275.831 674.66 276.171 674.9 276.452C675.15 276.723 675.463 276.85 675.841 276.831C676.199 276.814 676.489 276.667 676.712 276.391C676.944 276.115 677.122 275.785 677.245 275.401C677.367 275.008 677.446 274.597 677.482 274.17C677.518 273.743 677.528 273.365 677.511 273.035ZM700.846 263.411C700.762 263.812 700.696 264.302 700.649 264.881C700.611 265.45 700.58 266.075 700.557 266.757C700.533 267.429 700.52 268.129 700.518 268.857C700.526 269.584 700.532 270.297 700.538 270.996C700.562 272.64 700.615 274.381 700.696 276.22C700.743 277.182 700.728 278.128 700.651 279.058C700.582 279.978 700.436 280.85 700.212 281.674C699.997 282.497 699.699 283.263 699.318 283.972C698.937 284.681 698.462 285.295 697.892 285.814C697.331 286.333 696.671 286.748 695.911 287.06C695.152 287.38 694.282 287.565 693.302 287.613C692.387 287.658 691.59 287.603 690.912 287.447C690.233 287.291 689.663 287.05 689.203 286.723C688.753 286.405 688.407 286.01 688.167 285.54C687.936 285.079 687.807 284.556 687.778 283.971C687.75 283.396 687.823 282.873 687.999 282.401C688.174 281.929 688.414 281.521 688.718 281.175C689.023 280.839 689.369 280.576 689.757 280.387C690.154 280.197 690.56 280.092 690.975 280.072C691.512 280.045 692.024 280.171 692.51 280.45C692.997 280.729 693.378 281.187 693.655 281.826C693.539 281.756 693.4 281.725 693.24 281.733C693.023 281.743 692.824 281.838 692.644 282.017C692.464 282.205 692.38 282.422 692.392 282.667C692.399 282.809 692.429 282.926 692.48 283.018C692.542 283.118 692.617 283.195 692.704 283.248C692.792 283.3 692.883 283.333 692.979 283.347C693.084 283.371 693.179 283.38 693.264 283.376C693.367 283.371 693.508 283.345 693.685 283.299C693.872 283.261 694.071 283.162 694.28 283C694.49 282.839 694.695 282.597 694.897 282.275C695.098 281.953 695.275 281.515 695.427 280.959C695.58 280.403 695.687 279.703 695.75 278.859C695.822 278.014 695.828 276.993 695.769 275.796C695.622 276.644 695.419 277.316 695.159 277.811C694.9 278.305 694.616 278.683 694.308 278.944C693.999 279.195 693.676 279.358 693.339 279.431C693.012 279.504 692.702 279.547 692.41 279.562C692.184 279.573 691.894 279.549 691.542 279.491C691.189 279.423 690.809 279.3 690.404 279.122C690.007 278.933 689.597 278.674 689.175 278.345C688.761 278.007 688.381 277.576 688.034 277.055C687.686 276.523 687.39 275.886 687.146 275.142C686.91 274.388 686.767 273.497 686.717 272.469C686.639 270.885 686.734 269.538 687.001 268.429C687.277 267.319 687.653 266.417 688.129 265.722C688.615 265.018 689.161 264.504 689.769 264.182C690.377 263.849 690.977 263.669 691.571 263.639C691.996 263.619 692.386 263.67 692.742 263.795C693.097 263.909 693.422 264.073 693.716 264.285C694.009 264.498 694.272 264.74 694.503 265.012C694.733 265.275 694.94 265.544 695.123 265.818C695.047 265.406 694.955 264.995 694.85 264.584C694.754 264.173 694.644 263.758 694.52 263.339C694.76 263.431 695.057 263.511 695.41 263.578C695.716 263.639 696.096 263.687 696.552 263.721C697.006 263.746 697.555 263.742 698.196 263.711C698.95 263.674 699.833 263.574 700.846 263.411ZM695.17 270.806C695.157 270.542 695.123 270.227 695.067 269.862C695.011 269.486 694.922 269.132 694.802 268.797C694.681 268.453 694.52 268.164 694.32 267.928C694.129 267.691 693.887 267.58 693.594 267.595C693.378 267.605 693.186 267.742 693.019 268.006C692.852 268.26 692.711 268.569 692.597 268.934C692.492 269.289 692.41 269.657 692.353 270.037C692.306 270.418 692.289 270.74 692.302 271.004C692.324 271.457 692.37 271.917 692.44 272.387C692.511 272.856 692.607 273.281 692.73 273.662C692.862 274.034 693.014 274.338 693.186 274.576C693.368 274.813 693.572 274.925 693.798 274.914C694.043 274.902 694.257 274.835 694.44 274.713C694.632 274.58 694.789 274.412 694.912 274.207C695.043 273.993 695.135 273.752 695.188 273.485C695.251 273.217 695.274 272.933 695.26 272.631L695.17 270.806ZM717.564 265.695C717.599 266.402 717.529 267.095 717.354 267.775C717.189 268.454 716.865 269.065 716.381 269.609C715.897 270.152 715.229 270.601 714.377 270.955C713.534 271.308 712.448 271.517 711.119 271.583C711.179 272.043 711.293 272.425 711.459 272.729C711.634 273.032 711.835 273.272 712.061 273.45C712.287 273.628 712.525 273.758 712.775 273.841C713.025 273.923 713.254 273.978 713.464 274.005C713.673 274.033 713.848 274.043 713.99 274.036C714.131 274.029 714.202 274.026 714.202 274.026C714.783 273.931 715.299 273.754 715.75 273.496C715.943 273.392 716.13 273.265 716.312 273.114C716.493 272.954 716.654 272.771 716.795 272.566C716.946 272.35 717.062 272.113 717.143 271.854C717.234 271.585 717.281 271.28 717.283 270.94C717.558 271.541 717.756 272.107 717.877 272.64C718.006 273.163 718.082 273.656 718.105 274.118C718.147 274.966 718.03 275.756 717.754 276.488C717.487 277.21 717.097 277.844 716.585 278.389C716.073 278.934 715.452 279.366 714.721 279.685C714 280.014 713.205 280.199 712.338 280.242C711.489 280.283 710.662 280.178 709.856 279.924C709.059 279.67 708.338 279.243 707.694 278.641C707.059 278.029 706.533 277.224 706.115 276.223C705.707 275.223 705.467 273.996 705.396 272.544C705.319 270.97 705.476 269.563 705.869 268.325C706.262 267.086 706.82 266.038 707.544 265.18C708.267 264.313 709.117 263.643 710.096 263.169C711.084 262.686 712.129 262.417 713.232 262.363C713.779 262.336 714.305 262.372 714.811 262.47C715.326 262.567 715.779 262.748 716.17 263.013C716.571 263.276 716.895 263.629 717.144 264.071C717.392 264.503 717.532 265.044 717.564 265.695ZM710.948 269.252C711.211 269.229 711.515 269.163 711.859 269.051C712.203 268.93 712.526 268.773 712.829 268.578C713.131 268.384 713.379 268.15 713.574 267.875C713.778 267.601 713.871 267.294 713.855 266.954C713.844 266.737 713.76 266.567 713.603 266.442C713.445 266.317 713.249 266.261 713.013 266.272C712.683 266.289 712.391 266.398 712.136 266.599C711.891 266.8 711.681 267.047 711.506 267.339C711.341 267.631 711.21 267.949 711.113 268.294C711.017 268.639 710.962 268.958 710.948 269.252ZM733.069 260.907C733.015 261.335 732.979 261.752 732.961 262.16C732.952 262.567 732.959 262.982 732.98 263.406C732.999 263.812 733.034 264.221 733.082 264.635C733.14 265.038 733.217 265.446 733.313 265.857C732.848 265.643 732.326 265.494 731.745 265.409C731.174 265.324 730.59 265.263 729.992 265.226L730.052 266.442C730.104 267.508 730.176 268.586 730.268 269.678C730.359 270.761 730.472 271.814 730.607 272.837C730.742 273.851 730.898 274.813 731.075 275.721C731.261 276.628 731.471 277.431 731.704 278.128C731.543 278.127 731.354 278.122 731.136 278.114C730.947 278.113 730.725 278.115 730.47 278.118C730.215 278.121 729.922 278.131 729.592 278.147C728.979 278.177 728.273 278.24 727.475 278.336C726.676 278.422 725.813 278.559 724.886 278.747C725.117 276.892 725.249 274.972 725.284 272.985C725.328 270.989 725.303 269.043 725.21 267.148L725.127 265.465C724.488 265.544 723.856 265.65 723.229 265.785C722.611 265.91 722.028 266.057 721.478 266.225C721.511 266.12 721.537 265.981 721.557 265.81C721.577 265.639 721.588 265.464 721.588 265.284C721.598 265.104 721.599 264.929 721.591 264.76C721.592 264.589 721.59 264.448 721.584 264.335C721.56 263.854 721.518 263.379 721.457 262.909C721.397 262.439 721.326 261.965 721.246 261.487C721.708 261.654 722.253 261.783 722.881 261.875C723.509 261.958 724.145 262.011 724.789 262.036C724.692 261.219 724.589 260.463 724.479 259.769C724.369 259.075 724.249 258.448 724.117 257.887C724.887 257.982 725.599 258.037 726.252 258.052C726.905 258.067 727.495 258.062 728.023 258.036C728.363 258.019 728.664 257.999 728.928 257.977C729.2 257.945 729.43 257.915 729.618 257.886C729.843 257.856 730.04 257.823 730.208 257.787C730.127 258.244 730.065 258.814 730.023 259.497C729.99 260.17 729.961 260.922 729.935 261.755C730.554 261.659 731.135 261.541 731.676 261.401C732.227 261.26 732.691 261.095 733.069 260.907ZM752.303 277.755C751.79 277.704 751.221 277.675 750.597 277.668C749.973 277.661 749.35 277.673 748.728 277.703C748.134 277.733 747.559 277.78 747.005 277.845C746.46 277.909 745.986 277.98 745.583 278.056C745.748 277.368 745.869 276.658 745.947 275.926C746.034 275.194 746.086 274.435 746.104 273.65C746.131 272.855 746.133 272.028 746.11 271.169C746.087 270.31 746.052 269.404 746.005 268.452C745.998 268.31 745.979 268.122 745.949 267.887C745.928 267.652 745.892 267.399 745.841 267.127C745.79 266.856 745.72 266.585 745.631 266.315C745.551 266.036 745.449 265.785 745.324 265.565C745.2 265.344 745.05 265.167 744.873 265.034C744.706 264.9 744.514 264.839 744.297 264.85C744.155 264.857 744.018 264.939 743.884 265.097C743.759 265.245 743.631 265.445 743.502 265.697C743.372 265.939 743.249 266.224 743.133 266.551C743.016 266.869 742.905 267.205 742.8 267.56C742.866 268.521 742.945 269.472 743.039 270.412C743.141 271.343 743.256 272.24 743.384 273.103C743.52 273.956 743.668 274.762 743.829 275.52C743.988 276.268 744.167 276.93 744.366 277.506C744.205 277.505 744.016 277.5 743.798 277.492C743.609 277.492 743.382 277.493 743.117 277.497C742.862 277.5 742.57 277.51 742.24 277.526C741.627 277.556 740.921 277.619 740.123 277.715C739.333 277.801 738.475 277.938 737.548 278.125C737.667 277.854 737.767 277.486 737.848 277.018C737.929 276.542 737.993 276.009 738.039 275.421C738.086 274.823 738.116 274.193 738.131 273.531C738.155 272.859 738.164 272.187 738.16 271.517C738.164 270.845 738.156 270.198 738.135 269.575C738.123 268.943 738.109 268.376 738.094 267.876C738.079 267.367 738.062 266.937 738.045 266.588C738.028 266.24 738.017 266.013 738.012 265.91C737.916 264.336 737.801 262.877 737.669 261.532C737.613 260.967 737.552 260.398 737.486 259.825C737.42 259.252 737.347 258.717 737.266 258.22C737.184 257.723 737.097 257.288 737.003 256.914C736.918 256.54 736.824 256.261 736.721 256.077C737.491 256.172 738.203 256.227 738.855 256.242C739.508 256.257 740.094 256.252 740.613 256.226C740.952 256.21 741.258 256.19 741.531 256.167C741.804 256.135 742.034 256.105 742.222 256.077C742.447 256.047 742.644 256.013 742.812 255.977C742.753 256.31 742.706 256.71 742.672 257.174C742.639 257.639 742.612 258.16 742.593 258.738C742.574 259.315 742.562 259.935 742.557 260.597C742.561 261.258 742.571 261.948 742.588 262.665C743.084 261.8 743.635 261.182 744.24 260.812C744.846 260.432 745.483 260.226 746.152 260.193C746.822 260.161 747.442 260.281 748.013 260.556C748.593 260.82 749.101 261.254 749.537 261.856C749.982 262.449 750.341 263.211 750.614 264.142C750.896 265.074 751.068 266.185 751.132 267.477C751.175 268.363 751.22 269.283 751.267 270.235C751.323 271.177 751.392 272.105 751.475 273.018C751.557 273.921 751.665 274.78 751.8 275.596C751.934 276.412 752.102 277.131 752.303 277.755ZM768.109 263.212C768.144 263.92 768.074 264.613 767.899 265.293C767.734 265.972 767.41 266.583 766.926 267.127C766.442 267.67 765.775 268.119 764.922 268.473C764.08 268.826 762.994 269.035 761.664 269.101C761.724 269.561 761.838 269.943 762.004 270.246C762.179 270.55 762.38 270.79 762.606 270.968C762.833 271.146 763.071 271.276 763.32 271.358C763.57 271.441 763.8 271.496 764.009 271.523C764.218 271.551 764.394 271.561 764.535 271.554C764.676 271.547 764.747 271.544 764.747 271.544C765.328 271.449 765.844 271.272 766.295 271.014C766.488 270.91 766.676 270.782 766.857 270.632C767.038 270.472 767.2 270.289 767.341 270.084C767.491 269.868 767.607 269.631 767.689 269.372C767.779 269.103 767.826 268.798 767.828 268.458C768.103 269.058 768.301 269.625 768.422 270.158C768.551 270.681 768.628 271.173 768.65 271.635C768.692 272.484 768.575 273.274 768.299 274.006C768.032 274.728 767.642 275.362 767.13 275.906C766.618 276.451 765.997 276.884 765.266 277.203C764.545 277.532 763.751 277.717 762.883 277.76C762.035 277.801 761.207 277.695 760.401 277.442C759.604 277.188 758.883 276.76 758.24 276.159C757.605 275.547 757.078 274.741 756.661 273.741C756.252 272.74 756.012 271.514 755.941 270.062C755.864 268.487 756.022 267.081 756.414 265.842C756.807 264.604 757.365 263.556 758.089 262.698C758.812 261.831 759.663 261.16 760.641 260.687C761.629 260.204 762.674 259.935 763.777 259.881C764.324 259.854 764.851 259.89 765.356 259.988C765.871 260.085 766.325 260.266 766.716 260.53C767.116 260.794 767.441 261.147 767.689 261.588C767.937 262.02 768.077 262.562 768.109 263.212ZM761.493 266.77C761.756 266.747 762.06 266.68 762.405 266.569C762.748 266.448 763.071 266.29 763.374 266.096C763.676 265.902 763.925 265.667 764.119 265.393C764.323 265.118 764.416 264.811 764.4 264.472C764.389 264.255 764.305 264.084 764.148 263.96C763.99 263.835 763.794 263.779 763.558 263.79C763.228 263.806 762.936 263.915 762.681 264.117C762.436 264.318 762.226 264.565 762.051 264.857C761.886 265.148 761.755 265.467 761.659 265.812C761.562 266.157 761.507 266.476 761.493 266.77ZM780.207 262.944C779.915 262.959 779.655 263.056 779.428 263.238C779.2 263.41 778.999 263.651 778.825 263.962C778.661 264.263 778.518 264.625 778.397 265.046C778.285 265.468 778.199 265.93 778.139 266.434C778.178 267.236 778.237 268.046 778.315 268.864C778.393 269.683 778.494 270.49 778.618 271.288C778.742 272.085 778.889 272.862 779.059 273.619C779.238 274.376 779.443 275.094 779.675 275.772C779.523 275.77 779.348 275.765 779.149 275.756C778.979 275.755 778.771 275.755 778.526 275.758C778.289 275.76 778.016 275.769 777.705 275.784C777.12 275.813 776.443 275.875 775.672 275.969C774.911 276.054 774.067 276.19 773.14 276.377C773.228 275.843 773.295 275.193 773.342 274.425C773.39 273.657 773.42 272.824 773.432 271.925C773.445 271.027 773.441 270.091 773.422 269.119C773.411 268.136 773.383 267.169 773.336 266.216C773.301 265.509 773.258 264.817 773.206 264.139C773.153 263.461 773.094 262.821 773.026 262.219C772.968 261.617 772.899 261.063 772.817 260.557C772.736 260.05 772.648 259.615 772.555 259.251C773.325 259.346 774.022 259.406 774.647 259.432C775.281 259.448 775.848 259.444 776.348 259.419C776.669 259.404 776.951 259.385 777.196 259.364C777.44 259.333 777.651 259.303 777.83 259.276C778.026 259.238 778.204 259.201 778.363 259.164C778.273 259.641 778.214 260.169 778.185 260.747C778.647 260.129 779.158 259.664 779.719 259.353C780.29 259.042 780.83 258.873 781.339 258.848C782.187 258.807 782.912 258.927 783.511 259.209C784.111 259.482 784.602 259.86 784.985 260.342C785.367 260.815 785.654 261.363 785.845 261.987C786.037 262.611 786.148 263.248 786.18 263.899C786.211 264.53 786.152 265.152 786.002 265.765C785.853 266.377 785.62 266.932 785.304 267.429C784.988 267.917 784.587 268.32 784.102 268.637C783.617 268.953 783.058 269.127 782.426 269.158C781.87 269.186 781.389 269.115 780.984 268.946C780.588 268.776 780.256 268.547 779.986 268.257C779.717 267.968 779.512 267.647 779.372 267.295C779.241 266.933 779.166 266.573 779.149 266.215C779.13 265.837 779.164 265.467 779.25 265.104C779.346 264.74 779.49 264.407 779.683 264.104C779.759 264.308 779.847 264.465 779.947 264.573C780.056 264.672 780.163 264.742 780.269 264.784C780.385 264.835 780.509 264.862 780.642 264.865C780.991 264.848 781.246 264.755 781.408 264.587C781.579 264.418 781.659 264.225 781.649 264.008C781.644 263.904 781.619 263.787 781.575 263.657C781.531 263.527 781.454 263.408 781.345 263.3C781.245 263.191 781.104 263.103 780.921 263.037C780.737 262.961 780.5 262.93 780.207 262.944Z" fill="black"/>
</g>
<g id="Group 5630">
<g id="green-cloud">
<g id="cloud-body">
<g id="cloud">
<path d="M558.589 229.994L590.225 229.443C597.765 229.312 604.573 224.892 607.764 218.055C611.009 211.104 609.932 202.903 605.004 197.029L601.938 193.375C595.346 185.519 584.897 182.041 574.909 184.378L294.205 250.075C289.913 251.08 286.358 254.074 284.638 258.134C280.518 267.855 288.385 278.41 298.874 277.233L323.218 274.5C320.633 296.056 346.589 308.855 362.12 293.682L373.136 282.921C362.921 303.785 385.365 325.517 405.88 314.626L424.056 304.977L430.772 333.753C432.102 339.454 435.071 344.639 439.313 348.671L443.714 352.855C458.587 366.993 483.06 362.316 489.743 342.901C496.044 324.593 498.808 311.484 500.576 303.1C502.337 294.746 503.109 291.084 505.407 291.643L526.157 295.588C545.751 299.313 563.465 283.225 561.645 263.357L558.589 229.994Z" fill="#B7F631"/>
<path d="M558.589 229.994L590.225 229.443C597.765 229.312 604.573 224.892 607.764 218.055C611.009 211.104 609.932 202.903 605.004 197.029L601.938 193.375C595.346 185.519 584.897 182.041 574.909 184.378L294.205 250.075C289.913 251.08 286.358 254.074 284.638 258.134C280.518 267.855 288.385 278.41 298.874 277.233L323.218 274.5C320.633 296.056 346.589 308.855 362.12 293.682L373.136 282.921C362.921 303.785 385.365 325.517 405.88 314.626L424.056 304.977L430.772 333.753C432.102 339.454 435.071 344.639 439.313 348.671L443.714 352.855C458.587 366.993 483.06 362.316 489.743 342.901C496.044 324.593 498.808 311.484 500.576 303.1C502.337 294.746 503.109 291.084 505.407 291.643L526.157 295.588C545.751 299.313 563.465 283.225 561.645 263.357L558.589 229.994Z" stroke="#E8BD0F"/>
</g>
<g id="cloud_2">
<path d="M329.523 231.954L297.881 232.12C290.339 232.16 283.479 236.497 280.207 243.293C276.879 250.205 277.857 258.418 282.716 264.351L285.738 268.042C292.236 275.977 302.644 279.582 312.659 277.366L594.14 215.091C598.444 214.139 602.035 211.188 603.804 207.149C608.039 197.479 600.298 186.83 589.795 187.88L565.419 190.317C568.261 168.794 542.458 155.681 526.746 170.663L515.603 181.289C526.066 160.552 503.882 138.55 483.236 149.19L464.946 158.617L458.574 129.763C457.312 124.046 454.404 118.825 450.211 114.742L445.86 110.505C431.156 96.1885 406.627 100.568 399.713 119.898C393.194 138.128 390.274 151.202 388.406 159.563C386.545 167.894 385.729 171.547 383.439 170.96L362.736 166.763C343.187 162.8 325.281 178.671 326.864 198.558L329.523 231.954Z" fill="#B7F631"/>
<path d="M329.523 231.954L297.881 232.12C290.339 232.16 283.479 236.497 280.207 243.293C276.879 250.205 277.857 258.418 282.716 264.351L285.738 268.042C292.236 275.977 302.644 279.582 312.659 277.366L594.14 215.091C598.444 214.139 602.035 211.188 603.804 207.149C608.039 197.479 600.298 186.83 589.795 187.88L565.419 190.317C568.261 168.794 542.458 155.681 526.746 170.663L515.603 181.289C526.066 160.552 503.882 138.55 483.236 149.19L464.946 158.617L458.574 129.763C457.312 124.046 454.404 118.825 450.211 114.742L445.86 110.505C431.156 96.1885 406.627 100.568 399.713 119.898C393.194 138.128 390.274 151.202 388.406 159.563C386.545 167.894 385.729 171.547 383.439 170.96L362.736 166.763C343.187 162.8 325.281 178.671 326.864 198.558L329.523 231.954Z" stroke="#E8BD0F"/>
</g>
</g>
<g id="cloud-left-eye">
<path id="Ellipse 101" d="M400 253C381.775 253 367 238.226 367 220C367 201.775 381.775 187 400 187V253Z" fill="#FEF5F5"/>
<path id="Ellipse 103" d="M402 253C420.225 253 435 238.226 435 220C435 201.775 420.225 187 402 187V253Z" fill="#141313"/>
</g>
<g id="cloud-right-eye">
<path id="right-eye-left" d="M480 242C461.775 242 447 227.226 447 209C447 190.775 461.775 176 480 176V242Z" fill="#FEF5F5"/>
<path id="right-eye-right" d="M482 242C500.225 242 515 227.226 515 209C515 190.775 500.225 176 482 176V242Z" fill="#141313"/>
</g>
</g>
<g id="sparkle_3">
<path d="M525.07 314.248C532.062 310.019 540.729 306.434 547.609 306.488C554.485 306.545 562.549 310.254 568.829 314.586C565.086 307.937 562.115 299.577 562.687 292.719C563.256 285.864 567.602 277.557 572.45 270.973C565.455 275.206 556.793 278.785 549.91 278.732C543.033 278.68 534.971 274.968 528.689 270.638C532.435 277.282 535.403 285.648 534.834 292.503C534.266 299.356 529.916 307.668 525.07 314.248Z" fill="#0E0E0E"/>
<path d="M525.07 314.248C532.062 310.019 540.729 306.434 547.609 306.488C554.485 306.545 562.549 310.254 568.829 314.586C565.086 307.937 562.115 299.577 562.687 292.719C563.256 285.864 567.602 277.557 572.45 270.973C565.455 275.206 556.793 278.785 549.91 278.732C543.033 278.68 534.971 274.968 528.689 270.638C532.435 277.282 535.403 285.648 534.834 292.503C534.266 299.356 529.916 307.668 525.07 314.248Z" stroke="black"/>
</g>
</g>
</g>
<defs>
<clipPath id="clip0_146_769">
<rect width="92.0736" height="92.0736" fill="white" transform="translate(1241.11 218.844) rotate(20.4836)"/>
</clipPath>
</defs>
</svg>
